<svg width="202" height="40" viewBox="0 0 202 40" fill="none" xmlns="http://www.w3.org/2000/svg">
<path d="M49.3352 15.0579H53.6807C56.4857 15.0579 58.3802 15.1867 59.3642 15.4442C60.3575 15.7017 61.1116 16.1247 61.6266 16.7133C62.1416 17.3019 62.4635 17.9594 62.5922 18.686C62.721 19.4033 62.7854 20.8196 62.7854 22.9349V30.7566C62.7854 32.7615 62.6888 34.1042 62.4957 34.7848C62.3117 35.4561 61.9853 35.9849 61.5162 36.3712C61.0472 36.7483 60.4678 37.015 59.7781 37.1713C59.0883 37.3185 58.0491 37.392 56.6604 37.392H49.3352V15.0579ZM55.1429 18.8791V33.5708C55.9798 33.5708 56.4948 33.4053 56.688 33.0742C56.8811 32.7339 56.9777 31.8188 56.9777 30.329V21.6519C56.9777 20.6403 56.9455 19.9919 56.8811 19.7068C56.8167 19.4217 56.6696 19.2148 56.4397 19.086C56.2098 18.9481 55.7775 18.8791 55.1429 18.8791Z" fill="white"/>
<path d="M70.3588 19.086L70.1381 21.4864C70.9474 19.7666 72.12 18.8561 73.6558 18.755V25.1972C72.635 25.1972 71.8855 25.3352 71.4073 25.6111C70.929 25.887 70.6347 26.2732 70.5244 26.7699C70.414 27.2573 70.3588 28.3885 70.3588 30.1634V37.392H64.7857V19.086H70.3588Z" fill="white"/>
<path d="M87.5336 28.5632H80.3188V32.5224C80.3188 33.3501 80.3786 33.8835 80.4982 34.1226C80.6177 34.3617 80.8477 34.4813 81.1879 34.4813C81.611 34.4813 81.8915 34.3249 82.0294 34.0122C82.1766 33.6904 82.2501 33.0742 82.2501 32.1637V29.7496H87.5336V31.1015C87.5336 32.2327 87.4601 33.1018 87.3129 33.7088C87.175 34.3157 86.8439 34.9641 86.3197 35.6539C85.7955 36.3436 85.1287 36.8632 84.3194 37.2127C83.5193 37.553 82.5122 37.7231 81.2983 37.7231C80.1211 37.7231 79.0819 37.553 78.1806 37.2127C77.2793 36.8724 76.5758 36.408 76.07 35.8194C75.5734 35.2216 75.2285 34.5686 75.0354 33.8605C74.8422 33.1432 74.7457 32.1039 74.7457 30.7428V25.4042C74.7457 23.8039 74.9618 22.544 75.394 21.6243C75.8263 20.6955 76.5344 19.9873 77.5185 19.4999C78.5025 19.0033 79.6337 18.755 80.912 18.755C82.4755 18.755 83.763 19.0539 84.7746 19.6516C85.7955 20.2402 86.5082 21.0265 86.9129 22.0106C87.3267 22.9854 87.5336 24.3603 87.5336 26.1353V28.5632ZM81.9467 25.5835V24.2454C81.9467 23.2981 81.8961 22.6865 81.7949 22.4106C81.6937 22.1347 81.4868 21.9968 81.1741 21.9968C80.7879 21.9968 80.5488 22.1163 80.4568 22.3555C80.3648 22.5854 80.3188 23.2154 80.3188 24.2454V25.5835H81.9467Z" fill="white"/>
<path d="M94.3484 26.1767H89.1201V24.9489C89.1201 23.5326 89.281 22.4428 89.6029 21.6795C89.934 20.907 90.5915 20.2264 91.5756 19.6378C92.5596 19.0493 93.838 18.755 95.4106 18.755C97.2959 18.755 98.7168 19.0906 99.6733 19.762C100.63 20.4242 101.204 21.2427 101.398 22.2175C101.591 23.1832 101.687 25.1788 101.687 28.2045V37.392H96.2659V35.7642C95.9256 36.4172 95.4842 36.9092 94.9416 37.2403C94.4082 37.5622 93.769 37.7231 93.0241 37.7231C92.0492 37.7231 91.1525 37.4518 90.334 36.9092C89.5247 36.3574 89.1201 35.1572 89.1201 33.3087V31.805C89.1201 30.4347 89.3362 29.5013 89.7684 29.0047C90.2007 28.508 91.2721 27.9286 92.9827 27.2665C94.8128 26.5491 95.7923 26.0663 95.921 25.818C96.0498 25.5697 96.1141 25.0639 96.1141 24.3006C96.1141 23.3441 96.0406 22.7233 95.8934 22.4382C95.7555 22.1439 95.521 21.9968 95.1899 21.9968C94.8128 21.9968 94.5783 22.1209 94.4863 22.3693C94.3944 22.6084 94.3484 23.2383 94.3484 24.2592V26.1767ZM96.1141 28.6874C95.2221 29.3403 94.7024 29.8875 94.5553 30.329C94.4174 30.7704 94.3484 31.405 94.3484 32.2327C94.3484 33.18 94.4082 33.7915 94.5277 34.0674C94.6565 34.3433 94.9048 34.4813 95.2726 34.4813C95.6221 34.4813 95.8474 34.3755 95.9486 34.164C96.059 33.9433 96.1141 33.3731 96.1141 32.4534V28.6874Z" fill="white"/>
<path d="M109.109 19.086L109.012 20.8242C109.445 20.1345 109.96 19.6194 110.558 19.2792C111.155 18.9297 111.836 18.755 112.599 18.755C114.089 18.755 115.262 19.4447 116.117 20.8242C116.586 20.1345 117.115 19.6194 117.703 19.2792C118.292 18.9297 118.945 18.755 119.662 18.755C120.609 18.755 121.391 18.9849 122.007 19.4447C122.633 19.9045 123.033 20.4701 123.208 21.1415C123.382 21.8037 123.47 22.8843 123.47 24.3833V37.392H118.062V25.4593C118.062 23.8959 118.007 22.9303 117.896 22.5624C117.795 22.1853 117.552 21.9968 117.165 21.9968C116.77 21.9968 116.512 22.1807 116.393 22.5486C116.282 22.9165 116.227 23.8867 116.227 25.4593V37.392H110.82V25.7628C110.82 23.9695 110.774 22.8935 110.682 22.5348C110.599 22.1761 110.36 21.9968 109.964 21.9968C109.716 21.9968 109.505 22.0934 109.33 22.2865C109.155 22.4704 109.058 22.7003 109.04 22.9762C109.022 23.2429 109.012 23.8177 109.012 24.7006V37.392H103.605V19.086H109.109Z" fill="white"/>
<path d="M138.918 21.8175H133.525V20.1621C133.525 19.3895 133.456 18.8975 133.318 18.686C133.18 18.4745 132.95 18.3687 132.628 18.3687C132.278 18.3687 132.012 18.5112 131.828 18.7963C131.653 19.0814 131.566 19.5137 131.566 20.0931C131.566 20.838 131.667 21.399 131.869 21.7761C132.062 22.1531 132.61 22.6084 133.511 23.1418C136.095 24.6776 137.723 25.9376 138.394 26.9216C139.066 27.9057 139.401 29.4921 139.401 31.6809C139.401 33.2719 139.213 34.4445 138.836 35.1986C138.468 35.9527 137.75 36.5873 136.684 37.1023C135.617 37.6082 134.375 37.8611 132.959 37.8611C131.405 37.8611 130.076 37.5668 128.972 36.9782C127.878 36.3896 127.16 35.6401 126.82 34.7296C126.48 33.8191 126.31 32.527 126.31 30.8532V29.3909H131.704V32.1085C131.704 32.9454 131.777 33.4834 131.924 33.7226C132.081 33.9617 132.352 34.0812 132.738 34.0812C133.125 34.0812 133.41 33.9295 133.594 33.626C133.787 33.3225 133.883 32.8719 133.883 32.2741C133.883 30.959 133.704 30.0991 133.345 29.6944C132.977 29.2898 132.072 28.6138 130.628 27.6665C129.184 26.7101 128.227 26.0157 127.758 25.5835C127.289 25.1513 126.898 24.5535 126.586 23.7901C126.282 23.0268 126.13 22.052 126.13 20.8656C126.13 19.155 126.347 17.9043 126.779 17.1134C127.22 16.3224 127.928 15.7063 128.903 15.2648C129.878 14.8142 131.055 14.5889 132.435 14.5889C133.943 14.5889 135.226 14.8326 136.284 15.32C137.35 15.8074 138.054 16.4236 138.394 17.1685C138.744 17.9043 138.918 19.1596 138.918 20.9346V21.8175Z" fill="white"/>
<path d="M146.74 19.086L146.644 20.7001C147.14 20.0471 147.687 19.5597 148.285 19.2378C148.883 18.9159 149.536 18.755 150.244 18.755C151.109 18.755 151.854 18.9895 152.479 19.4585C153.114 19.9183 153.509 20.4517 153.665 21.0587C153.822 21.6657 153.9 22.6957 153.9 24.1488V31.8602C153.9 33.5248 153.799 34.7112 153.596 35.4193C153.403 36.1183 152.999 36.6793 152.382 37.1023C151.775 37.5162 151.04 37.7231 150.175 37.7231C149.485 37.7231 148.846 37.5622 148.258 37.2403C147.669 36.9184 147.131 36.4402 146.644 35.8056V39.9993H141.07V19.086H146.74ZM148.327 24.4109C148.327 23.2797 148.285 22.5946 148.202 22.3555C148.12 22.1163 147.89 21.9968 147.513 21.9968C147.145 21.9968 146.906 22.1347 146.795 22.4106C146.694 22.6865 146.644 23.3533 146.644 24.4109V31.9982C146.644 33.1018 146.699 33.7915 146.809 34.0674C146.92 34.3433 147.159 34.4813 147.527 34.4813C147.885 34.4813 148.106 34.3571 148.189 34.1088C148.281 33.8513 148.327 33.2351 148.327 32.2603V24.4109Z" fill="white"/>
<path d="M168.357 25.5145V29.9979C168.357 31.6441 168.274 32.8535 168.109 33.626C167.943 34.3893 167.589 35.1067 167.046 35.778C166.504 36.4402 165.805 36.9322 164.95 37.2541C164.104 37.5668 163.129 37.7231 162.025 37.7231C160.793 37.7231 159.749 37.5898 158.894 37.3231C158.038 37.0472 157.372 36.6379 156.893 36.0953C156.424 35.5435 156.089 34.8813 155.886 34.1088C155.684 33.3271 155.583 32.1591 155.583 30.6049V25.9146C155.583 24.2132 155.767 22.8843 156.135 21.9278C156.503 20.9714 157.165 20.2034 158.121 19.624C159.078 19.0447 160.301 18.755 161.791 18.755C163.041 18.755 164.113 18.9435 165.005 19.3206C165.906 19.6884 166.6 20.1713 167.088 20.769C167.575 21.3668 167.906 21.983 168.081 22.6176C168.265 23.2521 168.357 24.2178 168.357 25.5145ZM162.784 24.135C162.784 23.197 162.733 22.6084 162.632 22.3693C162.531 22.1209 162.315 21.9968 161.984 21.9968C161.653 21.9968 161.432 22.1209 161.322 22.3693C161.211 22.6084 161.156 23.197 161.156 24.135V32.3982C161.156 33.2627 161.211 33.8283 161.322 34.095C161.432 34.3525 161.648 34.4813 161.97 34.4813C162.301 34.4813 162.517 34.3617 162.618 34.1226C162.729 33.8835 162.784 33.3685 162.784 32.5776V24.135Z" fill="white"/>
<path d="M175.779 19.086L175.558 21.4864C176.367 19.7666 177.54 18.8561 179.076 18.755V25.1972C178.055 25.1972 177.305 25.3352 176.827 25.6111C176.349 25.887 176.055 26.2732 175.944 26.7699C175.834 27.2573 175.779 28.3885 175.779 30.1634V37.392H170.206V19.086H175.779Z" fill="white"/>
<path d="M186.732 16.6443V19.5275H188.236V22.4244H186.732V32.2189C186.732 33.4237 186.792 34.095 186.911 34.233C187.04 34.3709 187.56 34.4399 188.47 34.4399V37.392H186.222C184.952 37.392 184.047 37.3414 183.504 37.2403C182.961 37.1299 182.483 36.8862 182.069 36.5091C181.655 36.1229 181.398 35.686 181.297 35.1986C181.196 34.702 181.145 33.5432 181.145 31.7223V22.4244H179.945V19.5275H181.145V16.6443H186.732Z" fill="white"/>
<path d="M200.844 24.9351H195.906V23.9419C195.906 23.0958 195.855 22.5624 195.754 22.3417C195.662 22.1117 195.423 21.9968 195.037 21.9968C194.724 21.9968 194.489 22.1026 194.333 22.3141C194.177 22.5164 194.099 22.8245 194.099 23.2383C194.099 23.7993 194.135 24.2132 194.209 24.4799C194.292 24.7374 194.526 25.0225 194.912 25.3352C195.308 25.6479 196.113 26.1031 197.327 26.7009C198.945 27.4918 200.007 28.2367 200.513 28.9357C201.019 29.6346 201.272 30.6509 201.272 31.9844C201.272 33.4742 201.079 34.6008 200.693 35.3642C200.306 36.1183 199.658 36.7023 198.747 37.1161C197.846 37.5208 196.756 37.7231 195.478 37.7231C194.062 37.7231 192.848 37.5024 191.836 37.0609C190.834 36.6195 190.144 36.0217 189.767 35.2676C189.39 34.5135 189.201 33.3731 189.201 31.8464V30.9636H194.14V32.1223C194.14 33.1064 194.2 33.7455 194.319 34.0398C194.448 34.3341 194.696 34.4813 195.064 34.4813C195.46 34.4813 195.736 34.3847 195.892 34.1916C196.048 33.9893 196.126 33.5708 196.126 32.9362C196.126 32.0626 196.025 31.5154 195.823 31.2946C195.611 31.0739 194.531 30.4209 192.581 29.3357C190.944 28.4161 189.946 27.5838 189.588 26.8388C189.229 26.0847 189.05 25.1926 189.05 24.1626C189.05 22.7003 189.243 21.6243 189.629 20.9346C190.015 20.2356 190.668 19.6976 191.588 19.3206C192.517 18.9435 193.593 18.755 194.816 18.755C196.03 18.755 197.06 18.9113 197.906 19.224C198.761 19.5275 199.414 19.9321 199.865 20.438C200.325 20.9438 200.601 21.4128 200.693 21.845C200.794 22.2773 200.844 22.9532 200.844 23.8729V24.9351Z" fill="white"/>
<path d="M159.55 12V3.6H164.998V4.86H161.11V7.176H164.254V8.4H161.11V12H159.55ZM168.007 12.144C167.407 12.144 166.867 12.012 166.387 11.748C165.907 11.484 165.527 11.116 165.247 10.644C164.967 10.172 164.827 9.632 164.827 9.024C164.827 8.408 164.967 7.868 165.247 7.404C165.527 6.932 165.907 6.564 166.387 6.3C166.875 6.036 167.415 5.904 168.007 5.904C168.607 5.904 169.147 6.036 169.627 6.3C170.107 6.564 170.487 6.932 170.767 7.404C171.047 7.868 171.187 8.408 171.187 9.024C171.187 9.632 171.047 10.172 170.767 10.644C170.487 11.116 170.107 11.484 169.627 11.748C169.147 12.012 168.607 12.144 168.007 12.144ZM168.007 10.8C168.295 10.8 168.559 10.736 168.799 10.608C169.039 10.472 169.227 10.272 169.363 10.008C169.507 9.744 169.579 9.416 169.579 9.024C169.579 8.632 169.507 8.304 169.363 8.04C169.219 7.776 169.027 7.58 168.787 7.452C168.555 7.316 168.299 7.248 168.019 7.248C167.731 7.248 167.467 7.316 167.227 7.452C166.987 7.588 166.795 7.788 166.651 8.052C166.507 8.308 166.435 8.632 166.435 9.024C166.435 9.416 166.503 9.744 166.639 10.008C166.783 10.272 166.975 10.472 167.215 10.608C167.455 10.736 167.719 10.8 168.007 10.8ZM174.921 12.144C174.321 12.144 173.781 12.012 173.301 11.748C172.821 11.484 172.441 11.116 172.161 10.644C171.881 10.172 171.741 9.632 171.741 9.024C171.741 8.408 171.881 7.868 172.161 7.404C172.441 6.932 172.821 6.564 173.301 6.3C173.789 6.036 174.329 5.904 174.921 5.904C175.521 5.904 176.061 6.036 176.541 6.3C177.021 6.564 177.401 6.932 177.681 7.404C177.961 7.868 178.101 8.408 178.101 9.024C178.101 9.632 177.961 10.172 177.681 10.644C177.401 11.116 177.021 11.484 176.541 11.748C176.061 12.012 175.521 12.144 174.921 12.144ZM174.921 10.8C175.209 10.8 175.473 10.736 175.713 10.608C175.953 10.472 176.141 10.272 176.277 10.008C176.421 9.744 176.493 9.416 176.493 9.024C176.493 8.632 176.421 8.304 176.277 8.04C176.133 7.776 175.941 7.58 175.701 7.452C175.469 7.316 175.213 7.248 174.933 7.248C174.645 7.248 174.381 7.316 174.141 7.452C173.901 7.588 173.709 7.788 173.565 8.052C173.421 8.308 173.349 8.632 173.349 9.024C173.349 9.416 173.417 9.744 173.553 10.008C173.697 10.272 173.889 10.472 174.129 10.608C174.369 10.736 174.633 10.8 174.921 10.8ZM181.213 12C180.813 12 180.473 11.956 180.193 11.868C179.921 11.772 179.717 11.592 179.581 11.328C179.445 11.056 179.377 10.668 179.377 10.164V7.356H178.357V6.048H179.377V4.452H180.937V6.048H182.437V7.356H180.937V9.972C180.937 10.172 180.957 10.324 180.997 10.428C181.037 10.524 181.113 10.588 181.225 10.62C181.337 10.652 181.489 10.668 181.681 10.668H182.401V12H181.213ZM186.607 12.144C186.159 12.144 185.767 12.06 185.431 11.892C185.103 11.724 184.835 11.492 184.627 11.196V12H183.067V3.36H184.627V6.9C184.819 6.636 185.071 6.404 185.383 6.204C185.703 6.004 186.111 5.904 186.607 5.904C187.167 5.904 187.667 6.04 188.107 6.312C188.547 6.584 188.895 6.956 189.151 7.428C189.407 7.9 189.535 8.436 189.535 9.036C189.535 9.628 189.407 10.16 189.151 10.632C188.895 11.104 188.547 11.476 188.107 11.748C187.667 12.012 187.167 12.144 186.607 12.144ZM186.259 10.788C186.587 10.788 186.879 10.712 187.135 10.56C187.391 10.408 187.591 10.2 187.735 9.936C187.879 9.672 187.951 9.372 187.951 9.036C187.951 8.692 187.879 8.388 187.735 8.124C187.591 7.852 187.391 7.64 187.135 7.488C186.879 7.336 186.587 7.26 186.259 7.26C185.931 7.26 185.639 7.336 185.383 7.488C185.135 7.64 184.939 7.848 184.795 8.112C184.659 8.376 184.591 8.68 184.591 9.024C184.591 9.368 184.659 9.672 184.795 9.936C184.939 10.2 185.135 10.408 185.383 10.56C185.639 10.712 185.931 10.788 186.259 10.788ZM192.196 12.144C191.748 12.144 191.36 12.064 191.032 11.904C190.712 11.744 190.468 11.528 190.3 11.256C190.132 10.984 190.048 10.684 190.048 10.356C190.048 9.732 190.272 9.252 190.72 8.916C191.168 8.572 191.756 8.4 192.484 8.4C192.828 8.4 193.124 8.424 193.372 8.472C193.62 8.52 193.824 8.572 193.984 8.628V8.34C193.984 7.924 193.864 7.62 193.624 7.428C193.392 7.236 193.088 7.14 192.712 7.14C192.448 7.14 192.212 7.196 192.004 7.308C191.796 7.412 191.664 7.6 191.608 7.872H190.132C190.18 7.448 190.324 7.092 190.564 6.804C190.804 6.508 191.108 6.284 191.476 6.132C191.852 5.98 192.264 5.904 192.712 5.904C193.6 5.904 194.292 6.116 194.788 6.54C195.292 6.964 195.544 7.564 195.544 8.34V9.684C195.544 9.988 195.56 10.212 195.592 10.356C195.632 10.5 195.692 10.592 195.772 10.632C195.852 10.672 195.96 10.692 196.096 10.692H196.144V12H195.808C195.384 12 195.032 11.944 194.752 11.832C194.472 11.72 194.268 11.5 194.14 11.172C193.94 11.452 193.676 11.684 193.348 11.868C193.02 12.052 192.636 12.144 192.196 12.144ZM192.544 10.956C192.8 10.956 193.016 10.9 193.192 10.788C193.376 10.668 193.528 10.508 193.648 10.308C193.768 10.1 193.852 9.876 193.9 9.636C193.732 9.588 193.536 9.544 193.312 9.504C193.096 9.456 192.876 9.432 192.652 9.432C192.34 9.432 192.088 9.504 191.896 9.648C191.712 9.784 191.62 9.976 191.62 10.224C191.62 10.44 191.7 10.616 191.86 10.752C192.028 10.888 192.256 10.956 192.544 10.956ZM196.812 12V3.36H198.372V12H196.812ZM199.355 12V3.36H200.915V12H199.355Z" fill="#A4DA01"/>
<path d="M19.9724 32.6216C20.2635 32.9536 20.5718 33.2707 20.8959 33.5727C21.0357 33.7037 21.1791 33.8315 21.3248 33.9556C22.2633 34.7587 23.3205 35.4406 24.471 35.9777C24.6641 36.0668 24.8593 36.1533 25.0573 36.2344C25.7409 36.5157 26.4536 36.7478 27.1915 36.9234C27.3559 36.9623 27.52 36.9972 27.6844 37.0294C28.3116 37.1538 28.9371 37.2322 29.5588 37.2646C29.8704 37.2818 30.1811 37.2868 30.49 37.2811C31.12 37.27 31.7428 37.212 32.3551 37.1121C33.1623 36.9799 33.9508 36.773 34.7114 36.497C35.6522 36.1562 36.5504 35.7103 37.3874 35.1693C37.6842 34.9769 37.9731 34.773 38.2537 34.5581C38.896 34.0651 39.4949 33.5128 40.0402 32.9065C40.9772 31.8635 41.7556 30.6602 42.3283 29.3275C42.5123 28.8991 42.6745 28.4567 42.8147 28.0026C42.8997 27.7279 42.9769 27.4492 43.0446 27.1654C43.9863 23.2084 43.066 19.1389 40.8324 16.0335C40.5562 15.6483 40.2593 15.2793 39.9432 14.9262C38.9977 13.8693 37.8812 12.9637 36.6213 12.2635C35.9235 11.8755 35.1826 11.5507 34.4014 11.2977C34.0709 11.1911 33.7338 11.0969 33.3896 11.017L33.3873 11.0166C32.3879 10.7836 31.3988 10.6646 30.4306 10.6493C29.6034 10.6363 28.7918 10.6974 28.0022 10.8296C27.3806 10.9341 26.7728 11.081 26.1819 11.2687C25.8854 11.363 25.5929 11.4678 25.3054 11.582C24.7179 11.8154 24.1504 12.0895 23.6056 12.4016C22.8089 12.8585 22.0617 13.397 21.3759 14.0058C21.2156 14.1482 21.0586 14.2949 20.9048 14.4449C20.0041 15.3251 19.2234 16.3354 18.5911 17.4495C18.4945 17.6196 18.4012 17.7923 18.3115 17.9677C18.1051 18.3704 17.9186 18.7856 17.7516 19.2123C17.5201 19.8038 17.3269 20.4175 17.1766 21.049C16.0902 25.4425 17.3211 29.6052 19.9724 32.6216ZM26.4302 36.259C25.9269 36.1017 25.4392 35.9155 24.9692 35.7023C24.7692 35.6117 24.572 35.5157 24.378 35.4159C23.1763 34.7925 22.1003 33.99 21.1751 33.0515L21.0691 32.9427C21.0017 32.6403 20.9669 32.3418 20.9672 32.0484C20.967 31.9767 20.969 31.9049 20.9731 31.8339C20.9883 31.5738 21.0318 31.3165 21.1018 31.0624C21.982 31.4957 22.8902 31.8089 23.8192 32.0439C24.0072 32.0914 24.1958 32.1357 24.385 32.1773C24.8356 32.2757 25.2911 32.3578 25.7495 32.4282C26.1932 33.1933 26.7042 33.9126 27.2794 34.5864C27.6391 35.0074 28.0248 35.4109 28.4346 35.7966C28.149 35.9405 27.8463 36.0452 27.5333 36.1192C27.1763 36.2024 26.8059 36.2457 26.4302 36.259ZM31.8722 19.3563C32.9853 20.0305 34.0622 20.7569 35.1239 21.5046C35.4909 21.7631 35.8567 22.024 36.2209 22.286L36.3984 22.4134C36.3708 22.5575 36.3423 22.7009 36.3134 22.8445C36.1471 23.673 35.9612 24.4939 35.7542 25.3103C35.5071 26.2861 35.2301 27.2544 34.9226 28.2199C34.4078 28.2814 33.8882 28.3276 33.3633 28.3596C32.8979 28.3878 32.4289 28.4054 31.9547 28.4124C31.6103 28.4172 31.2636 28.4171 30.9138 28.4119C30.2876 28.4024 29.6533 28.3781 29.009 28.3407L28.9205 28.3358L28.8432 28.3118C28.371 27.3243 27.9226 26.293 27.568 25.2439C27.2909 24.4245 27.0713 23.5937 26.9426 22.764C26.9385 22.7188 26.9707 22.6661 27.0104 22.64L27.1203 22.5406C27.3863 22.3032 27.6568 22.0678 27.9319 21.8349C28.4735 21.3771 29.0319 20.9293 29.6035 20.4984C30.2289 20.0263 30.8702 19.573 31.522 19.1465C31.6391 19.2159 31.7555 19.2854 31.8722 19.3563ZM31.6265 18.9555C31.4428 17.613 31.2473 16.201 31.1206 14.8178C31.1097 14.6978 31.0992 14.5773 31.0894 14.4571C31.7074 14.1814 32.3505 13.9587 33.0167 13.7807C33.2785 13.711 33.5436 13.6471 33.8132 13.5905C34.1217 13.5254 34.4346 13.4687 34.7526 13.4202C34.8813 13.4004 35.0113 13.3815 35.1415 13.3641C35.7825 13.6652 36.389 14.0006 36.9696 14.3684C37.1666 14.4934 37.361 14.6225 37.5524 14.7544C38.3035 15.2749 39.0145 15.8513 39.7024 16.4741C39.7048 16.4793 39.7089 16.4835 39.7127 16.4882C39.9797 17.222 40.1632 17.9485 40.2802 18.6681C40.3937 19.3766 40.4444 20.0797 40.4436 20.7766C39.7037 21.1338 38.9536 21.4618 38.1912 21.7445C37.657 21.9428 37.1169 22.1195 36.569 22.2674L36.1708 21.9814C35.8062 21.7191 35.4411 21.46 35.0743 21.2029C34.015 20.4601 32.9413 19.7422 31.8258 19.0737L31.6265 18.9555ZM36.7089 31.0745C36.9166 31.3639 37.1271 31.6517 37.3399 31.9376C37.2189 32.1558 37.0913 32.3687 36.9577 32.577C36.2903 33.6197 35.4707 34.5403 34.5226 35.3595C34.4276 35.4418 34.331 35.524 34.2329 35.6038C34.1919 35.5903 34.1483 35.6035 34.1205 35.6314C33.4691 35.7916 32.8154 35.8863 32.1588 35.9292C31.9262 35.9441 31.6925 35.9523 31.4595 35.9552C31.0618 35.9582 30.6626 35.9435 30.263 35.9123C29.9478 35.8874 29.633 35.8527 29.3175 35.8098C29.1077 35.7806 28.8977 35.7473 28.6871 35.7111C28.5069 35.6537 27.5351 34.5452 27.2084 34.1574C27.17 34.1119 27.1408 34.0765 27.1224 34.0539C26.8623 33.7251 26.044 32.6238 25.9458 32.2987C26.2184 31.9944 26.4856 31.6866 26.7476 31.3754C27.2755 30.748 27.7806 30.1036 28.2631 29.4431C28.477 29.1497 28.687 28.8536 28.8916 28.5538L29.0453 28.5626C29.6835 28.5987 30.3177 28.623 30.9498 28.6315C31.7692 28.6428 32.5848 28.627 33.3988 28.5764C33.9178 28.5446 34.4358 28.4983 34.9537 28.4351C35.5055 29.3421 36.0941 30.2167 36.7089 31.0745ZM31.4066 18.9611C30.7824 19.3698 30.1657 19.8032 29.5632 20.255C28.9916 20.684 28.4328 21.1289 27.8904 21.5846C27.6151 21.816 27.344 22.05 27.0782 22.2862C26.9873 22.3667 26.897 22.4478 26.8069 22.5285C26.2764 22.4111 25.7483 22.2895 25.222 22.1612C24.3455 21.9483 23.4751 21.7176 22.6094 21.4541C22.4181 21.3955 22.227 21.3358 22.0359 21.2745L21.8117 21.2011C21.6407 20.2728 21.5557 19.3467 21.5634 18.4215C21.5692 17.8046 21.616 17.188 21.7055 16.5708C21.7373 16.5557 21.7568 16.5281 21.7644 16.4971L21.7851 16.4764C22.4031 15.8645 23.056 15.3017 23.7477 14.7942C23.8232 14.7396 23.8987 14.6842 23.9748 14.6306C24.5055 14.2565 25.0603 13.9146 25.6412 13.61C25.752 13.5522 25.8644 13.4952 25.977 13.4397C26.0046 13.4378 26.0279 13.4264 26.0468 13.4071L26.0572 13.4016C26.2187 13.4091 26.3794 13.419 26.5402 13.4318C27.1946 13.4848 27.8411 13.5849 28.4824 13.7288L28.5077 13.7343C29.2968 13.912 30.0804 14.1568 30.8699 14.4649C30.994 15.9564 31.207 17.5012 31.4066 18.9611ZM22.076 21.5161C22.2665 21.577 22.4576 21.6364 22.6492 21.6941C23.5116 21.9537 24.3841 22.1837 25.2608 22.3954C25.745 22.513 26.2309 22.6243 26.7163 22.7327C26.9007 23.9664 27.2831 25.1971 27.7582 26.3924C28.04 27.1016 28.3543 27.7982 28.6787 28.4763C28.5261 28.6994 28.3709 28.9202 28.2132 29.1393C27.7326 29.807 27.2285 30.4576 26.701 31.0913C26.3879 31.4673 26.0666 31.8387 25.7372 32.2038C25.2714 32.1324 24.8077 32.0479 24.347 31.9452C24.1579 31.9025 23.9692 31.8574 23.7806 31.8085C23.6678 31.7794 23.5556 31.7491 23.4435 31.7169C22.6591 31.4967 21.881 31.2082 21.1148 30.8229C20.9588 30.5694 20.8142 30.3135 20.6795 30.0564C20.466 29.6488 20.278 29.2377 20.1098 28.8241C20.0253 28.6158 19.9461 28.4079 19.8708 28.1985C19.5527 27.3103 19.3116 26.409 19.0993 25.504C19.2064 25.2561 19.3192 25.013 19.4392 24.7746C19.5282 24.5967 19.6215 24.4222 19.7178 24.2498C19.8951 23.9308 20.0846 23.6219 20.2851 23.3206C20.7342 22.6464 21.2371 22.0164 21.7915 21.4241C21.8861 21.455 21.981 21.4855 22.076 21.5161ZM34.6383 36.0582C33.8814 36.3377 33.0915 36.5453 32.2826 36.677C31.6699 36.7762 31.0462 36.8314 30.4167 36.8405C30.1071 36.8444 29.7965 36.8379 29.4848 36.8196C28.86 36.7824 28.2329 36.699 27.6075 36.5672C27.4134 36.526 27.2198 36.481 27.026 36.4303C27.1821 36.4101 27.3351 36.3844 27.4826 36.3536C27.5117 36.3473 27.5403 36.3407 27.5689 36.334C27.9593 36.2438 28.3227 36.1084 28.6529 35.9266C28.8871 35.9672 29.1209 36.0033 29.3548 36.0349C29.6702 36.0774 29.9852 36.1106 30.2998 36.1345C30.6873 36.1632 31.0747 36.1772 31.4604 36.1739C31.7055 36.1716 31.9503 36.1623 32.1947 36.1459C32.8719 36.1007 33.5468 36.0002 34.2186 35.8333L34.6249 35.9773L34.7439 36.0189L34.6383 36.0582ZM41.375 30.2807C40.965 31.0225 40.4852 31.7134 39.9471 32.347C39.4103 32.9789 38.8151 33.5543 38.172 34.0666C37.8929 34.2888 37.605 34.4985 37.3087 34.6965C37.177 34.7845 37.0439 34.8709 36.9089 34.9545C36.3235 35.3139 35.7094 35.6274 35.0737 35.8898C35.0195 35.8917 34.7532 35.7981 34.5855 35.7372L34.4663 35.6937L34.5646 35.6105C35.5092 34.8092 36.3326 33.9094 37.0108 32.8953C37.1995 32.6133 37.3775 32.3232 37.5432 32.0227C37.6363 31.9968 37.7283 31.9691 37.8207 31.9411C38.4913 31.7375 39.1361 31.4867 39.7554 31.1848C40.3163 30.9114 40.8567 30.5959 41.3742 30.2353L41.375 30.2807ZM42.5588 26.4618C42.4877 26.809 42.4046 27.1586 42.3082 27.5077C42.2524 27.7114 42.1921 27.9146 42.1271 28.1168C41.9247 28.7501 41.6772 29.374 41.3802 29.9647C40.8557 30.34 40.302 30.6708 39.7169 30.9591C39.6561 30.9895 39.5952 31.0188 39.5338 31.0478C38.9773 31.3114 38.3941 31.5362 37.7838 31.723C37.7054 31.7466 37.627 31.7704 37.5472 31.7927L37.4929 31.778C37.1966 31.3788 36.9082 30.9813 36.6273 30.5819C36.105 29.8399 35.6075 29.0902 35.1258 28.3001C35.3848 27.4871 35.6233 26.6658 35.8417 25.8388C36.0516 25.0444 36.2419 24.2454 36.4124 23.4425C36.4802 23.1229 36.5457 22.803 36.607 22.483C37.152 22.3363 37.6923 22.1607 38.227 21.9631C39.0052 21.6759 39.7717 21.3429 40.5198 20.9825C40.7049 21.1966 40.8832 21.4194 41.0564 21.6524C41.2925 21.9695 41.5182 22.304 41.735 22.655C41.8255 22.8014 41.9144 22.9499 42.002 23.1023C42.2904 23.6017 42.5651 24.1319 42.8293 24.6913C42.7724 25.2588 42.6837 25.856 42.5588 26.4618ZM41.0635 17.4332L41.0737 17.4492C42.3461 19.515 43.0305 21.9422 42.9612 24.4574C42.6383 23.7836 42.291 23.1308 41.9043 22.51C41.62 22.0532 41.3144 21.6139 40.981 21.1971C40.8767 21.0666 40.7701 20.9387 40.6601 20.8122C40.6674 19.3809 40.4603 17.9779 39.9829 16.5987C40.0301 16.6157 40.126 16.6498 40.2347 16.6909C40.4304 16.7641 40.6658 16.8594 40.721 16.907C40.8395 17.0799 40.9546 17.2549 41.0635 17.4332ZM34.5412 12.1439C35.3303 12.4262 36.0768 12.7812 36.7759 13.1987C38.0778 13.9777 39.2124 14.9751 40.1422 16.1297C40.2539 16.2688 40.3639 16.4104 40.4696 16.5538L40.1954 16.4511L39.8663 16.3281C39.1696 15.6933 38.4446 15.1071 37.6758 14.5749C37.4295 14.4047 37.1781 14.2399 36.922 14.0811C36.4096 13.764 35.8772 13.4716 35.3175 13.2052L35.3159 13.2002C35.1077 12.8943 34.8517 12.6066 34.5745 12.3449C34.4591 12.2361 34.3399 12.1318 34.2189 12.0323C34.3272 12.0688 34.4344 12.1056 34.5412 12.1439ZM28.1246 11.5686C28.9183 11.4338 29.7313 11.3747 30.5542 11.3956C31.4239 11.4178 32.3048 11.5306 33.1848 11.7398C33.2979 11.7666 33.4099 11.7955 33.5212 11.8251L33.6121 11.8496C33.8697 12.0265 34.1107 12.2171 34.3302 12.4184C34.4373 12.5158 34.5388 12.6155 34.6369 12.7196C34.7705 12.8611 34.8964 13.0083 35.0138 13.1607C34.9145 13.1742 34.8153 13.1883 34.7171 13.2035C34.4009 13.2521 34.0876 13.3085 33.7777 13.3741C32.8307 13.5727 31.913 13.8533 31.0261 14.245L30.9721 14.2689C30.1379 13.9434 29.2982 13.682 28.4438 13.496C27.8067 13.3567 27.1611 13.2594 26.5032 13.2086C26.3779 13.1992 26.2526 13.1918 26.1263 13.1852C26.1955 12.9899 26.29 12.7998 26.4049 12.6149C26.4357 12.565 26.4683 12.5164 26.5015 12.4669C26.6587 12.2382 26.8457 12.0158 27.0525 11.798C27.4052 11.7069 27.7625 11.6301 28.1246 11.5686ZM21.0492 15.3167C21.2013 15.1584 21.3571 15.0047 21.5165 14.855C22.1947 14.2177 22.9389 13.6575 23.7352 13.1838C24.2781 12.8607 24.8446 12.5781 25.4306 12.3382C25.7179 12.2203 26.0097 12.1133 26.3058 12.0165C26.4231 11.9779 26.5419 11.9416 26.6602 11.9066C26.5497 12.0362 26.4466 12.1673 26.3527 12.2998L26.3223 12.3435L26.3228 12.3438C26.1272 12.6346 25.9715 12.9296 25.8779 13.2452C25.7854 13.2906 25.6941 13.3365 25.6034 13.3839C24.9966 13.7003 24.4353 14.0531 23.9365 14.4019C22.8579 15.1574 22.0709 15.8954 21.7413 16.2147C21.6374 16.3158 21.5791 16.3747 21.5714 16.3786C21.5534 16.388 21.4309 16.4136 21.2394 16.4675C20.8604 16.5742 20.209 16.7919 19.55 17.2106C19.992 16.5282 20.4947 15.8944 21.0492 15.3167ZM17.8607 21.1722C17.9012 21.0015 17.9449 20.8315 17.992 20.6642C18.1362 20.1518 18.3101 19.6556 18.5116 19.1763C18.5961 18.9757 18.6852 18.7779 18.7791 18.5841C18.9294 18.2726 19.0916 17.9694 19.265 17.6744C19.588 17.431 19.9285 17.2234 20.2848 17.0516C20.6027 16.8963 20.9339 16.7708 21.2745 16.6768C21.342 16.6577 21.4102 16.6404 21.4782 16.6242C21.4427 16.8798 21.414 17.1354 21.3928 17.3912C21.285 18.6929 21.3623 19.9955 21.6075 21.2988C20.8596 22.103 20.2082 22.9693 19.6606 23.9069C19.5633 24.0734 19.4694 24.242 19.3789 24.4131C19.2228 24.7078 19.0768 25.0091 18.9403 25.3179C18.8696 25.2634 18.8012 25.2071 18.7348 25.1489C18.2092 24.6888 17.8105 24.114 17.5295 23.4731C17.5684 22.7109 17.678 21.9421 17.8607 21.1722ZM18.7873 25.4662C18.843 25.5115 18.878 25.5388 18.8851 25.5504C19.1004 26.4643 19.343 27.3751 19.6647 28.2732C19.8364 28.7509 20.0299 29.2247 20.2536 29.6945C20.4144 30.0315 20.5906 30.3667 20.7854 30.6985C20.8284 30.7718 20.8725 30.845 20.9169 30.9181C20.895 30.9902 20.875 31.0623 20.8578 31.1355C20.7382 31.6306 20.7182 32.1363 20.7915 32.6427L20.7306 32.5742C20.3807 32.1806 20.0566 31.7676 19.7596 31.3366C18.279 29.1905 17.4735 26.622 17.5131 23.9418C17.9655 24.7885 18.5567 25.2791 18.7873 25.4662Z" fill="white"/>
<path fill-rule="evenodd" clip-rule="evenodd" d="M18.1685 28.6623L18.9544 30.4331C19.339 28.2729 21.9251 28.1052 26.1073 30.659C30.3929 33.2753 31.5624 35.5737 30.1469 36.9058L32.6486 36.7803C32.2396 36.4043 32.5518 35.5283 33.2848 34.4709C35.2555 31.6292 40.2745 27.4786 42.5454 28.2208L42.9481 26.6695C40.5726 26.2018 36.5284 14.8995 38.9948 14.4361L36.682 12.7185C38.2139 14.9798 34.1225 15.856 30.8475 15.7241C30.6238 15.7153 30.3987 15.7026 30.1741 15.6882C26.55 15.4578 22.9437 14.5268 24.0525 12.6231L21.3925 14.5742C24.3515 14.3557 24.1599 18.1464 23.1833 21.8222C22.1129 25.8468 19.281 28.7425 17.5898 26.9325L18.1685 28.6623ZM24.5606 22.4323C25.5226 18.9364 28.1408 17.5657 30.4282 17.2225C31.547 17.0549 32.587 17.1335 33.315 17.3284C35.0805 17.8032 37.6969 19.3441 38.5028 22.2757C38.7933 23.337 38.8839 24.5877 38.5625 26.0237C38.2786 27.2793 37.5785 28.2835 36.8491 29.0495C35.6856 30.2707 34.1589 30.9135 32.733 31.1414C31.6855 31.3078 30.6927 31.2507 29.9372 31.0325C28.5563 30.6324 26.494 29.6172 25.3044 27.4752C24.591 26.19 24.039 24.326 24.5606 22.4323Z" fill="#A4DA01"/>
<path d="M14.3986 22.3355C8.7157 23.0075 4.13796 25.5382 0.549291 30.5164L0.491843 30.5059C4.13936 25.3742 8.70686 22.4132 14.513 21.6268C14.4594 21.8594 14.4208 22.0962 14.3986 22.3355Z" fill="white"/>
<path d="M14.5972 24.3754C9.29041 24.4498 4.94051 26.2482 1.18081 30.6327L1.11917 30.6214C4.87148 26.1753 9.16412 23.9887 14.4484 23.7281C14.4842 23.9443 14.5338 24.1605 14.5972 24.3754Z" fill="white"/>
<path d="M15.9895 26.7075C12.3156 25.7822 6.64656 25.4263 1.74718 30.7369L1.64605 30.7183C5.23592 26.6692 10.5293 25.1776 15.1988 25.719C15.4258 26.0834 15.6919 26.4141 15.9895 26.7075Z" fill="white"/>
<path d="M15.4453 19.6061C8.9859 21.1228 3.82335 25.0433 0.0561945 30.4259L9.25141e-05 30.4156C4.04469 24.5564 9.59131 19.7286 16.7186 18.3744C16.2215 18.7181 15.794 19.1357 15.4453 19.6061Z" fill="white"/>
</svg>
