<svg width="40" height="40" viewBox="0 0 40 40" fill="none" xmlns="http://www.w3.org/2000/svg">
<path d="M30.5469 0L27.3438 0V3.71094V7.42187L20 7.42187L12.6562 7.42187V3.71094V0L9.45312 0L6.25 0L6.25 9.375L6.25 18.75H10.0234H13.8047L13.8984 18.3125C14.1328 17.2656 15.0703 15.8516 16.0547 15.0547C16.6172 14.6016 17.7344 14.0391 18.4375 13.8516C19.1406 13.6641 20.8594 13.6641 21.5625 13.8516C22.2656 14.0391 23.3828 14.6016 23.9453 15.0547C24.9297 15.8516 25.8672 17.2656 26.1016 18.3125L26.1953 18.75H29.9766H33.75V9.375V0L30.5469 0Z" fill="#151515"/>
<path d="M29.9766 21.25H26.1953L26.1016 21.6875C25.8672 22.7344 24.9297 24.1484 23.9453 24.9453C23.3828 25.3984 22.2656 25.9609 21.5625 26.1484C20.8594 26.3359 19.1406 26.3359 18.4375 26.1484C17.7344 25.9609 16.6172 25.3984 16.0547 24.9453C15.0703 24.1484 14.1328 22.7344 13.8984 21.6875L13.8047 21.25H10.0234H6.25L6.25 30.625L6.25 40H9.45313H12.6563L12.6563 36.2891V32.5781H20H27.3438L27.3438 36.2891V40H30.5469H33.75V30.625V21.25H29.9766Z" fill="#151515"/>
<path d="M20 0L15.2344 0V2.42188V4.84375L20 4.84375H24.7656V2.42187V0L20 0Z" fill="#151515"/>
<path d="M20 35.1562H15.2344V37.5781V40H20H24.7656V37.5781V35.1562H20Z" fill="#151515"/>
<path d="M23.2734 18.125C22.6172 16.9375 21.4297 16.25 20 16.25C18.875 16.25 17.9375 16.6484 17.2109 17.4453C16.9062 17.7734 16.4844 18.4844 16.4844 18.6719C16.4844 18.7266 17.6328 18.75 20 18.75C22.7578 18.75 23.5156 18.7266 23.5156 18.6562C23.5156 18.6016 23.4062 18.3594 23.2734 18.125Z" fill="#151515"/>
<path d="M20 21.25C17.6328 21.25 16.4844 21.2734 16.4844 21.3281C16.4844 21.5156 16.9062 22.2266 17.2109 22.5547C17.9375 23.3516 18.875 23.75 20 23.75C21.125 23.75 22.0625 23.3516 22.7891 22.5547C23.0938 22.2266 23.5156 21.5156 23.5156 21.3281C23.5156 21.2734 22.3672 21.25 20 21.25Z" fill="#151515"/>
</svg>
