<svg width="40" height="40" viewBox="0 0 40 40" fill="none" xmlns="http://www.w3.org/2000/svg">
<g clip-path="url(#clip0_2076_14714)">
<path d="M7.96875 0.96875V1.94531L4.67188 1.96875C1.38281 1.99219 1.36719 1.99219 1.02344 2.17188C0.601562 2.39844 0.335938 2.67969 0.148438 3.08594C0.015625 3.375 0 3.65625 0 6.57031C0 9.08594 0.0234375 9.89062 0.117188 10.4375C0.75 14.0703 3.59375 16.9453 7.28906 17.7109L7.96875 17.8516V18.3594C7.97656 19.5156 8.34375 21.3281 8.83594 22.5547C9.54688 24.3359 10.7812 26.0547 12.2188 27.2578C13.7188 28.5078 15.0156 29.1641 17.2422 29.8047C17.3047 29.8281 17.1094 30.5156 16.6484 31.8906L15.9609 33.9453L13.3906 33.9844L10.8203 34.0234L10.4453 34.2422C10.2422 34.3594 9.98438 34.6016 9.86719 34.7734C9.71875 35 7.96875 39.7891 7.96875 39.9766C7.96875 39.9844 13.3828 40 20 40C26.6172 40 32.0312 39.9844 32.0312 39.9766C32.0312 39.7891 30.2812 35 30.1328 34.7734C30.0156 34.6016 29.7578 34.3594 29.5547 34.2422L29.1797 34.0234L26.6094 33.9844L24.0391 33.9453L23.3516 31.8906C22.8906 30.5156 22.6953 29.8281 22.7578 29.8047C24.9844 29.1641 26.2812 28.5078 27.7812 27.2578C29.2188 26.0547 30.4531 24.3359 31.1641 22.5547C31.6562 21.3281 32.0234 19.5156 32.0312 18.3594V17.8516L32.7109 17.7109C34.5078 17.3359 36.0625 16.5078 37.3438 15.2344C38.7109 13.875 39.5625 12.2734 39.8828 10.4375C39.9766 9.89062 40 9.08594 40 6.57031C40 3.65625 39.9844 3.375 39.8516 3.08594C39.6641 2.67969 39.3984 2.39844 38.9766 2.17188C38.6328 1.99219 38.6172 1.99219 35.3359 1.96875L32.0312 1.94531V0.96875V0H20H7.96875V0.96875ZM7.96875 9.88281V13.7422L7.67188 13.6406C6.07812 13.0781 4.80469 11.7969 4.28125 10.2344C4.125 9.78125 4.10156 9.52344 4.07812 7.86719L4.05469 6.01562H6.00781H7.96875V9.88281ZM35.9375 7.71094C35.9375 9.10938 35.9062 9.50781 35.7891 9.96094C35.4922 11.0938 34.8594 12.0938 34 12.7812C33.5547 13.1406 32.6562 13.6172 32.25 13.7031L32.0312 13.75V9.88281V6.01562H33.9844H35.9375V7.71094ZM20.8984 10.1172L21.7578 12.0312H23.8047C24.9375 12.0312 25.8594 12.0469 25.8594 12.0703C25.8594 12.0938 25.2266 12.9609 24.4531 13.9922C23.6719 15.0234 23.0234 15.9141 23 15.9688C22.9766 16.0234 23.1719 16.9062 23.4297 17.9375C23.6875 18.9609 23.8828 19.8125 23.8672 19.8281C23.8516 19.8438 22.9766 19.3828 21.9219 18.8047L20 17.7422L18.0781 18.8047C17.0234 19.3828 16.1484 19.8438 16.1328 19.8281C16.1172 19.8125 16.3125 18.9609 16.5703 17.9375C16.8281 16.9062 17.0234 16.0234 17 15.9688C16.9766 15.9141 16.3281 15.0234 15.5469 13.9922C14.7734 12.9609 14.1406 12.0938 14.1406 12.0703C14.1406 12.0469 15.0625 12.0312 16.1953 12.0312H18.2422L19.1016 10.1172C19.5703 9.0625 19.9766 8.20312 20 8.20312C20.0234 8.20312 20.4297 9.0625 20.8984 10.1172Z" fill="#151515"/>
</g>
<defs>
<clipPath id="clip0_2076_14714">
<rect width="40" height="40" fill="white"/>
</clipPath>
</defs>
</svg>
