<svg width="40" height="40" viewBox="0 0 40 40" fill="none" xmlns="http://www.w3.org/2000/svg">
<path d="M18.2031 3.32817C18.0937 3.34379 17.7422 3.39848 17.4219 3.44536C16.2578 3.61723 14.7109 4.25004 13.7109 4.96098C12.6719 5.69536 11.7344 6.90629 11.4531 7.88286C11.3047 8.39067 11.2812 10.9688 11.4062 12.6641C11.5234 14.2266 11.5156 14.211 11.9062 13.3907C13.0469 11.0235 15.3203 9.45317 17.625 9.45317C18.4687 9.45317 19.2031 9.61723 20.8984 10.1954C21.5859 10.4219 22.4687 10.6719 22.8515 10.7422C23.8359 10.9297 25.1094 10.8672 26.039 10.5938C27.8594 10.0547 28.7578 9.22661 29.1719 7.69536C29.3203 7.16411 29.4219 5.17192 29.3125 5.01567C29.2578 4.93754 29.125 4.97661 28.7031 5.18754C27.375 5.86723 26.5859 5.76567 24.0859 4.58598C22.75 3.95317 21.9609 3.67973 20.9297 3.47661C20.2812 3.35161 18.5859 3.25786 18.2031 3.32817Z" fill="#151515"/>
<path d="M16.2812 10.9219C14.9609 11.3906 13.6484 12.5547 13.0312 13.8047C12.7266 14.4219 12.6953 14.5234 12.6719 15.2344C12.6172 16.5 12.9297 17.6719 13.625 18.8672C14.0156 19.5391 15.3203 20.8672 15.9531 21.2344C17.2422 21.9922 18.5234 22.3438 20 22.3438C22.0078 22.3438 23.7109 21.6953 25.0937 20.3984C26.0781 19.4766 26.75 18.4062 27.125 17.1719C27.2812 16.6484 27.2969 16.4062 27.3281 14.0312C27.3516 11.5703 27.3516 11.4688 27.2109 11.5234C26.375 11.8672 25.1172 12.1094 24.1406 12.1094C23.0391 12.1094 22.2578 11.9453 20.3359 11.3203C18.7187 10.7891 18.5859 10.7578 17.7734 10.7266C16.9844 10.6953 16.8672 10.7109 16.2812 10.9219Z" fill="#151515"/>
<path d="M12.7734 21.6953C12.1953 21.7656 11.4844 21.8984 11.0781 22.0078L10.625 22.1328V29.4297V36.7188H20H29.375V29.4219V22.125L29.2031 22.0781C28.4688 21.8672 27.4609 21.7109 26.6016 21.6719L25.5859 21.625L25.2344 21.8906C24.3516 22.5625 23.3125 23.0547 22.0859 23.3828C21.5391 23.5234 21.2344 23.5547 20 23.5547C18.6562 23.5547 18.5 23.5391 17.7812 23.3359C16.625 23.0156 15.5938 22.5234 14.7734 21.8984C14.4375 21.6484 14.4141 21.6406 13.7188 21.6484C13.3281 21.6562 12.9062 21.6797 12.7734 21.6953ZM15.0938 28.75C15.4688 28.8594 15.7812 29.25 15.7812 29.625C15.7812 29.9922 14.6484 32.9688 14.4375 33.1406C14.3516 33.2188 14.1797 33.2812 14.0469 33.2812C13.7812 33.2812 13.4375 32.9766 13.4375 32.7344C13.4375 32.6484 13.6484 32.0156 13.9062 31.3438C14.1641 30.6641 14.375 30.0859 14.375 30.0625C14.375 30.0391 14.1562 30 13.8906 29.9766C13.4922 29.9375 13.3672 29.8984 13.2266 29.7266C13.125 29.6172 13.0469 29.4453 13.0469 29.3516C13.0469 29.125 13.25 28.8359 13.4688 28.75C13.7031 28.6562 14.75 28.6562 15.0938 28.75ZM26.375 28.8906C26.7734 29.0938 27.0781 29.4453 27.1953 29.8281C27.2422 30 27.2656 30.5469 27.25 31.1797C27.2266 32.2031 27.2188 32.25 27 32.5625C26.8672 32.7656 26.6328 32.9609 26.3828 33.0859C26.0234 33.2656 25.8984 33.2812 25 33.2812C24.1016 33.2812 23.9766 33.2656 23.6172 33.0859C23.3672 32.9609 23.1328 32.7656 23 32.5625C22.7812 32.25 22.7734 32.2031 22.75 31.1797C22.7188 30.0156 22.7812 29.6719 23.0938 29.2969C23.5156 28.7969 23.9609 28.6719 25.1562 28.7031C25.8906 28.7188 26.1094 28.75 26.375 28.8906Z" fill="#151515"/>
<path d="M8.64058 23.0781C5.94527 24.75 4.07808 27.5391 3.67965 30.5078C3.63277 30.8516 3.5234 32.1797 3.42965 33.4609C3.28121 35.7109 3.28121 35.7969 3.41402 36.0703C3.49215 36.2266 3.65621 36.4297 3.7734 36.5156C3.98433 36.6719 4.10933 36.6797 6.68746 36.7031L9.37496 36.7266V29.7266C9.37496 24.1797 9.35152 22.7344 9.28121 22.7422C9.22652 22.7422 8.93746 22.8906 8.64058 23.0781Z" fill="#151515"/>
<path d="M30.625 29.7266V36.7266L33.3125 36.7031C35.8906 36.6797 36.0156 36.6719 36.2266 36.5156C36.3438 36.4297 36.5078 36.2266 36.5859 36.0703C36.7266 35.7969 36.7266 35.7109 36.5312 33.0703C36.2812 29.7031 36.125 28.9609 35.2969 27.3047C34.5547 25.8359 33.125 24.25 31.6875 23.2969C31.2188 22.9844 30.7891 22.7344 30.7266 22.7344C30.6406 22.7344 30.625 23.9219 30.625 29.7266Z" fill="#151515"/>
</svg>
