<svg width="60" height="60" viewBox="0 0 60 60" fill="none" xmlns="http://www.w3.org/2000/svg">
<path d="M60 7.5C60 11.6421 56.6421 15 52.5 15C48.3579 15 45 11.6421 45 7.5C45 3.35786 48.3579 0 52.5 0C56.6421 0 60 3.35786 60 7.5Z" fill="#A4DA01"/>
<path d="M60 52.5C60 56.6421 56.6421 60 52.5 60C48.3579 60 45 56.6421 45 52.5C45 48.3579 48.3579 45 52.5 45C56.6421 45 60 48.3579 60 52.5Z" fill="#A4DA01"/>
<path d="M52.5 37.5C56.6421 37.5 60 34.1421 60 30C60 25.8579 56.6421 22.5 52.5 22.5C48.3579 22.5 45 25.8579 45 30C45 34.1421 48.3579 37.5 52.5 37.5Z" fill="#A4DA01"/>
<path d="M37.5 52.5C37.5 56.6421 34.1421 60 30 60C25.8579 60 22.5 56.6421 22.5 52.5C22.5 48.3579 25.8579 45 30 45C34.1421 45 37.5 48.3579 37.5 52.5Z" fill="#A4DA01"/>
<path d="M30 15C34.1421 15 37.5 11.6421 37.5 7.5C37.5 3.35786 34.1421 0 30 0C25.8579 0 22.5 3.35786 22.5 7.5C22.5 11.6421 25.8579 15 30 15Z" fill="#A4DA01"/>
<path d="M15 52.5C15 56.6421 11.6421 60 7.5 60C3.35786 60 0 56.6421 0 52.5C0 48.3579 3.35786 45 7.5 45C11.6421 45 15 48.3579 15 52.5Z" fill="#A4DA01"/>
<path d="M30 37.5C34.1421 37.5 37.5 34.1421 37.5 30C37.5 25.8579 34.1421 22.5 30 22.5C25.8579 22.5 22.5 25.8579 22.5 30C22.5 34.1421 25.8579 37.5 30 37.5Z" fill="#A4DA01"/>
<path d="M15 7.5C15 11.6421 11.6421 15 7.5 15C3.35786 15 0 11.6421 0 7.5C0 3.35786 3.35786 0 7.5 0C11.6421 0 15 3.35786 15 7.5Z" fill="#A4DA01"/>
<path d="M7.5 37.5C11.6421 37.5 15 34.1421 15 30C15 25.8579 11.6421 22.5 7.5 22.5C3.35786 22.5 0 25.8579 0 30C0 34.1421 3.35786 37.5 7.5 37.5Z" fill="#A4DA01"/>
</svg>
