<svg width="80" height="80" viewBox="0 0 80 80" fill="none" xmlns="http://www.w3.org/2000/svg">
<path d="M62.5491 19.2195C62.5491 19.2195 55.2482 13.5317 40.6318 13.5317C26.015 13.5317 18.7151 19.2195 18.7151 19.2195V38.0676C18.7151 61.2992 33.889 60.1081 40.6444 66.282C47.3998 60.1084 62.5352 61.2929 62.5352 38.061L62.5491 19.2195Z" fill="white" stroke="#192335" stroke-width="4" stroke-miterlimit="10"/>
<path d="M40.6459 71.6731L39.8334 70.9304C37.9514 69.2105 35.3439 67.9823 32.5834 66.6825C24.5956 62.9207 14.6545 58.2388 14.6545 38.1501V16.2576L15.1189 15.8959C15.4691 15.623 23.8894 9.2124 40.6324 9.2124C57.375 9.2124 65.7956 15.623 66.1459 15.8959L66.6105 16.2579L66.5946 38.1438C66.5946 58.2366 56.67 62.9207 48.6951 66.6843C45.9407 67.9844 43.3395 69.212 41.4588 70.9307L40.6459 71.6731ZM17.0635 17.4722V38.1501C17.0635 56.7103 25.8539 60.8502 33.6095 64.503C36.1826 65.7149 38.6308 66.8677 40.6456 68.4618C42.658 66.8692 45.0995 65.7167 47.6667 64.5054C55.4093 60.8514 64.185 56.7094 64.185 38.1429L64.2 17.4746C62.2672 16.2024 54.3495 11.6217 40.6321 11.6217C26.8526 11.6217 18.984 16.1991 17.0635 17.4722Z" fill="#192335"/>
<path d="M41.9575 65.2354C42.1984 65.0661 42.4463 64.902 42.7002 64.7423L42.4047 48.4617L47.8654 62.0855C48.1398 61.9554 48.4154 61.8244 48.6921 61.6909L44.3283 47.6976L53.3951 59.0765C53.6463 58.9076 53.8957 58.7341 54.1423 58.5537L45.9533 46.3686L58.1294 54.6479C58.3056 54.4124 58.4764 54.1669 58.6447 53.9167L47.1354 44.5923L61.1077 48.7192C61.1974 48.4364 61.282 48.1457 61.3643 47.85L47.7694 42.5266L62.3659 42.1149C62.3918 41.8204 62.4147 41.5207 62.4349 41.2165L47.7992 40.3552L62.5379 35.0914L62.5385 34.2485L47.2219 38.2711L62.5439 26.5859L62.5442 25.9692L46.0889 36.4593L59.6286 17.4995C59.5639 17.4676 59.5016 17.4359 59.4347 17.4037L44.5011 35.0812L51.486 14.6878C51.3641 14.6604 51.2433 14.6327 51.1192 14.6059L42.5993 34.259L43.5401 13.6112C43.3922 13.6033 43.2441 13.5955 43.0944 13.5889L40.5528 34.0654L35.6261 13.765C35.484 13.7786 35.3445 13.7934 35.2045 13.8081L38.5435 34.518L27.3874 15.3001C27.2883 15.3287 27.1914 15.3576 27.0938 15.3865L36.7491 35.5763L18.9596 19.043C18.9265 19.0662 18.8967 19.0869 18.8705 19.1056L35.3298 37.1466L18.7148 29.2606V29.9313L34.4115 39.0894L18.7148 37.04V37.8525L34.0757 41.2319L19.1054 44.0502C19.1454 44.3345 19.1885 44.6146 19.2343 44.8895L34.3525 43.3837L20.8814 50.7141C20.9934 50.9776 21.1093 51.2345 21.2286 51.4854L35.2171 45.3533L24.5827 56.354C24.7836 56.5615 24.9877 56.7618 25.1946 56.9566L36.5928 46.9664L29.7784 60.2466C30.0389 60.3932 30.3006 60.5351 30.5623 60.6742L38.3571 48.0792L35.5132 63.0826C35.78 63.2121 36.0438 63.3422 36.3043 63.4735L40.3541 48.5924L41.9575 65.2354Z" fill="#A0A0A0"/>
<path d="M43.7883 36.5707C43.472 36.5682 43.16 36.5673 42.8462 36.6243C42.1409 36.752 41.4624 37.032 40.8218 37.3461C40.7016 37.4049 39.8623 37.7322 39.8412 37.8816C39.8355 37.8876 39.8288 37.8904 39.8231 37.8955C39.8785 38.8848 39.98 40.1163 40.2044 41.0354C40.2953 41.0676 40.3872 41.1234 40.4577 41.1541C41.0275 41.4019 41.5931 41.6612 42.1511 41.9341C42.9715 42.3404 43.9476 42.7563 44.6201 43.4119C45.4868 43.1954 46.3102 42.8246 46.9884 42.2395C47.0264 41.9214 47.0541 41.6022 47.071 41.2827C47.1167 40.4322 47.2405 39.058 46.6439 38.3578C46.6081 38.315 46.5725 38.2722 46.5367 38.2295C46.2036 37.9825 45.7799 37.6678 45.7058 37.6175C45.1101 37.2124 44.4701 36.8281 43.7883 36.5707Z" fill="white"/>
<path d="M47.4317 42.759C47.426 42.7563 47.2468 42.6915 47.1902 42.6626C46.4557 43.2716 45.6398 43.6185 44.8688 43.8281C44.9288 44.1949 44.8225 44.7334 44.7914 44.9987C44.721 45.6008 44.5897 46.1953 44.4234 46.778C44.2933 47.2352 44.1406 47.6857 43.9683 48.129C43.9144 48.2682 43.8087 48.441 43.7648 48.5974C44.2478 49.2449 44.7487 49.883 45.3188 50.4558C45.5618 50.7001 45.8205 50.935 46.1021 51.1365C46.1632 51.1298 46.2283 51.1271 46.2873 51.1166C47.4384 50.9106 48.5867 50.4167 49.4875 49.6683L49.6357 49.5445C50.0934 48.1881 50.3244 46.7268 50.1603 45.3005L50.0709 45.1596C49.1228 43.6718 47.9482 42.999 47.4317 42.759Z" fill="white"/>
<path d="M32.288 41.8796C32.3798 42.3919 32.5193 42.8948 32.6951 43.3845C32.7445 43.52 32.8328 43.6721 32.89 43.8197L36.1838 44.4841C36.6407 43.835 37.1771 43.2433 37.7607 42.7072C38.3992 42.1205 39.0988 41.6591 39.8005 41.1682C39.6843 40.6135 39.4951 39.4829 39.4497 37.8554C39.2229 37.7735 38.7323 37.6021 38.133 37.4308C37.3081 37.1931 36.4248 36.9637 35.5592 36.9847C35.1484 37.2621 34.7653 37.5801 34.4 37.9138C33.611 38.6348 32.8954 39.4305 32.1844 40.2277C32.1666 40.7803 32.1874 41.3269 32.288 41.8796Z" fill="white"/>
<path d="M50.547 45.167C50.7491 46.7334 50.4681 48.3139 49.9453 49.8035C50.0299 49.9562 50.104 50.1134 50.1479 50.2865C50.1802 50.4121 50.1964 50.5386 50.204 50.6654C50.3982 50.292 50.5759 49.9083 50.7277 49.5113C51.4631 47.6273 51.6261 45.6456 51.3153 43.7549C51.2463 43.9043 51.1782 44.0425 51.1228 44.1587C50.9548 44.512 50.7322 44.8261 50.547 45.167Z" fill="white"/>
<path d="M31.192 52.3392H32.0413C32.0603 52.2576 32.0811 52.1769 32.107 52.098C31.2423 51.0521 30.4033 49.829 29.9527 47.7709C29.4769 47.3312 29.1562 46.9375 28.9026 46.5376C28.9327 46.8565 28.9713 47.174 29.0279 47.4878C29.3507 49.2719 30.1115 50.9292 31.192 52.3392Z" fill="white"/>
<path d="M30.5903 40.384C30.9867 40.1852 31.4044 40.0482 31.8058 39.8672L31.9826 39.8091C32.9912 38.6728 34.0287 37.5019 35.2873 36.6484C35.3936 36.1063 35.5442 35.6006 35.7384 35.0977C33.1743 36.1993 31.055 38.2256 29.8787 40.7837C30.1106 40.6415 30.347 40.506 30.5903 40.384Z" fill="white"/>
<path d="M44.1945 34.9253C43.6067 34.7016 43.0007 34.5338 42.386 34.4106C42.6041 34.6278 42.8131 34.8537 43.0025 35.0961C43.2281 35.384 43.4239 35.6903 43.6016 36.0086C44.8294 36.383 45.941 37.1323 46.9442 37.9264C47.6348 38.0415 48.2997 38.2186 48.9611 38.4408C47.7404 36.9004 46.1199 35.659 44.1945 34.9253Z" fill="white"/>
<path d="M31.2775 50.0432C31.5552 50.5639 31.8928 51.0482 32.2599 51.5096C32.2889 51.546 32.3605 51.6216 32.4352 51.7062C32.6084 51.7713 32.7822 51.8348 32.9613 51.8833C33.6423 52.0682 34.3575 52.1303 35.0617 52.1399C35.5014 52.1468 35.9814 52.1676 36.4181 52.0902C37.2129 51.2834 37.8137 50.2146 38.2106 49.1551C38.0086 48.9138 37.8191 48.5217 37.7357 48.3811C37.4297 47.8661 37.159 47.3306 36.9039 46.7885C36.7006 46.3576 36.5076 45.9209 36.3233 45.4812C36.2627 45.3369 36.2148 45.1472 36.1416 44.9912C35.5014 44.8596 33.8121 44.5078 32.8692 44.3145C32.8541 44.3289 32.8388 44.344 32.8231 44.3602C32.4593 44.7406 32.1099 45.1348 31.7766 45.5414C31.273 46.1497 30.6496 46.8777 30.4508 47.6604C30.4469 47.6742 30.4433 47.6881 30.4397 47.702C30.4662 47.8206 30.4897 47.9402 30.5201 48.0582C30.696 48.7464 30.9426 49.4162 31.2775 50.0432Z" fill="white"/>
<path d="M45.4844 52.3391C45.5886 52.1174 45.6859 51.8915 45.7711 51.659C45.7802 51.634 45.8003 51.5413 45.8238 51.4633C44.9327 50.7998 44.1174 49.7731 43.4371 48.8657C42.9962 48.9835 42.5493 49.0799 42.1002 49.1612C40.9615 49.3663 39.7834 49.4843 38.6278 49.3639C38.1008 50.7167 37.3629 51.7443 36.8259 52.3394H45.4844V52.3391Z" fill="white"/>
<path d="M31.192 52.3393C30.1114 50.9293 29.3507 49.272 29.0279 47.4879C28.9712 47.1741 28.9324 46.8566 28.9026 46.5377C29.1562 46.9376 29.4769 47.3313 29.9527 47.771C30.4033 49.8291 31.2423 51.0522 32.107 52.0981C32.0811 52.177 32.0603 52.258 32.0413 52.3393H36.8259C37.3626 51.7445 38.1004 50.717 38.6278 49.3638C39.7834 49.4843 40.9618 49.3662 42.1002 49.1611C42.5492 49.0798 42.9962 48.9834 43.4371 48.8657C44.1171 49.7731 44.9327 50.8001 45.8238 51.4632C45.8003 51.5412 45.7802 51.634 45.7711 51.659C45.6859 51.8915 45.5883 52.1174 45.4844 52.339H50.5916C51.8206 50.4245 52.5404 48.1516 52.5519 45.7101C52.5519 45.6974 52.5528 45.6845 52.5528 45.6718C52.5528 45.6646 52.5534 45.6577 52.5534 45.6505C52.5534 45.6179 52.5513 45.5857 52.551 45.5532C52.5422 40.5511 49.4815 35.7638 44.5872 33.8978C42.4854 33.0967 40.1806 32.8781 37.9661 33.2786C33.7209 34.0466 30.1057 37.0401 28.5677 41.067C28.0373 42.4542 27.7675 43.9293 27.7566 45.4086C27.7551 45.4893 27.7506 45.5694 27.7506 45.6505C27.7506 48.1146 28.4722 50.4086 29.7112 52.3387H31.192V52.3393ZM36.4181 52.0903C35.9815 52.168 35.5014 52.1469 35.0617 52.14C34.3576 52.13 33.6423 52.0683 32.9614 51.8834C32.7819 51.8349 32.6084 51.7713 32.4352 51.7063C32.3608 51.6217 32.2889 51.5458 32.26 51.5096C31.8928 51.0482 31.5552 50.564 31.2776 50.0433C30.9427 49.4162 30.696 48.7467 30.5198 48.0589C30.4894 47.9408 30.4659 47.8213 30.4394 47.7026C30.4433 47.6887 30.4469 47.6749 30.4506 47.661C30.6493 46.8783 31.2724 46.1504 31.7763 45.542C32.1097 45.1355 32.459 44.7412 32.8228 44.3609C32.8385 44.3446 32.8538 44.3295 32.8689 44.3151C33.8119 44.5084 35.5011 44.8602 36.1414 44.9918C36.2146 45.1478 36.2624 45.3375 36.323 45.4818C36.5073 45.9215 36.7003 46.3582 36.9036 46.7892C37.1587 47.331 37.4294 47.8667 37.7354 48.3817C37.8189 48.5224 38.0083 48.9142 38.2104 49.1557C37.8137 50.2149 37.2129 51.2837 36.4181 52.0903ZM51.1228 44.1588C51.1782 44.0422 51.2463 43.904 51.3153 43.7549C51.6261 45.6453 51.4631 47.6273 50.7277 49.5114C50.5762 49.9083 50.3982 50.292 50.204 50.6655C50.1961 50.5387 50.1799 50.4122 50.148 50.2866C50.1037 50.1134 50.0296 49.9562 49.9453 49.8035C50.4684 48.3143 50.7491 46.7337 50.547 45.1671C50.7322 44.8265 50.9548 44.5124 51.1228 44.1588ZM50.0705 45.1602L50.16 45.3011C50.3244 46.7274 50.0931 48.1887 49.6354 49.5451L49.4872 49.6686C48.5861 50.4173 47.4381 50.9112 46.287 51.1169C46.228 51.1274 46.1629 51.1302 46.1018 51.1368C45.8202 50.9356 45.5618 50.7007 45.3185 50.4561C44.7484 49.8833 44.2475 49.2452 43.7644 48.5977C43.8084 48.4414 43.9141 48.2685 43.968 48.1293C44.1403 47.686 44.293 47.2355 44.4231 46.7783C44.5893 46.1956 44.7209 45.6011 44.7911 44.999C44.8224 44.7334 44.9285 44.1952 44.8685 43.8284C45.6395 43.6188 46.4551 43.2719 47.1899 42.6629C47.2468 42.6918 47.4257 42.7563 47.4314 42.7593C47.9482 42.999 49.1228 43.6718 50.0705 45.1602ZM44.1945 34.9257C46.1199 35.6593 47.7404 36.9004 48.9611 38.4412C48.2997 38.2189 47.6347 38.0415 46.9442 37.9268C45.941 37.1326 44.8294 36.3833 43.6015 36.009C43.4235 35.6906 43.2281 35.3843 43.0025 35.0964C42.8131 34.854 42.6041 34.6281 42.386 34.411C43.0007 34.5342 43.607 34.7019 44.1945 34.9257ZM39.8412 37.8819C39.8623 37.7322 40.7016 37.4052 40.8218 37.3464C41.4623 37.032 42.1409 36.7522 42.8462 36.6245C43.16 36.5676 43.472 36.5688 43.7883 36.5709C44.4701 36.8284 45.1104 37.2127 45.7058 37.6184C45.7799 37.6687 46.2039 37.9834 46.5367 38.2304C46.5725 38.2731 46.6081 38.3159 46.6439 38.3587C47.2405 39.0592 47.1167 40.4334 47.0709 41.2836C47.0538 41.6031 47.0264 41.9223 46.9884 42.2404C46.3102 42.8255 45.4868 43.196 44.6201 43.4128C43.9476 42.7572 42.9715 42.3413 42.1511 41.935C41.5931 41.6621 41.0275 41.4028 40.4577 41.155C40.3872 41.1243 40.2953 41.0685 40.2044 41.0363C39.98 40.1175 39.8785 38.8857 39.8231 37.8964C39.8288 37.8906 39.8355 37.8879 39.8412 37.8819ZM38.1333 37.4308C38.7323 37.6021 39.2229 37.7735 39.45 37.8554C39.4954 39.4832 39.6846 40.6135 39.8008 41.1682C39.0988 41.6591 38.3992 42.1205 37.761 42.7072C37.1774 43.2432 36.641 43.835 36.1841 44.484L32.8903 43.8197C32.8334 43.6721 32.7448 43.52 32.6954 43.3845C32.5196 42.8948 32.3801 42.3919 32.2883 41.8796C32.1874 41.3266 32.1666 40.7803 32.185 40.2277C32.896 39.4305 33.6116 38.6348 34.4006 37.9138C34.7659 37.5798 35.149 37.2618 35.5598 36.9847C36.4248 36.9637 37.3084 37.1934 38.1333 37.4308ZM35.7384 35.0976C35.5439 35.6006 35.3936 36.1062 35.2873 36.6483C34.029 37.5015 32.9912 38.6725 31.9826 39.8091L31.8058 39.8672C31.4041 40.0485 30.9863 40.1855 30.5903 40.384C30.347 40.506 30.1108 40.6412 29.8789 40.7836C31.055 38.2258 33.1743 36.1993 35.7384 35.0976Z" fill="#192335"/>
<path d="M40.6402 56.9214L41.278 58.8558L43.3148 58.8645L41.672 60.0689L42.293 62.0087L40.6402 60.8185L38.9871 62.0087L39.6081 60.0689L37.9655 58.8645L40.0026 58.8558L40.6402 56.9214Z" fill="#192335"/>
<path d="M40.6447 67.0976L40.2381 66.7263C38.5215 65.1572 36.1835 64.0562 33.7086 62.8907C26.7601 59.6182 18.1127 55.5459 18.1127 38.0674V18.9251L18.3446 18.7441C18.6494 18.5065 25.9765 12.9292 40.6317 12.9292C55.2864 12.9292 62.6141 18.5065 62.9192 18.7441L63.1514 18.9251L63.1372 38.0611C63.1372 55.5437 54.5043 59.6182 47.5676 62.8922C45.0986 64.0577 42.7664 65.1584 41.0507 66.7263L40.6447 67.0976ZM19.3174 19.528V38.0674C19.3174 54.7815 27.2356 58.5105 34.2217 61.8008C36.5982 62.9199 38.8522 63.9815 40.6444 65.4819C42.4342 63.983 44.683 62.9217 47.0535 61.8029C54.0279 58.5111 61.9325 54.7803 61.9325 38.0608L61.9461 19.5277C61.3516 19.1163 59.6235 18.0096 56.7956 16.9145C53.5201 15.646 48.057 14.1342 40.6317 14.1342C27.7988 14.1342 20.6591 18.6016 19.3174 19.528Z" fill="#192335"/>
<path d="M69 55.4202H11.3037L14.7177 49.5526L11.3037 43.7974H69L66.1444 49.5526L69 55.4202Z" fill="#F50303"/>
<path d="M21.7423 48.041C21.7423 48.1822 21.7794 48.2974 21.8537 48.3865C21.928 48.4757 22.0265 48.55 22.1491 48.6095C22.2754 48.6652 22.4129 48.7153 22.5615 48.7599C22.7101 48.8045 22.8587 48.8547 23.0073 48.9104C23.1559 48.9624 23.2915 49.0293 23.4141 49.111C23.5368 49.189 23.6352 49.2931 23.7095 49.4231C23.7875 49.5494 23.8265 49.7092 23.8265 49.9024C23.8265 50.1624 23.7597 50.3761 23.6259 50.5433C23.4959 50.7105 23.3213 50.8349 23.1021 50.9166C22.8829 50.9947 22.6432 51.0337 22.3832 51.0337C22.1974 51.0337 22.0079 51.0151 21.8147 50.978C21.6215 50.9371 21.432 50.8776 21.2463 50.7996L21.2797 49.8857H21.5528L21.6475 50.599L21.5918 50.5043C21.7218 50.5637 21.8574 50.6083 21.9986 50.638C22.1398 50.6677 22.2773 50.6826 22.411 50.6826C22.5856 50.6826 22.7454 50.6566 22.8903 50.6046C23.0352 50.5488 23.1522 50.469 23.2414 50.3649C23.3306 50.2572 23.3751 50.1234 23.3751 49.9637C23.3751 49.8151 23.3361 49.6962 23.2581 49.607C23.1838 49.5141 23.0853 49.438 22.9627 49.3785C22.8401 49.3191 22.7045 49.2671 22.5559 49.2225C22.4073 49.1779 22.2587 49.1315 22.1101 49.0832C21.9615 49.0311 21.8259 48.9661 21.7033 48.8881C21.5807 48.8101 21.4803 48.7098 21.4023 48.5872C21.328 48.4608 21.2909 48.3011 21.2909 48.1079C21.2909 47.8701 21.3484 47.6732 21.4636 47.5172C21.5825 47.3574 21.7423 47.2385 21.9429 47.1605C22.1472 47.0825 22.3739 47.0435 22.6228 47.0435C22.7974 47.0435 22.9795 47.062 23.1689 47.0992C23.3584 47.1363 23.5442 47.1939 23.7262 47.2719L23.6817 48.1469H23.403L23.3194 47.4781L23.3863 47.545C23.2748 47.4967 23.1541 47.4596 23.024 47.4336C22.894 47.4076 22.764 47.3946 22.6339 47.3946C22.4816 47.3946 22.3367 47.4168 22.1992 47.4614C22.0618 47.5023 21.9503 47.571 21.8649 47.6676C21.7831 47.7605 21.7423 47.885 21.7423 48.041Z" fill="white"/>
<path d="M24.8652 50.9835V50.7439L25.5117 50.6269L25.4225 50.7495V47.35L25.5229 47.4336H24.4473L24.5587 47.3388L24.4473 48.0466H24.1686V47.0936H27.1279V48.0466H26.8492L26.7378 47.35L26.8492 47.4336H25.7736L25.8739 47.35V50.7495L25.7904 50.6269L26.4312 50.7439V50.9835H24.8652Z" fill="white"/>
<path d="M29.9617 50.0696H30.2403V50.9835H27.426V50.7439L27.9777 50.6269L27.9053 50.7272V47.3611L27.9777 47.4614L27.426 47.3611V47.1215L28.3567 47.0936H30.1735V47.9741H29.8948L29.7945 47.3611L29.8892 47.4336H28.2787L28.3623 47.35V48.9104L28.2787 48.8268H29.7666V49.1612H28.2787L28.3623 49.0664V50.7272L28.2787 50.6436H29.9617L29.8614 50.7272L29.9617 50.0696Z" fill="white"/>
<path d="M34.0712 50.7383L33.943 50.6269L34.4669 50.7439V50.9835H33.0179V50.7439L33.5975 50.6324L33.5529 50.7105L33.2575 49.8188L33.3411 49.8857H31.6358L31.7138 49.8188L31.3962 50.6993L31.3683 50.638L31.9367 50.7439V50.9835H30.5658V50.7439L31.0785 50.6269L30.9615 50.7272L32.3213 47.0992L32.7838 47.0825L34.0712 50.7383ZM31.7751 49.6237L31.7305 49.5513H33.252L33.2018 49.6293L32.4717 47.3611L32.5776 47.3667L31.7751 49.6237Z" fill="white"/>
<path d="M36.9786 49.9915H37.2573V50.9835H34.599V50.7439L35.1451 50.6324L35.0783 50.7272V47.3611L35.1451 47.4614L34.599 47.3611V47.1215L36.0814 47.0936V47.3332L35.4739 47.4614L35.5352 47.3611V50.7272L35.4517 50.6436H36.9508L36.8727 50.7272L36.9786 49.9915Z" fill="white"/>
<path d="M38.795 50.9835V50.7439L39.3467 50.6269L39.2743 50.7272V47.3555L39.3635 47.4614L38.795 47.3611V47.1215L40.2161 47.0936V47.3332L39.6533 47.4614L39.7313 47.3555V48.916L39.6477 48.8324H41.8323L41.7487 48.916V47.3555L41.8323 47.4614L41.2694 47.3611V47.1215L42.6905 47.0936V47.3332L42.1332 47.4614L42.2057 47.3555V50.7272L42.1332 50.6269L42.6905 50.7439V50.9835H41.2694V50.7439L41.8211 50.6269L41.7487 50.7272V49.0943L41.8323 49.1723H39.6477L39.7313 49.0943V50.7272L39.6588 50.6269L40.2161 50.7439V50.9835H38.795Z" fill="white"/>
<path d="M46.3164 50.7383L46.1882 50.6269L46.7121 50.7439V50.9835H45.2631V50.7439L45.8427 50.6324L45.7981 50.7105L45.5027 49.8188L45.5863 49.8857H43.881L43.959 49.8188L43.6414 50.6993L43.6135 50.638L44.182 50.7439V50.9835H42.811V50.7439L43.3237 50.6269L43.2067 50.7272L44.5665 47.0992L45.029 47.0825L46.3164 50.7383ZM44.0203 49.6237L43.9758 49.5513H45.4972L45.447 49.6293L44.717 47.3611L44.8228 47.3667L44.0203 49.6237Z" fill="white"/>
<path d="M50.547 47.1215L51.918 47.0936V47.3332L51.383 47.4503L51.5 47.3277L50.4634 50.9891H50.0232L49.0479 47.6565L49.1315 47.6621L48.1005 50.9891H47.6603L46.7017 47.3555L46.763 47.4447L46.267 47.3611V47.1215L47.6881 47.0936V47.3332L47.103 47.4503L47.1698 47.3555L47.9668 50.5656H47.872L48.9086 47.1159L49.3266 47.0936L50.3185 50.5544H50.2238L51.0932 47.3611L51.1433 47.4503L50.547 47.3611V47.1215Z" fill="white"/>
<path d="M55.2897 50.7272L55.1504 50.6324L55.6743 50.7439V50.9835H54.2866V50.7439L54.7826 50.6324L54.7603 50.716L53.6346 49.072L53.7795 49.1612H52.9324L53.016 49.0664V50.7272L52.9435 50.6213L53.4897 50.7439V50.9835H52.0797V50.7439L52.6259 50.6324L52.559 50.7272V47.3555L52.6203 47.4503L52.0797 47.3611V47.1215L53.4897 47.0936V47.3332L52.9491 47.4559L53.016 47.3444V48.9048L52.9324 48.8212H53.785L53.6513 48.9048L54.5876 47.3611L54.6321 47.4391L54.0971 47.3611V47.1215L55.4514 47.0936V47.3332L54.9164 47.4559L55.0334 47.3667L54.0024 49.0274V48.8992L55.2897 50.7272Z" fill="white"/>
<path d="M56.4752 48.041C56.4752 48.1822 56.5123 48.2974 56.5866 48.3865C56.6609 48.4757 56.7594 48.55 56.882 48.6095C57.0083 48.6652 57.1458 48.7153 57.2944 48.7599C57.443 48.8045 57.5916 48.8547 57.7402 48.9104C57.8888 48.9624 58.0244 49.0293 58.147 49.111C58.2696 49.189 58.3681 49.2931 58.4424 49.4231C58.5204 49.5494 58.5594 49.7092 58.5594 49.9024C58.5594 50.1624 58.4926 50.3761 58.3588 50.5433C58.2288 50.7105 58.0542 50.8349 57.835 50.9166C57.6158 50.9947 57.3761 51.0337 57.1161 51.0337C56.9303 51.0337 56.7408 51.0151 56.5476 50.978C56.3544 50.9371 56.1649 50.8776 55.9792 50.7996L56.0126 49.8857H56.2857L56.3804 50.599L56.3247 50.5043C56.4547 50.5637 56.5903 50.6083 56.7315 50.638C56.8727 50.6677 57.0102 50.6826 57.1439 50.6826C57.3185 50.6826 57.4783 50.6566 57.6232 50.6046C57.7681 50.5488 57.8851 50.469 57.9743 50.3649C58.0635 50.2572 58.108 50.1234 58.108 49.9637C58.108 49.8151 58.069 49.6962 57.991 49.607C57.9167 49.5141 57.8182 49.438 57.6956 49.3785C57.573 49.3191 57.4374 49.2671 57.2888 49.2225C57.1402 49.1779 56.9916 49.1315 56.843 49.0832C56.6944 49.0311 56.5588 48.9661 56.4362 48.8881C56.3135 48.8101 56.2132 48.7098 56.1352 48.5872C56.0609 48.4608 56.0238 48.3011 56.0238 48.1079C56.0238 47.8701 56.0813 47.6732 56.1965 47.5172C56.3154 47.3574 56.4752 47.2385 56.6758 47.1605C56.8801 47.0825 57.1068 47.0435 57.3557 47.0435C57.5303 47.0435 57.7124 47.062 57.9018 47.0992C58.0913 47.1363 58.2771 47.1939 58.4591 47.2719L58.4145 48.1469H58.1359L58.0523 47.4781L58.1192 47.545C58.0077 47.4967 57.887 47.4596 57.7569 47.4336C57.6269 47.4076 57.4969 47.3946 57.3668 47.3946C57.2145 47.3946 57.0696 47.4168 56.9321 47.4614C56.7947 47.5023 56.6832 47.571 56.5978 47.6676C56.516 47.7605 56.4752 47.885 56.4752 48.041Z" fill="white"/>
</svg>
