<svg width="80" height="80" viewBox="0 0 80 80" fill="none" xmlns="http://www.w3.org/2000/svg">
<path d="M60.5721 14.501H19.5448V35.245H60.5721V14.501Z" fill="white"/>
<path d="M60.5721 14.1162H18.7791V24.3998H60.5721V14.1162Z" fill="#E7DB00"/>
<path d="M35.4769 56.092C35.828 56.0947 36.1743 56.0957 36.5227 56.0325C37.3058 55.8907 38.0591 55.5798 38.7702 55.2307C38.9036 55.1655 39.8355 54.8021 39.8589 54.6362C39.8652 54.6296 39.8723 54.6265 39.8789 54.6209C39.8174 53.5225 39.7048 52.1554 39.4557 51.1349C39.3547 51.0992 39.2527 51.0373 39.1745 51.0032C38.5419 50.728 37.914 50.4402 37.2944 50.1372C36.3836 49.6862 35.3 49.2245 34.5534 48.4966C33.5912 48.737 32.6771 49.1486 31.9241 49.7982C31.882 50.1513 31.8512 50.5057 31.8325 50.8601C31.7817 51.8043 31.6443 53.3299 32.3066 54.1073C32.3464 54.1548 32.3859 54.2023 32.4256 54.2497C32.7954 54.5236 33.2658 54.8733 33.3481 54.9291C34.0091 55.3795 34.7199 55.8061 35.4769 56.092Z" fill="white"/>
<path d="M31.4316 49.2225C31.4379 49.2255 31.6369 49.2974 31.6997 49.3292C32.5152 48.6531 33.421 48.2679 34.2769 48.0352C34.2104 47.628 34.3284 47.0302 34.3628 46.7356C34.441 46.0672 34.5868 45.4072 34.7714 44.7599C34.9162 44.2524 35.0853 43.7522 35.2766 43.26C35.3364 43.1056 35.4538 42.9137 35.5026 42.7401C34.9663 42.0213 34.4103 41.3128 33.7774 40.6765C33.5076 40.4054 33.2203 40.1446 32.9077 39.9209C32.8399 39.9283 32.7676 39.9309 32.7021 39.943C31.4242 40.1717 30.1494 40.72 29.1493 41.5509L28.9848 41.6883C28.4766 43.1942 28.2202 44.8168 28.4024 46.3999L28.5017 46.5564C29.5542 48.2091 30.8582 48.956 31.4316 49.2225Z" fill="white"/>
<path d="M48.244 50.1986C48.1421 49.6299 47.9869 49.0715 47.792 48.5278C47.7372 48.3774 47.6392 48.2085 47.5757 48.0447L43.9189 47.3071C43.4117 48.0277 42.8162 48.6846 42.1682 49.2798C41.4594 49.9311 40.6827 50.4433 39.9037 50.9883C40.0327 51.6042 40.2427 52.8593 40.2932 54.6665C40.545 54.7574 41.0896 54.9477 41.755 55.1379C42.6708 55.4014 43.6514 55.6565 44.6123 55.6331C45.0684 55.3251 45.4937 54.9721 45.8992 54.6016C46.7752 53.8012 47.5696 52.9182 48.359 52.0328C48.3791 51.4189 48.356 50.8124 48.244 50.1986Z" fill="white"/>
<path d="M27.9731 46.5486C27.7487 44.8096 28.0607 43.0549 28.6411 41.4012C28.5471 41.2317 28.4649 41.0572 28.4161 40.8649C28.3803 40.7255 28.3622 40.5851 28.3539 40.4443C28.1382 40.8589 27.941 41.2849 27.7724 41.7256C26.956 43.8173 26.7751 46.0176 27.1201 48.1163C27.1967 47.9505 27.2723 47.797 27.3338 47.6679C27.5204 47.2754 27.7678 46.9267 27.9731 46.5486Z" fill="white"/>
<path d="M49.4607 38.5859H48.5178C48.4968 38.6765 48.4737 38.7662 48.4449 38.8541C49.4049 40.0153 50.3363 41.3731 50.8365 43.658C51.3648 44.1462 51.7212 44.5832 52.0024 45.0272C51.969 44.6731 51.9262 44.3207 51.8633 43.9723C51.5049 41.9913 50.6603 40.1514 49.4607 38.5859Z" fill="white"/>
<path d="M50.1291 51.8592C49.6891 52.0799 49.2253 52.232 48.7796 52.4329L48.5834 52.4975C47.4636 53.759 46.3118 55.0589 44.9145 56.0065C44.7965 56.6083 44.6294 57.1697 44.4137 57.728C47.2603 56.505 49.6131 54.2555 50.9191 51.4155C50.6613 51.5733 50.3992 51.7238 50.1291 51.8592Z" fill="white"/>
<path d="M35.0255 57.9185C35.6782 58.1669 36.3509 58.3531 37.0333 58.4899C36.7912 58.2488 36.5592 57.998 36.3489 57.7289C36.0981 57.4093 35.8811 57.0692 35.6838 56.7158C34.3207 56.3002 33.0866 55.4684 31.9729 54.5867C31.2062 54.459 30.468 54.2624 29.7338 54.0156C31.0889 55.7262 32.8884 57.104 35.0255 57.9185Z" fill="white"/>
<path d="M49.3658 41.1358C49.0575 40.5577 48.6827 40.0201 48.2751 39.5079C48.243 39.4674 48.1634 39.3835 48.0805 39.2895C47.8879 39.2173 47.6953 39.1468 47.4964 39.0929C46.7404 38.8877 45.9464 38.8191 45.1647 38.8081C44.6765 38.8004 44.1436 38.777 43.6588 38.8632C42.7764 39.759 42.1094 40.9456 41.6687 42.1218C41.893 42.3899 42.1034 42.8249 42.196 42.9811C42.5357 43.5528 42.8362 44.1473 43.1194 44.7491C43.3451 45.2276 43.5595 45.7124 43.7641 46.2005C43.8313 46.3604 43.8844 46.5717 43.9657 46.7445C44.6765 46.8906 46.5519 47.2811 47.5987 47.4958C47.6154 47.4797 47.6325 47.463 47.6499 47.445C48.0538 47.0227 48.4416 46.585 48.8117 46.1337C49.3708 45.4583 50.0629 44.6501 50.2835 43.7812C50.2879 43.7658 50.2919 43.7504 50.2959 43.735C50.2665 43.603 50.2404 43.4706 50.2066 43.3395C50.0117 42.5752 49.7375 41.8316 49.3658 41.1358Z" fill="white"/>
<path d="M33.5938 38.5863C33.4781 38.8327 33.3701 39.0831 33.2755 39.3412C33.2655 39.369 33.2431 39.472 33.217 39.5586C34.2063 40.2951 35.1114 41.4349 35.8667 42.4423C36.3562 42.3116 36.8524 42.2046 37.3509 42.1143C38.6151 41.8866 39.923 41.7555 41.2059 41.8893C41.791 40.3874 42.6102 39.2466 43.2063 38.5859L33.5938 38.5863Z" fill="white"/>
<path d="M49.4607 38.5863C50.6603 40.1517 51.5049 41.9916 51.8633 43.9723C51.9262 44.3207 51.969 44.6731 52.0024 45.0272C51.7209 44.5831 51.3648 44.1462 50.8365 43.658C50.3364 41.3731 49.4049 40.0153 48.445 38.8541C48.4737 38.7665 48.4968 38.6765 48.5178 38.5859H43.206C42.6102 39.2466 41.7911 40.3871 41.2056 41.8893C39.9227 41.7555 38.6148 41.8866 37.3506 42.1143C36.8521 42.2046 36.3559 42.3116 35.8664 42.4423C35.1114 41.4349 34.206 40.2948 33.2167 39.5586C33.2428 39.472 33.2652 39.369 33.2752 39.3412C33.3698 39.0828 33.4778 38.8323 33.5935 38.5863H27.9236C26.5591 40.7117 25.7604 43.2351 25.7473 45.9456C25.7473 45.9597 25.7463 45.974 25.7463 45.9881C25.7463 45.9961 25.7457 46.0038 25.7457 46.0118C25.7457 46.0479 25.748 46.0837 25.7483 46.1198C25.758 51.673 29.156 56.9878 34.5895 59.0595C36.923 59.9488 39.4817 60.1916 41.9402 59.7469C46.6532 58.8943 50.6667 55.5709 52.3742 51.1003C52.963 49.5603 53.2626 47.9226 53.2746 46.2803C53.2763 46.1907 53.2813 46.1018 53.2813 46.0118C53.2813 43.2762 52.4802 40.7294 51.1047 38.5866L49.4607 38.5863ZM43.6591 38.8628C44.1436 38.7765 44.6768 38.7999 45.165 38.8076C45.9467 38.8183 46.7408 38.8872 47.4967 39.0925C47.696 39.1466 47.8886 39.2168 48.0809 39.2891C48.1638 39.383 48.2433 39.4673 48.2754 39.5074C48.683 40.0196 49.0578 40.5573 49.3661 41.1353C49.7379 41.8315 50.0117 42.5747 50.2073 43.3384C50.2411 43.4694 50.2672 43.6022 50.2966 43.7339C50.2922 43.7493 50.2882 43.7647 50.2842 43.78C50.0635 44.649 49.3718 45.4571 48.8124 46.1325C48.4423 46.5839 48.0544 47.0216 47.6505 47.4438C47.6332 47.4619 47.6161 47.4786 47.5994 47.4947C46.5525 47.28 44.6772 46.8895 43.9663 46.7434C43.8851 46.5702 43.832 46.3592 43.7647 46.1994C43.5601 45.7113 43.3458 45.2264 43.1201 44.748C42.8369 44.1465 42.5363 43.5517 42.1966 42.9799C42.104 42.8238 41.8937 42.3888 41.6694 42.1207C42.1097 40.9451 42.7767 39.7585 43.6591 38.8628ZM27.3338 47.6682C27.2723 47.7976 27.1967 47.951 27.1202 48.1165C26.7751 46.0178 26.956 43.8175 27.7725 41.7258C27.9407 41.2851 28.1383 40.8592 28.3539 40.4446C28.3626 40.5853 28.3807 40.7258 28.4161 40.8652C28.4649 41.0574 28.5475 41.232 28.6411 41.4015C28.0604 43.0548 27.7487 44.8095 27.9731 46.5488C27.7678 46.9269 27.5204 47.2757 27.3338 47.6682ZM28.502 46.5565L28.4027 46.4C28.2202 44.8165 28.477 43.1943 28.9852 41.6884L29.1497 41.5509C30.15 40.7197 31.4246 40.1714 32.7025 39.943C32.768 39.9313 32.8402 39.9283 32.9081 39.921C33.2207 40.1443 33.5076 40.4051 33.7777 40.6766C34.4106 41.3126 34.9667 42.021 35.503 42.7402C35.4542 42.9137 35.3368 43.1057 35.2769 43.2601C35.0857 43.7523 34.9162 44.2525 34.7717 44.76C34.5872 45.407 34.4411 46.067 34.3632 46.7357C34.3284 47.0306 34.2107 47.6281 34.2769 48.0356C33.421 48.2684 32.5156 48.6535 31.6998 49.3296C31.6366 49.2975 31.438 49.2259 31.4316 49.2226C30.8582 48.9558 29.5542 48.2088 28.502 46.5565ZM35.0255 57.9187C32.888 57.1042 31.0889 55.7263 29.7338 54.0158C30.468 54.2626 31.2063 54.4595 31.9729 54.5869C33.0866 55.4686 34.3207 56.3004 35.6839 56.716C35.8815 57.0694 36.0984 57.4094 36.3489 57.7291C36.5592 57.9982 36.7912 58.249 37.0333 58.4901C36.3512 58.3533 35.6782 58.1671 35.0255 57.9187ZM39.8589 54.6367C39.8351 54.8029 38.9036 55.166 38.7702 55.2312C38.0591 55.5802 37.3058 55.8912 36.5227 56.0329C36.1743 56.0958 35.828 56.0948 35.4769 56.0925C34.7199 55.8066 34.0091 55.3799 33.3481 54.9296C33.2658 54.8737 32.7951 54.5244 32.4256 54.2502C32.3858 54.2027 32.3464 54.1552 32.3066 54.1077C31.6442 53.3301 31.7817 51.8044 31.8325 50.8606C31.8515 50.5058 31.882 50.1514 31.9241 49.7987C32.6771 49.149 33.5912 48.7378 34.5534 48.497C35.3 49.2249 36.3836 49.6867 37.2944 50.1377C37.914 50.4406 38.5419 50.7285 39.1745 51.0037C39.2527 51.0378 39.3547 51.0996 39.4557 51.1354C39.7047 52.1555 39.8174 53.523 39.8789 54.6213C39.8723 54.627 39.8652 54.6303 39.8589 54.6367ZM41.7546 55.1375C41.0893 54.9476 40.545 54.7571 40.2929 54.6661C40.2424 52.859 40.0324 51.6041 39.9033 50.9879C40.6827 50.4429 41.4594 49.9307 42.1679 49.2794C42.8159 48.6843 43.4113 48.0273 43.9185 47.3067L47.5753 48.0443C47.6385 48.2082 47.7368 48.377 47.7916 48.5275C47.9869 49.0711 48.1417 49.6295 48.2437 50.1982C48.3557 50.8121 48.3787 51.4186 48.3584 52.0321C47.569 52.9171 46.7745 53.8005 45.8986 54.6009C45.493 54.9717 45.0674 55.3248 44.6116 55.6324C43.6514 55.6561 42.6704 55.4014 41.7546 55.1375ZM44.4134 57.7278C44.6294 57.1694 44.7962 56.608 44.9142 56.0062C46.3111 55.059 47.4633 53.759 48.583 52.4972L48.7793 52.4327C49.2253 52.2314 49.6891 52.0793 50.1287 51.8589C50.3989 51.7235 50.661 51.5731 50.9185 51.4152C49.6128 54.2552 47.26 56.5047 44.4134 57.7278Z" fill="#192335"/>
<path fill-rule="evenodd" clip-rule="evenodd" d="M72.6963 48.6368H7L10.6778 40.255L7 32.0581H72.6963L68.6841 40.5141L72.6963 48.6368Z" fill="#63227D"/>
<path d="M13.2226 42.1381V37.4766H16.309V38.2892H14.2081V39.3999H16.1041V40.2125H14.2081V42.1381H13.2226Z" fill="white"/>
<path d="M21.2555 39.8073C21.2555 40.3157 21.1591 40.7481 20.9664 41.1047C20.7752 41.4613 20.5142 41.7337 20.1835 41.9218C19.8542 42.1085 19.4839 42.2018 19.0727 42.2018C18.6585 42.2018 18.2867 42.1077 17.9574 41.9196C17.6282 41.7314 17.3679 41.459 17.1767 41.1024C16.9855 40.7459 16.8899 40.3142 16.8899 39.8073C16.8899 39.299 16.9855 38.8666 17.1767 38.51C17.3679 38.1534 17.6282 37.8818 17.9574 37.6951C18.2867 37.507 18.6585 37.4129 19.0727 37.4129C19.4839 37.4129 19.8542 37.507 20.1835 37.6951C20.5142 37.8818 20.7752 38.1534 20.9664 38.51C21.1591 38.8666 21.2555 39.299 21.2555 39.8073ZM20.2563 39.8073C20.2563 39.4781 20.207 39.2004 20.1083 38.9743C20.0112 38.7482 19.8739 38.5767 19.6964 38.4599C19.5188 38.3431 19.3109 38.2846 19.0727 38.2846C18.8345 38.2846 18.6266 38.3431 18.4491 38.4599C18.2715 38.5767 18.1335 38.7482 18.0348 38.9743C17.9377 39.2004 17.8892 39.4781 17.8892 39.8073C17.8892 40.1366 17.9377 40.4143 18.0348 40.6404C18.1335 40.8665 18.2715 41.038 18.4491 41.1548C18.6266 41.2716 18.8345 41.33 19.0727 41.33C19.3109 41.33 19.5188 41.2716 19.6964 41.1548C19.8739 41.038 20.0112 40.8665 20.1083 40.6404C20.207 40.4143 20.2563 40.1366 20.2563 39.8073Z" fill="white"/>
<path d="M26.2691 39.8073C26.2691 40.3157 26.1728 40.7481 25.9801 41.1047C25.7889 41.4613 25.5279 41.7337 25.1971 41.9218C24.8678 42.1085 24.4976 42.2018 24.0864 42.2018C23.6721 42.2018 23.3004 42.1077 22.9711 41.9196C22.6418 41.7314 22.3816 41.459 22.1904 41.1024C21.9992 40.7459 21.9036 40.3142 21.9036 39.8073C21.9036 39.299 21.9992 38.8666 22.1904 38.51C22.3816 38.1534 22.6418 37.8818 22.9711 37.6951C23.3004 37.507 23.6721 37.4129 24.0864 37.4129C24.4976 37.4129 24.8678 37.507 25.1971 37.6951C25.5279 37.8818 25.7889 38.1534 25.9801 38.51C26.1728 38.8666 26.2691 39.299 26.2691 39.8073ZM25.2699 39.8073C25.2699 39.4781 25.2206 39.2004 25.122 38.9743C25.0249 38.7482 24.8876 38.5767 24.71 38.4599C24.5325 38.3431 24.3246 38.2846 24.0864 38.2846C23.8481 38.2846 23.6403 38.3431 23.4627 38.4599C23.2852 38.5767 23.1471 38.7482 23.0485 38.9743C22.9514 39.2004 22.9028 39.4781 22.9028 39.8073C22.9028 40.1366 22.9514 40.4143 23.0485 40.6404C23.1471 40.8665 23.2852 41.038 23.4627 41.1548C23.6403 41.2716 23.8481 41.33 24.0864 41.33C24.3246 41.33 24.5325 41.2716 24.71 41.1548C24.8876 41.038 25.0249 40.8665 25.122 40.6404C25.2206 40.4143 25.2699 40.1366 25.2699 39.8073Z" fill="white"/>
<path d="M26.6089 38.2892V37.4766H30.4372V38.2892H29.0101V42.1381H28.036V38.2892H26.6089Z" fill="white"/>
<path d="M31.0677 42.1381V37.4766H32.9341C33.277 37.4766 33.5631 37.5275 33.7922 37.6291C34.0213 37.7308 34.1936 37.8719 34.3089 38.0525C34.4242 38.2315 34.4819 38.4379 34.4819 38.6716C34.4819 38.8537 34.4454 39.0137 34.3726 39.1518C34.2998 39.2884 34.1996 39.4007 34.0722 39.4887C33.9462 39.5752 33.8021 39.6366 33.6397 39.6731V39.7186C33.8172 39.7262 33.9834 39.7762 34.1382 39.8688C34.2945 39.9614 34.4212 40.0911 34.5183 40.258C34.6154 40.4234 34.6639 40.6207 34.6639 40.8498C34.6639 41.0971 34.6025 41.3179 34.4796 41.5121C34.3582 41.7048 34.1784 41.8573 33.9401 41.9696C33.7019 42.0819 33.4083 42.1381 33.0593 42.1381H31.0677ZM32.0533 41.3323H32.8567C33.1314 41.3323 33.3317 41.28 33.4576 41.1753C33.5836 41.0691 33.6465 40.9279 33.6465 40.7519C33.6465 40.6229 33.6154 40.5091 33.5532 40.4105C33.491 40.3119 33.4022 40.2345 33.2869 40.1783C33.1731 40.1222 33.0373 40.0941 32.8795 40.0941H32.0533V41.3323ZM32.0533 39.4272H32.7839C32.9189 39.4272 33.0388 39.4037 33.1435 39.3567C33.2497 39.3081 33.3332 39.2398 33.3939 39.1518C33.4561 39.0638 33.4872 38.9584 33.4872 38.8355C33.4872 38.667 33.4273 38.5312 33.3074 38.428C33.189 38.3248 33.0206 38.2733 32.8021 38.2733H32.0533V39.4272Z" fill="white"/>
<path d="M36.1087 42.1381H35.0526L36.6618 37.4766H37.9318L39.5388 42.1381H38.4827L37.315 38.5418H37.2786L36.1087 42.1381ZM36.0427 40.3058H38.5373V41.0751H36.0427V40.3058Z" fill="white"/>
<path d="M40.0998 42.1381V37.4766H41.0854V41.3255H43.0838V42.1381H40.0998Z" fill="white"/>
<path d="M43.7364 42.1381V37.4766H44.722V41.3255H46.7204V42.1381H43.7364Z" fill="white"/>
<path d="M52.9694 39.1086H51.9725C51.9543 38.9796 51.9171 38.865 51.861 38.7649C51.8048 38.6632 51.7327 38.5767 51.6447 38.5054C51.5567 38.4341 51.455 38.3795 51.3397 38.3415C51.2259 38.3036 51.1023 38.2846 50.9687 38.2846C50.7275 38.2846 50.5173 38.3446 50.3382 38.4644C50.1592 38.5828 50.0204 38.7558 49.9217 38.9834C49.8231 39.2095 49.7738 39.4841 49.7738 39.8073C49.7738 40.1397 49.8231 40.4189 49.9217 40.6449C50.0219 40.871 50.1615 41.0417 50.3405 41.1571C50.5196 41.2724 50.7267 41.33 50.9619 41.33C51.0939 41.33 51.2161 41.3126 51.3283 41.2777C51.4422 41.2428 51.5431 41.192 51.6311 41.1252C51.7191 41.0569 51.7919 40.9742 51.8496 40.8771C51.9087 40.78 51.9497 40.6692 51.9725 40.5448L52.9694 40.5493C52.9436 40.7633 52.8791 40.9697 52.7759 41.1684C52.6743 41.3657 52.5369 41.5425 52.364 41.6988C52.1925 41.8535 51.9877 41.9765 51.7494 42.0675C51.5127 42.157 51.2449 42.2018 50.946 42.2018C50.5302 42.2018 50.1584 42.1077 49.8307 41.9196C49.5044 41.7314 49.2465 41.459 49.0568 41.1024C48.8686 40.7459 48.7746 40.3142 48.7746 39.8073C48.7746 39.299 48.8702 38.8666 49.0614 38.51C49.2526 38.1534 49.512 37.8818 49.8398 37.6951C50.1675 37.507 50.5363 37.4129 50.946 37.4129C51.2161 37.4129 51.4664 37.4508 51.6971 37.5267C51.9292 37.6026 52.1348 37.7133 52.3139 37.859C52.4929 38.0032 52.6386 38.1799 52.7509 38.3893C52.8647 38.5987 52.9375 38.8385 52.9694 39.1086Z" fill="white"/>
<path d="M53.6761 42.1381V37.4766H54.6617V41.3255H56.6601V42.1381H53.6761Z" fill="white"/>
<path d="M60.192 37.4766H61.1776V40.5038C61.1776 40.8437 61.0964 41.1411 60.934 41.3961C60.7732 41.651 60.5478 41.8498 60.258 41.9924C59.9682 42.1335 59.6306 42.2041 59.2452 42.2041C58.8582 42.2041 58.5198 42.1335 58.23 41.9924C57.9402 41.8498 57.7149 41.651 57.554 41.3961C57.3932 41.1411 57.3128 40.8437 57.3128 40.5038V37.4766H58.2983V40.4196C58.2983 40.5971 58.337 40.755 58.4144 40.893C58.4933 41.0311 58.6041 41.1396 58.7467 41.2185C58.8893 41.2974 59.0555 41.3369 59.2452 41.3369C59.4364 41.3369 59.6025 41.2974 59.7436 41.2185C59.8863 41.1396 59.9963 41.0311 60.0737 40.893C60.1526 40.755 60.192 40.5971 60.192 40.4196V37.4766Z" fill="white"/>
<path d="M61.9884 42.1381V37.4766H63.8548C64.1977 37.4766 64.4838 37.5275 64.7129 37.6291C64.942 37.7308 65.1143 37.8719 65.2296 38.0525C65.3449 38.2315 65.4026 38.4379 65.4026 38.6716C65.4026 38.8537 65.3661 39.0137 65.2933 39.1518C65.2205 39.2884 65.1203 39.4007 64.9929 39.4887C64.8669 39.5752 64.7228 39.6366 64.5604 39.6731V39.7186C64.7379 39.7262 64.9041 39.7762 65.0589 39.8688C65.2152 39.9614 65.3419 40.0911 65.439 40.258C65.5361 40.4234 65.5846 40.6207 65.5846 40.8498C65.5846 41.0971 65.5232 41.3179 65.4003 41.5121C65.2789 41.7048 65.0991 41.8573 64.8608 41.9696C64.6226 42.0819 64.329 42.1381 63.98 42.1381H61.9884ZM62.974 41.3323H63.7774C64.0521 41.3323 64.2524 41.28 64.3783 41.1753C64.5043 41.0691 64.5672 40.9279 64.5672 40.7519C64.5672 40.6229 64.5361 40.5091 64.4739 40.4105C64.4117 40.3119 64.3229 40.2345 64.2076 40.1783C64.0938 40.1222 63.958 40.0941 63.8002 40.0941H62.974V41.3323ZM62.974 39.4272H63.7046C63.8396 39.4272 63.9595 39.4037 64.0642 39.3567C64.1704 39.3081 64.2539 39.2398 64.3146 39.1518C64.3768 39.0638 64.4079 38.9584 64.4079 38.8355C64.4079 38.667 64.348 38.5312 64.2281 38.428C64.1097 38.3248 63.9413 38.2733 63.7228 38.2733H62.974V39.4272Z" fill="white"/>
<path d="M28.2047 27.8131C28.1697 27.7059 28.1235 27.6098 28.0662 27.5249C28.01 27.439 27.9426 27.3658 27.864 27.3053C27.7866 27.2448 27.6985 27.1986 27.5998 27.1668C27.5011 27.1349 27.3928 27.119 27.275 27.119C27.0819 27.119 26.9062 27.1689 26.7481 27.2687C26.59 27.3684 26.4642 27.5154 26.3708 27.7096C26.2774 27.9038 26.2307 28.1421 26.2307 28.4244C26.2307 28.7067 26.278 28.9449 26.3724 29.1391C26.4669 29.3333 26.5948 29.4803 26.7561 29.5801C26.9174 29.6798 27.0989 29.7297 27.3005 29.7297C27.4873 29.7297 27.6518 29.6899 27.794 29.6103C27.9373 29.5297 28.0487 29.4161 28.1283 29.2697C28.2089 29.1222 28.2493 28.9486 28.2493 28.7491L28.3703 28.7746H27.3896V28.4244H28.6313V28.7746C28.6313 29.0431 28.574 29.2766 28.4594 29.475C28.3458 29.6735 28.1888 29.8274 27.9882 29.9367C27.7887 30.0449 27.5594 30.099 27.3005 30.099C27.0118 30.099 26.7582 30.0311 26.5396 29.8953C26.322 29.7594 26.1522 29.5663 26.0302 29.3158C25.9092 29.0654 25.8487 28.7682 25.8487 28.4244C25.8487 28.1665 25.8832 27.9346 25.9522 27.7287C26.0222 27.5218 26.1209 27.3456 26.2483 27.2002C26.3756 27.0548 26.5263 26.9434 26.7003 26.8659C26.8744 26.7884 27.066 26.7497 27.275 26.7497C27.4469 26.7497 27.6072 26.7757 27.7558 26.8277C27.9054 26.8786 28.0386 26.9513 28.1553 27.0458C28.2731 27.1392 28.3713 27.2511 28.4498 27.3817C28.5284 27.5111 28.5825 27.655 28.6122 27.8131H28.2047Z" fill="#192335"/>
<path d="M30.2499 30.1054C30.0291 30.1054 29.8355 30.0529 29.6688 29.9478C29.5033 29.8428 29.3738 29.6958 29.2804 29.5069C29.1881 29.318 29.1419 29.0972 29.1419 28.8446C29.1419 28.5899 29.1881 28.3676 29.2804 28.1776C29.3738 27.9877 29.5033 27.8401 29.6688 27.7351C29.8355 27.63 30.0291 27.5775 30.2499 27.5775C30.4706 27.5775 30.6638 27.63 30.8293 27.7351C30.996 27.8401 31.1254 27.9877 31.2178 28.1776C31.3112 28.3676 31.3578 28.5899 31.3578 28.8446C31.3578 29.0972 31.3112 29.318 31.2178 29.5069C31.1254 29.6958 30.996 29.8428 30.8293 29.9478C30.6638 30.0529 30.4706 30.1054 30.2499 30.1054ZM30.2499 29.7679C30.4176 29.7679 30.5555 29.725 30.6638 29.639C30.772 29.553 30.8522 29.44 30.9042 29.2999C30.9562 29.1598 30.9822 29.0081 30.9822 28.8446C30.9822 28.6812 30.9562 28.5289 30.9042 28.3878C30.8522 28.2466 30.772 28.1325 30.6638 28.0455C30.5555 27.9585 30.4176 27.915 30.2499 27.915C30.0822 27.915 29.9442 27.9585 29.836 28.0455C29.7277 28.1325 29.6476 28.2466 29.5956 28.3878C29.5436 28.5289 29.5176 28.6812 29.5176 28.8446C29.5176 29.0081 29.5436 29.1598 29.5956 29.2999C29.6476 29.44 29.7277 29.553 29.836 29.639C29.9442 29.725 30.0822 29.7679 30.2499 29.7679Z" fill="#192335"/>
<path d="M32.307 26.7943V30.0545H31.9313V26.7943H32.307Z" fill="#192335"/>
<path d="M33.9184 30.1054C33.7147 30.1054 33.5348 30.0539 33.3788 29.951C33.2228 29.847 33.1007 29.7005 33.0126 29.5116C32.9245 29.3217 32.8805 29.0972 32.8805 28.8383C32.8805 28.5814 32.9245 28.3586 33.0126 28.1697C33.1007 27.9808 33.2233 27.8348 33.3804 27.7319C33.5374 27.6289 33.7189 27.5775 33.9248 27.5775C34.084 27.5775 34.2097 27.604 34.3021 27.6571C34.3955 27.7091 34.4666 27.7685 34.5154 27.8354C34.5653 27.9012 34.604 27.9553 34.6316 27.9977H34.6634V26.7943H35.0391V30.0545H34.6762V29.6788H34.6316C34.604 29.7234 34.5647 29.7796 34.5138 29.8475C34.4628 29.9144 34.3901 29.9743 34.2957 30.0274C34.2012 30.0794 34.0755 30.1054 33.9184 30.1054ZM33.9694 29.7679C34.1201 29.7679 34.2474 29.7287 34.3514 29.6501C34.4554 29.5705 34.5345 29.4607 34.5886 29.3206C34.6427 29.1795 34.6698 29.0166 34.6698 28.8319C34.6698 28.6494 34.6433 28.4896 34.5902 28.3527C34.5371 28.2148 34.4586 28.1076 34.3546 28.0312C34.2506 27.9537 34.1222 27.915 33.9694 27.915C33.8102 27.915 33.6775 27.9558 33.5714 28.0375C33.4663 28.1182 33.3873 28.228 33.3342 28.3671C33.2822 28.505 33.2562 28.66 33.2562 28.8319C33.2562 29.0059 33.2827 29.1641 33.3358 29.3063C33.3899 29.4474 33.4695 29.5599 33.5746 29.6438C33.6807 29.7265 33.8123 29.7679 33.9694 29.7679Z" fill="#192335"/>
<path d="M36.8045 30.1054C36.5689 30.1054 36.3657 30.0534 36.1948 29.9494C36.025 29.8443 35.894 29.6979 35.8016 29.51C35.7104 29.3211 35.6647 29.1015 35.6647 28.851C35.6647 28.6005 35.7104 28.3798 35.8016 28.1888C35.894 27.9967 36.0224 27.847 36.1869 27.7399C36.3524 27.6316 36.5456 27.5775 36.7663 27.5775C36.8937 27.5775 37.0194 27.5987 37.1436 27.6412C37.2678 27.6836 37.3808 27.7526 37.4827 27.8481C37.5846 27.9426 37.6657 28.0678 37.7262 28.2238C37.7867 28.3798 37.817 28.5719 37.817 28.8001V28.9592H35.9322V28.6345H37.4349C37.4349 28.4965 37.4073 28.3734 37.3521 28.2652C37.298 28.1569 37.2205 28.0715 37.1197 28.0089C37.02 27.9463 36.9022 27.915 36.7663 27.915C36.6167 27.915 36.4872 27.9521 36.3779 28.0264C36.2696 28.0996 36.1863 28.1951 36.128 28.3129C36.0696 28.4307 36.0404 28.557 36.0404 28.6918V28.9083C36.0404 29.093 36.0723 29.2495 36.1359 29.3779C36.2007 29.5053 36.2903 29.6024 36.405 29.6692C36.5196 29.735 36.6528 29.7679 36.8045 29.7679C36.9032 29.7679 36.9924 29.7541 37.072 29.7265C37.1526 29.6979 37.2221 29.6554 37.2805 29.5992C37.3389 29.5419 37.384 29.4708 37.4158 29.3859L37.7788 29.4878C37.7406 29.6109 37.6764 29.7191 37.5861 29.8125C37.4959 29.9048 37.3845 29.977 37.2519 30.029C37.1192 30.0799 36.9701 30.1054 36.8045 30.1054Z" fill="#192335"/>
<path d="M38.7642 28.5836V30.0545H38.3885V27.6093H38.7514V27.9914H38.7833C38.8406 27.8672 38.9276 27.7674 39.0443 27.6921C39.1611 27.6157 39.3118 27.5775 39.4964 27.5775C39.662 27.5775 39.8068 27.6114 39.931 27.6794C40.0552 27.7462 40.1518 27.8481 40.2207 27.985C40.2897 28.1208 40.3242 28.2928 40.3242 28.5008V30.0545H39.9485V28.5263C39.9485 28.3342 39.8986 28.1845 39.7989 28.0773C39.6991 27.9691 39.5622 27.915 39.3882 27.915C39.2683 27.915 39.1611 27.941 39.0666 27.993C38.9732 28.045 38.8995 28.1208 38.8453 28.2206C38.7912 28.3204 38.7642 28.4413 38.7642 28.5836Z" fill="#192335"/>
<path d="M42.3224 30.0545V26.7943H42.7172V29.7043H44.2327V30.0545H42.3224Z" fill="#192335"/>
<path d="M44.7931 30.0545V27.6093H45.1688V30.0545H44.7931ZM44.9841 27.2018C44.9109 27.2018 44.8477 27.1769 44.7947 27.127C44.7427 27.0771 44.7167 27.0171 44.7167 26.9471C44.7167 26.877 44.7427 26.8171 44.7947 26.7672C44.8477 26.7173 44.9109 26.6924 44.9841 26.6924C45.0573 26.6924 45.1199 26.7173 45.1719 26.7672C45.225 26.8171 45.2515 26.877 45.2515 26.9471C45.2515 27.0171 45.225 27.0771 45.1719 27.127C45.1199 27.1769 45.0573 27.2018 44.9841 27.2018Z" fill="#192335"/>
<path d="M46.8502 30.1054C46.6295 30.1054 46.4358 30.0529 46.2692 29.9478C46.1036 29.8428 45.9741 29.6958 45.8807 29.5069C45.7884 29.318 45.7422 29.0972 45.7422 28.8446C45.7422 28.5899 45.7884 28.3676 45.8807 28.1776C45.9741 27.9877 46.1036 27.8401 46.2692 27.7351C46.4358 27.63 46.6295 27.5775 46.8502 27.5775C47.0709 27.5775 47.2641 27.63 47.4297 27.7351C47.5963 27.8401 47.7257 27.9877 47.8181 28.1776C47.9115 28.3676 47.9582 28.5899 47.9582 28.8446C47.9582 29.0972 47.9115 29.318 47.8181 29.5069C47.7257 29.6958 47.5963 29.8428 47.4297 29.9478C47.2641 30.0529 47.0709 30.1054 46.8502 30.1054ZM46.8502 29.7679C47.0179 29.7679 47.1558 29.725 47.2641 29.639C47.3723 29.553 47.4525 29.44 47.5045 29.2999C47.5565 29.1598 47.5825 29.0081 47.5825 28.8446C47.5825 28.6812 47.5565 28.5289 47.5045 28.3878C47.4525 28.2466 47.3723 28.1325 47.2641 28.0455C47.1558 27.9585 47.0179 27.915 46.8502 27.915C46.6825 27.915 46.5446 27.9585 46.4363 28.0455C46.3281 28.1325 46.2479 28.2466 46.1959 28.3878C46.1439 28.5289 46.1179 28.6812 46.1179 28.8446C46.1179 29.0081 46.1439 29.1598 46.1959 29.2999C46.2479 29.44 46.3281 29.553 46.4363 29.639C46.5446 29.725 46.6825 29.7679 46.8502 29.7679Z" fill="#192335"/>
<path d="M48.9073 28.5836V30.0545H48.5316V27.6093H48.8946V27.9914H48.9264C48.9837 27.8672 49.0708 27.7674 49.1875 27.6921C49.3042 27.6157 49.4549 27.5775 49.6396 27.5775C49.8052 27.5775 49.95 27.6114 50.0742 27.6794C50.1984 27.7462 50.2949 27.8481 50.3639 27.985C50.4329 28.1208 50.4674 28.2928 50.4674 28.5008V30.0545H50.0917V28.5263C50.0917 28.3342 50.0418 28.1845 49.9421 28.0773C49.8423 27.9691 49.7054 27.915 49.5314 27.915C49.4114 27.915 49.3042 27.941 49.2098 27.993C49.1164 28.045 49.0426 28.1208 48.9885 28.2206C48.9344 28.3204 48.9073 28.4413 48.9073 28.5836Z" fill="#192335"/>
<path d="M52.8859 28.1569L52.5484 28.2524C52.5272 28.1962 52.4959 28.1415 52.4545 28.0885C52.4142 28.0344 52.359 27.9898 52.2889 27.9548C52.2189 27.9197 52.1292 27.9022 52.0199 27.9022C51.8703 27.9022 51.7456 27.9367 51.6458 28.0057C51.5471 28.0736 51.4977 28.1601 51.4977 28.2652C51.4977 28.3586 51.5317 28.4323 51.5996 28.4865C51.6676 28.5406 51.7737 28.5857 51.918 28.6218L52.281 28.7109C52.4996 28.764 52.6625 28.8452 52.7697 28.9545C52.8769 29.0627 52.9305 29.2023 52.9305 29.3731C52.9305 29.5132 52.8901 29.6385 52.8095 29.7488C52.7299 29.8592 52.6184 29.9462 52.4752 30.0099C52.3319 30.0736 52.1653 30.1054 51.9753 30.1054C51.7259 30.1054 51.5195 30.0513 51.3561 29.943C51.1926 29.8348 51.0892 29.6767 51.0457 29.4687L51.4022 29.3795C51.4362 29.5111 51.5004 29.6098 51.5949 29.6756C51.6904 29.7414 51.8151 29.7743 51.969 29.7743C52.1441 29.7743 52.2831 29.7372 52.386 29.6629C52.49 29.5875 52.542 29.4973 52.542 29.3922C52.542 29.3073 52.5123 29.2362 52.4529 29.1789C52.3935 29.1206 52.3022 29.077 52.1791 29.0484L51.7716 28.9529C51.5476 28.8998 51.3831 28.8176 51.2781 28.7061C51.1741 28.5936 51.1221 28.453 51.1221 28.2843C51.1221 28.1463 51.1608 28.0243 51.2383 27.9181C51.3168 27.812 51.4235 27.7287 51.5582 27.6682C51.6941 27.6077 51.848 27.5775 52.0199 27.5775C52.2619 27.5775 52.4518 27.6305 52.5898 27.7367C52.7288 27.8428 52.8275 27.9829 52.8859 28.1569Z" fill="#192335"/>
<path d="M40.1514 16.2422L40.8595 18.3897L43.1207 18.3997L41.2972 19.7365L41.9866 21.8903L40.1514 20.5687L38.3165 21.8903L39.0059 19.7365L37.182 18.3997L39.4439 18.3897L40.1514 16.2422Z" fill="#192335"/>
<path fill-rule="evenodd" clip-rule="evenodd" d="M40.0578 71.6955C33.8199 71.6955 27.7925 69.3474 23.0856 65.0827C18.4167 60.8525 15.4634 55.1308 14.7697 48.9708L14.683 48.2044H17.754L17.8273 48.811C18.4789 54.1886 21.0965 59.1811 25.1983 62.869C29.3326 66.5863 34.6093 68.6335 40.0578 68.6335C51.3862 68.6335 60.9449 60.1123 62.292 48.8123L62.3646 48.2044H65.4346L65.3497 48.9698C64.6632 55.1576 61.7216 60.8876 57.0651 65.1045C52.3729 69.355 46.3329 71.6955 40.0578 71.6955ZM62.4515 32.4911V12.0623H17.6654V32.4911H14.6095V9H65.5071V32.4911H62.4515Z" fill="#192335"/>
<path fill-rule="evenodd" clip-rule="evenodd" d="M40.0578 70.0851C27.8276 70.0851 17.5401 60.5919 16.1936 48.6372H17.8313C19.1707 59.6905 28.7264 68.4524 40.0578 68.4524C51.4621 68.4524 60.9636 59.7466 62.288 48.6372H63.9253C62.5933 60.6487 52.3609 70.0851 40.0578 70.0851ZM16.0428 32.0582V10.6104H64.0738V32.0582H62.4472V12.243H17.6695V32.0582H16.0428Z" fill="#192335"/>
<path fill-rule="evenodd" clip-rule="evenodd" d="M19.7735 48.6371C20.4449 53.0619 22.5556 57.0574 25.6012 60.1147C29.3292 63.8574 34.4578 66.1945 40.0581 66.1945C45.6929 66.1945 50.8215 63.8744 54.5411 60.1404C57.5834 57.0865 59.6828 53.087 60.3471 48.6371H61.1211C60.4511 53.2993 58.2635 57.4904 55.0825 60.6838C51.2241 64.5569 45.9042 66.9632 40.0581 66.9632C34.2465 66.9632 28.9263 64.5395 25.0602 60.658C21.8756 57.4609 19.6766 53.2742 18.9998 48.6371H19.7735ZM60.5721 32.0584V14.5011H19.5448V32.0584H18.7792V14.1166C18.7792 13.9043 18.9507 13.7324 19.162 13.7324H60.955C61.1663 13.7324 61.3378 13.9046 61.3378 14.1166V32.0581H60.5721V32.0584Z" fill="#192335"/>
<path d="M44.4133 20.8506L57.2915 21.1849L44.4133 21.5193V20.8506Z" fill="#192335"/>
<path d="M44.4133 18.7319L52.4558 19.0663L44.4133 19.4006V18.7319Z" fill="#192335"/>
<path d="M35.8383 21.5193L22.9605 21.1849L35.8383 20.8506V21.5193Z" fill="#192335"/>
<path d="M35.8383 19.4006L27.7958 19.0663L35.8383 18.7319V19.4006Z" fill="#192335"/>
</svg>
