<svg width="69" height="67" viewBox="0 0 69 67" fill="none" xmlns="http://www.w3.org/2000/svg">
<path d="M8.99316 46.2363C9.64561 51.1925 11.6371 55.5884 13.792 59.8809H0.873047L4.73242 53.3115L4.88086 53.0586L4.73242 52.8057L0.873047 46.2363H8.99316Z" fill="#6B7385" stroke="#6B7385"/>
<path d="M67.4307 44.5952L63.5713 51.1646L63.4229 51.4175L63.5713 51.6704L67.4307 58.2397H54.5117C56.6666 53.9473 58.6581 49.5514 59.3105 44.5952H67.4307Z" fill="#6B7385" stroke="#6B7385"/>
<path d="M65.0328 25.8125L53.4147 66.3857H15.5983L3.97815 25.8125L34.5055 0.647461L65.0328 25.8125ZM34.1881 3.13965L6.19592 26.2148L5.94299 26.4229L6.03284 26.7383L16.7906 64.3027L16.8951 64.665H52.1178L52.2213 64.3027L62.9791 26.7383L63.069 26.4229L62.816 26.2148L34.8239 3.13965L34.5065 2.87793L34.1881 3.13965Z" fill="black" stroke="#6B7385"/>
<path d="M19.1903 61.1566L9.72455 28.1029L34.5061 7.6748L59.2877 28.1029L49.822 61.1566H19.1903Z" stroke="#6B7385" stroke-width="4" stroke-miterlimit="10"/>
<path d="M56.0464 29.3008L47.7945 58.1152H21.2173L12.9654 29.3008L34.5054 11.5439L56.0464 29.3008Z" fill="#192335" stroke="#6B7385"/>
<path d="M42.1835 14.9175C42.7165 15.1676 43.9403 15.8745 44.9345 17.4351V17.436L44.9716 17.4937C45.1184 18.9356 44.8903 20.4222 44.4316 21.8286L44.3779 21.8745C43.4406 22.6533 42.2352 23.1755 41.0175 23.397C40.7854 23.2168 40.5627 23.0135 40.3456 22.7954C39.7918 22.239 39.2943 21.6206 38.8066 20.9751L38.9326 20.7017C39.0823 20.3162 39.2196 19.9254 39.3427 19.5298L39.4609 19.1323C39.6539 18.4552 39.8091 17.7571 39.8925 17.0444C39.9003 16.978 39.9127 16.8932 39.9286 16.7817C39.9439 16.675 39.9606 16.5509 39.9745 16.4214C39.9874 16.3019 39.9986 16.1681 40.0019 16.0308C40.7255 15.7988 41.4769 15.4506 42.1835 14.9175Z" fill="white" stroke="#6B7385"/>
<mask id="path-7-inside-1_2074_1175" fill="white">
<path d="M24.8989 26.2954C24.889 25.8557 24.9387 25.4112 25.073 25.0018C24.0967 23.8207 23.1493 22.4397 22.6405 20.1157C22.1032 19.6192 21.741 19.1751 21.4547 18.7231C21.4887 19.0833 21.5322 19.4417 21.5962 19.7961C22.0417 22.2578 23.2159 24.5128 24.8989 26.2954Z"/>
</mask>
<path d="M24.8989 26.2954C24.889 25.8557 24.9387 25.4112 25.073 25.0018C24.0967 23.8207 23.1493 22.4397 22.6405 20.1157C22.1032 19.6192 21.741 19.1751 21.4547 18.7231C21.4887 19.0833 21.5322 19.4417 21.5962 19.7961C22.0417 22.2578 23.2159 24.5128 24.8989 26.2954Z" fill="white"/>
<path d="M24.8989 26.2954L24.1718 26.9819L25.957 28.8728L25.8986 26.273L24.8989 26.2954ZM25.073 25.0018L26.0232 25.3135L26.1951 24.7896L25.8438 24.3646L25.073 25.0018ZM22.6405 20.1157L23.6174 19.9019L23.5501 19.5947L23.3192 19.3813L22.6405 20.1157ZM21.4547 18.7231L22.2994 18.188L20.4591 18.8172L21.4547 18.7231ZM21.5962 19.7961L20.6121 19.9736L20.6122 19.9741L21.5962 19.7961ZM24.8989 26.2954L25.8986 26.273C25.8907 25.9191 25.9319 25.5918 26.0232 25.3135L25.073 25.0018L24.1228 24.69C23.9455 25.2306 23.8874 25.7922 23.8991 26.3178L24.8989 26.2954ZM25.073 25.0018L25.8438 24.3646C24.9295 23.2587 24.081 22.0196 23.6174 19.9019L22.6405 20.1157L21.6637 20.3296C22.2175 22.8598 23.2638 24.3828 24.3023 25.6389L25.073 25.0018ZM22.6405 20.1157L23.3192 19.3813C22.8401 18.9386 22.5354 18.5604 22.2994 18.188L21.4547 18.7231L20.61 19.2583C20.9467 19.7898 21.3663 20.2999 21.9619 20.8502L22.6405 20.1157ZM21.4547 18.7231L20.4591 18.8172C20.4947 19.194 20.5415 19.5823 20.6121 19.9736L21.5962 19.7961L22.5803 19.6185C22.523 19.3011 22.4827 18.9726 22.4503 18.6291L21.4547 18.7231ZM21.5962 19.7961L20.6122 19.9741C21.0934 22.6333 22.3604 25.0632 24.1718 26.9819L24.8989 26.2954L25.626 25.6089C24.0714 23.9623 22.99 21.8823 22.5802 19.618L21.5962 19.7961Z" fill="#6B7385" mask="url(#path-7-inside-1_2074_1175)"/>
<mask id="path-9-inside-2_2074_1175" fill="white">
<path d="M36.4271 30.094C37.5106 29.8982 38.5539 29.5605 39.535 29.1017C38.7668 28.8994 38.3366 28.6182 38.3077 28.5991C37.6623 28.8851 37.0447 29.1011 36.3394 29.2286C35.4222 29.3945 34.4833 29.3908 33.5543 29.3272C33.0605 29.6176 32.5745 29.9108 32.0468 30.1155C33.4927 30.3586 34.9781 30.3562 36.4271 30.094Z"/>
</mask>
<path d="M36.4271 30.094C37.5106 29.8982 38.5539 29.5605 39.535 29.1017C38.7668 28.8994 38.3366 28.6182 38.3077 28.5991C37.6623 28.8851 37.0447 29.1011 36.3394 29.2286C35.4222 29.3945 34.4833 29.3908 33.5543 29.3272C33.0605 29.6176 32.5745 29.9108 32.0468 30.1155C33.4927 30.3586 34.9781 30.3562 36.4271 30.094Z" fill="white"/>
<path d="M36.4271 30.094L36.2492 29.11L36.2491 29.11L36.4271 30.094ZM39.535 29.1017L39.9586 30.0076L42.4599 28.838L39.7897 28.1347L39.535 29.1017ZM38.3077 28.5991L38.8579 27.7641L38.4019 27.4636L37.9026 27.6849L38.3077 28.5991ZM36.3394 29.2286L36.1615 28.2445L36.1614 28.2446L36.3394 29.2286ZM33.5543 29.3272L33.6226 28.3295L33.3139 28.3084L33.0473 28.4652L33.5543 29.3272ZM32.0468 30.1155L31.6851 29.1832L28.2941 30.4985L31.8809 31.1016L32.0468 30.1155ZM36.4271 30.094L36.605 31.0781C37.776 30.8664 38.9017 30.5018 39.9586 30.0076L39.535 29.1017L39.1114 28.1959C38.2061 28.6192 37.2452 28.9299 36.2492 29.11L36.4271 30.094ZM39.535 29.1017L39.7897 28.1347C39.153 27.967 38.8222 27.7406 38.8579 27.7641L38.3077 28.5991L37.7575 29.4342C37.851 29.4958 38.3806 29.8318 39.2803 30.0688L39.535 29.1017ZM38.3077 28.5991L37.9026 27.6849C37.3061 27.9492 36.7666 28.1351 36.1615 28.2445L36.3394 29.2286L36.5173 30.2126C37.3228 30.067 38.0184 29.8211 38.7128 29.5134L38.3077 28.5991ZM36.3394 29.2286L36.1614 28.2446C35.3602 28.3895 34.5141 28.3906 33.6226 28.3295L33.5543 29.3272L33.486 30.3249C34.4526 30.391 35.4843 30.3995 36.5175 30.2126L36.3394 29.2286ZM33.5543 29.3272L33.0473 28.4652C32.5315 28.7686 32.1215 29.0139 31.6851 29.1832L32.0468 30.1155L32.4084 31.0478C33.0276 30.8076 33.5895 30.4666 34.0612 30.1892L33.5543 29.3272ZM32.0468 30.1155L31.8809 31.1016C33.4379 31.3634 35.0397 31.3613 36.6052 31.0781L36.4271 30.094L36.2491 29.11C34.9166 29.3511 33.5475 29.3538 32.2126 29.1293L32.0468 30.1155Z" fill="#6B7385" mask="url(#path-9-inside-2_2074_1175)"/>
<path d="M29.2598 17.4106C29.2606 17.413 29.2619 17.4151 29.2627 17.4175L29.373 17.7231C29.4783 17.9742 29.5857 18.2248 29.6963 18.4741L30.0371 19.2192C30.3288 19.8392 30.6423 20.4597 30.999 21.0601V21.0591C31.0163 21.0882 31.0418 21.1351 31.0811 21.2075C31.1178 21.2753 31.1622 21.3585 31.2119 21.4458C31.265 21.539 31.328 21.6449 31.3975 21.7495C30.9898 22.7626 30.4181 23.7517 29.6963 24.5229C29.3048 24.5717 28.8769 24.5556 28.417 24.5483H28.416C27.6429 24.5374 26.8815 24.4703 26.1689 24.2769L26.168 24.2759C26.0253 24.2373 25.8834 24.1873 25.7314 24.1313C25.7185 24.1171 25.7062 24.1033 25.6953 24.0913C25.6781 24.0724 25.6644 24.0569 25.6533 24.0444C25.6417 24.0313 25.6377 24.0259 25.6377 24.0259H25.6367C25.2349 23.5209 24.8733 22.9993 24.5781 22.4458H24.5771C24.2206 21.7786 23.9558 21.0604 23.7656 20.3159V20.3149L23.7051 20.0503C23.9131 19.3218 24.5073 18.6144 25.085 17.9165L25.0869 17.9146C25.4122 17.5179 25.7519 17.1326 26.1035 16.7583C27.0709 16.9574 28.4828 17.2501 29.2598 17.4106Z" fill="white" stroke="#6B7385"/>
<path d="M37.6711 21.917C38.3299 22.7835 39.1135 23.7474 39.9807 24.4629C39.5396 25.6124 38.8705 26.6422 38.0471 27.5771C37.4216 27.8626 36.8036 28.096 36.1594 28.2129C35.4877 28.3346 34.7996 28.3712 34.1213 28.3213H34.1203C33.9041 28.3056 33.6736 28.2866 33.4963 28.2725C32.8276 27.8686 32.2504 27.2794 31.7531 26.6191L31.5353 26.3193L31.3361 26.0234C31.2029 25.8185 31.0763 25.6092 30.9582 25.3955C31.5239 24.7258 32.2158 23.7162 32.7599 22.4395C34.0067 22.5236 35.2565 22.391 36.4455 22.1768C36.8546 22.1029 37.2642 22.0171 37.6711 21.917Z" fill="white" stroke="#6B7385"/>
<path d="M59.493 28.0386L49.9579 61.3364H19.0546L9.51843 28.0386L20.3983 19.0698L20.4384 19.397C21.2755 26.3232 27.1738 31.5444 34.1571 31.5444C41.2943 31.5444 47.3415 25.9803 47.9276 18.8716V18.8706L47.955 18.5278L59.493 28.0386ZM48.1327 20.1108C46.9855 26.8134 41.0657 31.9047 34.1571 31.9048C27.3852 31.9048 21.6084 27.1185 20.2694 20.5952L20.1024 19.7817L19.4608 20.3101L10.1825 27.9585L9.92957 28.1665L10.0204 28.4819L19.2225 60.6138L19.326 60.9761H49.6864L49.7899 60.6138L58.9921 28.4819L59.0819 28.1665L58.829 27.9585L48.9432 19.8091L48.2782 19.2612L48.1327 20.1108Z" fill="black" stroke="#6B7385"/>
<path d="M41.1491 13.7969C40.6071 14.1751 39.9915 14.4495 39.3337 14.6377C38.519 13.9394 37.4424 13.4753 36.6364 13.0762L36.6345 13.0752L35.6725 12.6191C35.3503 12.4709 35.0266 12.3258 34.7018 12.1846H34.7009C34.6877 12.1789 34.6746 12.1712 34.6511 12.1592C34.4615 11.2722 34.3603 10.1559 34.3005 9.17773C34.3634 9.14238 34.4424 9.10204 34.5319 9.05957C34.652 9.00264 34.7777 8.94733 34.8845 8.90137C34.9593 8.86915 35.0415 8.83336 35.0964 8.80859L41.1491 13.7969ZM34.11 9.34473C34.0955 9.35708 34.0827 9.36604 34.0768 9.37012C34.0823 9.36639 34.0923 9.35528 34.1081 9.34277L34.11 9.34473Z" fill="white" stroke="#6B7385"/>
<path d="M42.1835 14.9175C42.717 15.168 43.9404 15.8747 44.9345 17.4351V17.436L44.9716 17.4937C45.1184 18.9356 44.8903 20.4222 44.4316 21.8286L44.3779 21.8745C43.4406 22.6533 42.2352 23.1755 41.0175 23.397C40.8561 23.2717 40.6984 23.1363 40.5449 22.9907L40.3456 22.7954C39.7917 22.2388 39.2944 21.6198 38.8066 20.9741L38.9326 20.7017C39.0823 20.3162 39.2196 19.9254 39.3427 19.5298L39.4609 19.1323C39.654 18.4554 39.8091 17.7572 39.8925 17.0444C39.9003 16.978 39.9127 16.8932 39.9286 16.7817C39.9439 16.675 39.9606 16.5509 39.9745 16.4214C39.9874 16.3019 39.9986 16.1681 40.0019 16.0308C40.7255 15.7988 41.4769 15.4506 42.1835 14.9175Z" fill="white" stroke="#6B7385"/>
<path d="M32.8931 9.65088C32.9593 10.8889 33.0977 11.8273 33.2095 12.4341C32.5118 12.9181 31.786 13.4166 31.1187 14.0298C30.5169 14.5825 29.9551 15.1891 29.4604 15.8511L26.3062 15.2134C26.3017 15.2042 26.2986 15.1946 26.2944 15.186C26.2825 15.1613 26.2728 15.1382 26.2632 15.1177L32.8931 9.65088Z" fill="white" stroke="#6B7385"/>
<mask id="path-17-inside-3_2074_1175" fill="white">
<path d="M45.8949 17.1753C46.1231 18.944 45.8058 20.7286 45.2155 22.4106C45.311 22.583 45.3947 22.7605 45.4443 22.9561C45.4807 23.0979 45.4991 23.2407 45.5076 23.3839C45.7269 22.9622 45.9276 22.5289 46.0989 22.0807C46.6308 20.7178 46.8947 19.3099 46.9253 17.9122L45.9388 17.0991C45.9245 17.1246 45.9092 17.1495 45.8949 17.1753Z"/>
</mask>
<path d="M45.8949 17.1753C46.1231 18.944 45.8058 20.7286 45.2155 22.4106C45.311 22.583 45.3947 22.7605 45.4443 22.9561C45.4807 23.0979 45.4991 23.2407 45.5076 23.3839C45.7269 22.9622 45.9276 22.5289 46.0989 22.0807C46.6308 20.7178 46.8947 19.3099 46.9253 17.9122L45.9388 17.0991C45.9245 17.1246 45.9092 17.1495 45.8949 17.1753Z" fill="white"/>
<path d="M45.8949 17.1753L45.0197 16.6916L44.8612 16.9783L44.9031 17.3032L45.8949 17.1753ZM45.2155 22.4106L44.2719 22.0794L44.1233 22.5029L44.3408 22.8954L45.2155 22.4106ZM45.4443 22.9561L44.4751 23.2022L44.4757 23.2046L45.4443 22.9561ZM45.5076 23.3839L44.5093 23.4431L44.724 27.0574L46.3947 23.8453L45.5076 23.3839ZM46.0989 22.0807L45.1673 21.7172L45.1649 21.7236L46.0989 22.0807ZM46.9253 17.9122L47.9251 17.9341L47.9357 17.4491L47.5613 17.1405L46.9253 17.9122ZM45.9388 17.0991L46.5748 16.3274L45.6511 15.5662L45.0663 16.6105L45.9388 17.0991ZM45.8949 17.1753L44.9031 17.3032C45.1055 18.8715 44.8284 20.494 44.2719 22.0794L45.2155 22.4106L46.159 22.7418C46.7832 20.9633 47.1407 19.0164 46.8867 17.0473L45.8949 17.1753ZM45.2155 22.4106L44.3408 22.8954C44.417 23.0329 44.4555 23.1251 44.4751 23.2022L45.4443 22.9561L46.4136 22.71C46.3338 22.3959 46.205 22.1331 46.0901 21.9258L45.2155 22.4106ZM45.4443 22.9561L44.4757 23.2046C44.4921 23.2685 44.5035 23.345 44.5093 23.4431L45.5076 23.3839L46.5058 23.3246C46.4946 23.1364 46.4693 22.9272 46.4129 22.7075L45.4443 22.9561ZM45.5076 23.3839L46.3947 23.8453C46.6281 23.3966 46.8455 22.9283 47.033 22.4379L46.0989 22.0807L45.1649 21.7236C45.0096 22.1296 44.8257 22.5277 44.6204 22.9224L45.5076 23.3839ZM46.0989 22.0807L47.0305 22.4443C47.6068 20.9674 47.892 19.4434 47.9251 17.9341L46.9253 17.9122L45.9255 17.8903C45.8974 19.1763 45.6548 20.4681 45.1674 21.7172L46.0989 22.0807ZM46.9253 17.9122L47.5613 17.1405L46.5748 16.3274L45.9388 17.0991L45.3028 17.8708L46.2893 18.6839L46.9253 17.9122ZM45.9388 17.0991L45.0663 16.6105C45.0649 16.6129 45.063 16.6162 45.054 16.6315C45.047 16.6436 45.0336 16.6663 45.0197 16.6916L45.8949 17.1753L46.7701 17.659C46.77 17.6593 46.7705 17.6584 46.7721 17.6555C46.7739 17.6525 46.776 17.6488 46.7796 17.6426C46.7855 17.6327 46.7984 17.6108 46.8113 17.5877L45.9388 17.0991Z" fill="#6B7385" mask="url(#path-17-inside-3_2074_1175)"/>
<mask id="path-19-inside-4_2074_1175" fill="white">
<path d="M25.073 25.0013C24.0967 23.8202 23.1493 22.4392 22.6405 20.1152C22.1032 19.6187 21.741 19.1746 21.4547 18.7227C21.4887 19.0828 21.5322 19.4412 21.5962 19.7956C22.0417 22.2573 23.2156 24.5126 24.8989 26.2949C24.889 25.8555 24.9387 25.4111 25.073 25.0013Z"/>
</mask>
<path d="M25.073 25.0013C24.0967 23.8202 23.1493 22.4392 22.6405 20.1152C22.1032 19.6187 21.741 19.1746 21.4547 18.7227C21.4887 19.0828 21.5322 19.4412 21.5962 19.7956C22.0417 22.2573 23.2156 24.5126 24.8989 26.2949C24.889 25.8555 24.9387 25.4111 25.073 25.0013Z" fill="white"/>
<path d="M25.073 25.0013L26.0233 25.3128L26.195 24.789L25.8438 24.3641L25.073 25.0013ZM22.6405 20.1152L23.6174 19.9014L23.5501 19.5942L23.3192 19.3808L22.6405 20.1152ZM21.4547 18.7227L22.2994 18.1875L20.4591 18.8167L21.4547 18.7227ZM21.5962 19.7956L20.6121 19.9731L20.6122 19.9736L21.5962 19.7956ZM24.8989 26.2949L24.1719 26.9815L25.957 28.8716L25.8986 26.2725L24.8989 26.2949ZM25.073 25.0013L25.8438 24.3641C24.9295 23.2582 24.081 22.0191 23.6174 19.9014L22.6405 20.1152L21.6637 20.3291C22.2175 22.8594 23.2638 24.3823 24.3023 25.6384L25.073 25.0013ZM22.6405 20.1152L23.3192 19.3808C22.8401 18.9381 22.5354 18.5599 22.2994 18.1875L21.4547 18.7227L20.61 19.2578C20.9467 19.7893 21.3663 20.2994 21.9619 20.8497L22.6405 20.1152ZM21.4547 18.7227L20.4591 18.8167C20.4947 19.1935 20.5415 19.5818 20.6121 19.9731L21.5962 19.7956L22.5803 19.618C22.523 19.3006 22.4827 18.9721 22.4503 18.6286L21.4547 18.7227ZM21.5962 19.7956L20.6122 19.9736C21.0934 22.6327 22.36 25.0631 24.1719 26.9815L24.8989 26.2949L25.6259 25.6083C24.0712 23.9622 22.99 21.8819 22.5802 19.6175L21.5962 19.7956ZM24.8989 26.2949L25.8986 26.2725C25.8907 25.9191 25.9318 25.5917 26.0233 25.3128L25.073 25.0013L24.1228 24.6898C23.9455 25.2305 23.8874 25.792 23.8991 26.3173L24.8989 26.2949Z" fill="#6B7385" mask="url(#path-19-inside-4_2074_1175)"/>
<mask id="path-21-inside-5_2074_1175" fill="white">
<path d="M36.3394 29.2286C35.4222 29.3945 34.4833 29.3908 33.5543 29.3272C33.0605 29.6176 32.5745 29.9107 32.0468 30.1155C33.4927 30.3586 34.9781 30.3562 36.4268 30.094C37.5102 29.8982 38.5536 29.5605 39.5347 29.1017C38.7665 28.8994 38.3359 28.6182 38.3074 28.5991C37.6619 28.8848 37.0444 29.1007 36.3394 29.2286Z"/>
</mask>
<path d="M36.3394 29.2286C35.4222 29.3945 34.4833 29.3908 33.5543 29.3272C33.0605 29.6176 32.5745 29.9107 32.0468 30.1155C33.4927 30.3586 34.9781 30.3562 36.4268 30.094C37.5102 29.8982 38.5536 29.5605 39.5347 29.1017C38.7665 28.8994 38.3359 28.6182 38.3074 28.5991C37.6619 28.8848 37.0444 29.1007 36.3394 29.2286Z" fill="white"/>
<path d="M36.3394 29.2286L36.5175 30.2126L36.5179 30.2125L36.3394 29.2286ZM33.5543 29.3272L33.6226 28.3295L33.3139 28.3084L33.0473 28.4652L33.5543 29.3272ZM32.0468 30.1155L31.6851 29.1831L28.2941 30.4985L31.8809 31.1016L32.0468 30.1155ZM36.4268 30.094L36.2489 29.11L36.2487 29.11L36.4268 30.094ZM39.5347 29.1017L39.9582 30.0076L42.4595 28.838L39.7894 28.1347L39.5347 29.1017ZM38.3074 28.5991L38.8621 27.7671L38.405 27.4624L37.9027 27.6847L38.3074 28.5991ZM36.3394 29.2286L36.1614 28.2446C35.3602 28.3895 34.5141 28.3906 33.6226 28.3295L33.5543 29.3272L33.486 30.3249C34.4526 30.391 35.4843 30.3995 36.5175 30.2126L36.3394 29.2286ZM33.5543 29.3272L33.0473 28.4652C32.5315 28.7686 32.1215 29.0139 31.6851 29.1831L32.0468 30.1155L32.4084 31.0478C33.0276 30.8076 33.5894 30.4667 34.0612 30.1892L33.5543 29.3272ZM32.0468 30.1155L31.8809 31.1016C33.4379 31.3634 35.0397 31.3613 36.6049 31.0781L36.4268 30.094L36.2487 29.11C34.9166 29.3511 33.5475 29.3538 32.2126 29.1293L32.0468 30.1155ZM36.4268 30.094L36.6047 31.0781C37.7756 30.8664 38.9013 30.5018 39.9582 30.0076L39.5347 29.1017L39.1111 28.1959C38.2058 28.6192 37.2449 28.9299 36.2489 29.11L36.4268 30.094ZM39.5347 29.1017L39.7894 28.1347C39.1512 27.9666 38.8212 27.7398 38.8621 27.7671L38.3074 28.5991L37.7527 29.4312C37.8506 29.4965 38.3817 29.8322 39.28 30.0688L39.5347 29.1017ZM38.3074 28.5991L37.9027 27.6847C37.3059 27.9488 36.766 28.1349 36.1609 28.2446L36.3394 29.2286L36.5179 30.2125C37.3227 30.0665 38.018 29.8208 38.7121 29.5136L38.3074 28.5991Z" fill="#6B7385" mask="url(#path-21-inside-5_2074_1175)"/>
<path d="M29.2598 17.4106C29.2606 17.413 29.2619 17.4151 29.2627 17.4175L29.373 17.7231C29.4783 17.9741 29.5857 18.2247 29.6963 18.4741L30.0371 19.2192C30.3288 19.8392 30.6423 20.4597 30.999 21.0601V21.0591C31.0163 21.0882 31.0418 21.1351 31.0811 21.2075C31.1178 21.2753 31.1622 21.3585 31.2119 21.4458C31.265 21.539 31.328 21.6449 31.3975 21.7495C30.9898 22.7626 30.4181 23.7517 29.6963 24.5229C29.3048 24.5717 28.8769 24.5556 28.417 24.5483H28.416C27.6429 24.5374 26.8815 24.4703 26.1689 24.2769L26.168 24.2759C26.0253 24.2373 25.8834 24.1873 25.7314 24.1313C25.7185 24.1171 25.7062 24.1033 25.6953 24.0913C25.6781 24.0724 25.6644 24.0569 25.6533 24.0444C25.6417 24.0313 25.6377 24.0259 25.6377 24.0259H25.6367C25.2349 23.5209 24.8733 22.9993 24.5781 22.4458H24.5771C24.2206 21.7786 23.9558 21.0604 23.7656 20.3159V20.3149L23.7051 20.0503C23.9131 19.3218 24.5073 18.6144 25.085 17.9165L25.0869 17.9146C25.4122 17.5179 25.7519 17.1326 26.1035 16.7583C27.0709 16.9574 28.4828 17.2501 29.2598 17.4106Z" fill="white" stroke="#6B7385"/>
<path d="M37.671 21.917C38.3298 22.7835 39.1135 23.7474 39.9806 24.4629C39.5395 25.6124 38.8704 26.6422 38.047 27.5771C37.4215 27.8626 36.8036 28.096 36.1593 28.2129C35.4875 28.3343 34.7998 28.3709 34.1212 28.3213H34.1202C33.904 28.3056 33.6735 28.2866 33.4962 28.2725C32.8275 27.8685 32.2503 27.2795 31.7531 26.6191L31.5353 26.3193C31.327 26.0216 31.1335 25.713 30.9581 25.3955C31.5238 24.7258 32.2158 23.7162 32.7599 22.4395C34.0066 22.5236 35.2561 22.391 36.4454 22.1768C36.8546 22.1029 37.2641 22.0171 37.671 21.917Z" fill="white" stroke="#6B7385"/>
<path d="M34.1572 31.7246C41.4982 31.7246 47.5143 26.0741 48.1067 18.8857L46.9256 17.9121C46.895 19.3095 46.6311 20.7177 46.0993 22.0807C45.9282 22.5289 45.7272 22.9621 45.5079 23.3838C45.4991 23.2406 45.4807 23.0978 45.4446 22.956C45.395 22.7605 45.311 22.5829 45.2158 22.4105C45.8065 20.7289 46.1234 18.9442 45.8952 17.1752C45.9092 17.1494 45.9248 17.1245 45.9391 17.0987L41.8862 13.7579C41.8821 13.795 41.8811 13.8327 41.8767 13.8698C41.1109 14.5305 40.1811 14.9488 39.2024 15.1937C38.443 14.4533 37.3409 13.9837 36.4145 13.525C35.7844 13.2169 35.1458 12.9241 34.5024 12.6442C34.4228 12.6095 34.3191 12.5466 34.2164 12.5102C33.963 11.4727 33.8484 10.0818 33.7858 8.96467C33.7926 8.95889 33.7998 8.95549 33.8062 8.94903C33.83 8.78002 34.7778 8.4107 34.9135 8.34439C34.9985 8.30256 35.0859 8.26414 35.1723 8.22368L34.5064 7.6748L33.1071 8.82831C33.2108 8.86401 33.2978 8.8953 33.3645 8.9191C33.4158 10.7572 33.6294 12.0334 33.7607 12.6598C32.9683 13.2141 32.178 13.7355 31.4574 14.3976C30.7984 15.0029 30.1927 15.6711 29.6768 16.4039L25.9575 15.6538C25.8933 15.4871 25.7933 15.3154 25.7375 15.1624C25.7134 15.0954 25.6919 15.027 25.6692 14.9597L20.2601 19.4186C21.098 26.3512 26.9981 31.7246 34.1572 31.7246ZM36.4268 30.094C34.9781 30.3562 33.4927 30.3582 32.0467 30.1154C32.5745 29.9107 33.0605 29.6175 33.5543 29.3271C34.483 29.3907 35.4222 29.3945 36.3394 29.2285C37.0443 29.101 37.6619 28.8847 38.3077 28.599C38.3363 28.6181 38.7664 28.8997 39.535 29.1017C38.5539 29.5607 37.5106 29.8981 36.4268 30.094ZM38.4662 20.5204C38.6607 20.0199 38.8331 19.5111 38.98 18.9949C39.1677 18.3369 39.3163 17.6656 39.3956 16.9858C39.4309 16.6859 39.5506 16.0782 39.483 15.664C40.3535 15.4273 41.2744 15.0355 42.1042 14.3479C42.1685 14.3806 42.3705 14.4533 42.3773 14.4564C42.9605 14.7271 44.2867 15.4868 45.3569 17.1677L45.4579 17.3269C45.6436 18.9374 45.3824 20.5874 44.8655 22.1191L44.6982 22.2585C43.6807 23.1039 42.3844 23.6616 41.0847 23.8942C41.018 23.9061 40.9446 23.9092 40.8755 23.9167C40.5576 23.6895 40.2658 23.4243 39.991 23.1481C39.3473 22.5013 38.7817 21.7807 38.2363 21.0496C38.2859 20.8727 38.4056 20.6775 38.4662 20.5204ZM36.3571 21.6852C36.8641 21.5934 37.3688 21.4845 37.8666 21.3519C38.6345 22.3765 39.5554 23.5361 40.5616 24.285C40.5351 24.373 40.5123 24.4774 40.5021 24.506C40.0247 25.8112 39.2711 26.9623 38.3522 27.9896C37.6775 28.3028 36.9852 28.5715 36.2486 28.7051C35.5355 28.834 34.8054 28.8731 34.0844 28.8204C33.813 28.8007 33.5196 28.7772 33.3366 28.7626C32.4378 28.2488 31.7125 27.4455 31.1255 26.6063C30.8402 26.1985 30.5817 25.7704 30.3556 25.3266C30.965 24.6631 31.8264 23.4797 32.4361 21.9144C33.741 22.0501 35.0713 21.9168 36.3571 21.6852ZM23.2027 19.991C23.4271 19.1071 24.1307 18.2849 24.6996 17.5983C25.0757 17.1392 25.4706 16.694 25.8814 16.2645C25.899 16.2462 25.9164 16.2292 25.9334 16.2128C26.9981 16.4312 28.9056 16.8284 29.6285 16.977C29.7112 17.1531 29.7652 17.3673 29.8336 17.5302C30.0417 18.0267 30.2597 18.5195 30.4892 19.0065C30.7773 19.6182 31.083 20.2232 31.4285 20.8047C31.5227 20.9636 31.7366 21.406 31.9648 21.6787C31.5166 22.8751 30.8382 24.0819 29.9407 24.993C29.448 25.0807 28.9056 25.0569 28.4091 25.0491C27.614 25.0379 26.8063 24.9682 26.0374 24.7594C25.8348 24.7043 25.6389 24.6329 25.4434 24.5594C25.359 24.4638 25.2781 24.3782 25.2454 24.3373C24.8312 23.8164 24.4497 23.2692 24.1361 22.6816C23.758 21.9735 23.4795 21.2176 23.2805 20.4409C23.2462 20.3076 23.2197 20.1726 23.1897 20.0386C23.1942 20.0222 23.1986 20.0066 23.2027 19.991ZM21.4547 18.7229C21.7411 19.1745 22.1032 19.6189 22.6405 20.1154C23.1493 22.4394 24.0967 23.8204 25.073 25.0015C24.9387 25.4109 24.889 25.8557 24.8989 26.2951C23.2156 24.5125 22.0417 22.2575 21.5962 19.7958C21.5323 19.4414 21.4887 19.083 21.4547 18.7229Z" fill="#192335"/>
<path d="M62.7786 54.4629C43.8124 57.4144 24.5045 57.4151 5.53833 54.4639C6.3152 49.8771 7.08821 45.2898 7.85767 40.7021C25.3292 43.4026 43.112 43.3963 60.5823 40.6826C61.3143 45.276 62.0456 49.8695 62.7786 54.4629Z" fill="#F50303" stroke="#6B7385"/>
<path d="M17.8257 50.4072C17.8084 50.4045 17.7912 50.4021 17.7739 50.3994C17.7944 50.3848 17.815 50.3696 17.8345 50.3516C17.8317 50.3701 17.8285 50.3887 17.8257 50.4072ZM15.4819 49.6982L15.4282 50.0049C15.3872 49.9975 15.3462 49.9899 15.3052 49.9824C15.3995 49.8783 15.4554 49.7518 15.479 49.625C15.5773 49.0952 15.6747 48.5649 15.7729 48.0352C15.6758 48.5894 15.5792 49.144 15.4819 49.6982ZM16.1841 45.8174C16.213 45.8226 16.2421 45.8268 16.271 45.832C16.2107 45.8998 16.1708 45.9767 16.1411 46.0527C16.1437 46.0391 16.1464 46.0254 16.1489 46.0117L16.1841 45.8174Z" fill="white" stroke="white"/>
<path d="M20.7188 50.6226L20.6944 50.8149C20.6504 50.8093 20.6065 50.803 20.5626 50.7974C20.6344 50.7075 20.6765 50.6089 20.7003 50.5181L20.7247 50.3921C20.8042 49.7917 20.8833 49.1909 20.963 48.5903C20.9847 48.426 21.0056 48.2615 21.0274 48.0972C20.9243 48.9391 20.8217 49.7824 20.7188 50.6226ZM21.2276 46.5933C21.2588 46.5972 21.2901 46.601 21.3214 46.605C21.2582 46.684 21.2178 46.7717 21.1924 46.8579C21.1955 46.8348 21.1991 46.8117 21.2022 46.7886L21.2276 46.5933Z" fill="white" stroke="white"/>
<path d="M23.9022 48.5532C23.875 48.6911 23.8545 48.8331 23.8407 48.978C23.7879 49.5334 23.8198 50.0641 23.994 50.5112C23.8534 50.22 23.773 49.8365 23.7919 49.3394L23.8134 49.0415C23.8325 48.8636 23.8643 48.7017 23.9022 48.5532ZM27.0712 49.8638L27.0848 49.6724C27.1083 49.6739 27.1317 49.6748 27.1552 49.6763C27.1149 49.7382 27.0892 49.8028 27.0712 49.8638Z" fill="white" stroke="white"/>
<path d="M30.1362 50.5483C30.1483 50.827 30.214 51.083 30.35 51.2993C30.231 51.1525 30.1471 50.9379 30.1362 50.6069V50.5483ZM30.2602 47.3247C30.2853 47.3256 30.3103 47.3268 30.3354 47.3276C30.2959 47.3879 30.2719 47.4522 30.2534 47.5142L30.2602 47.3247ZM33.3549 47.3843C33.3374 47.4123 33.3228 47.4412 33.31 47.4702L33.311 47.3843C33.3256 47.3843 33.3403 47.3842 33.3549 47.3843Z" fill="white" stroke="white"/>
<path d="M36.5519 51.2896L36.5607 51.6011C36.5207 51.6022 36.4806 51.6029 36.4406 51.604C36.4847 51.5288 36.513 51.4489 36.5266 51.3677L36.5373 51.2183C36.5281 50.8159 36.5181 50.4136 36.509 50.0112C36.5228 50.4373 36.5381 50.8637 36.5519 51.2896ZM38.9846 51.5044C38.966 51.5053 38.9475 51.5064 38.9289 51.5073C38.9474 51.4877 38.9638 51.4653 38.9807 51.4419C38.9818 51.4627 38.9834 51.4836 38.9846 51.5044ZM38.6516 47.2769C38.6462 47.2717 38.6414 47.2661 38.6359 47.2612C38.6408 47.261 38.6457 47.2605 38.6506 47.2603C38.6509 47.2658 38.6512 47.2713 38.6516 47.2769Z" fill="white" stroke="white"/>
<path d="M44.2643 49.3472C44.3208 49.861 44.3767 50.3726 44.4332 50.8872L44.4537 51.0786C44.413 51.0829 44.3724 51.0871 44.3317 51.0913C44.3933 50.9647 44.4117 50.8278 44.399 50.6997L44.2643 49.3472ZM46.4078 46.5835C46.4014 46.5782 46.3958 46.5719 46.3893 46.5669C46.3948 46.5662 46.4004 46.5657 46.4059 46.5649C46.4067 46.5711 46.407 46.5773 46.4078 46.5835Z" fill="white" stroke="white"/>
<path d="M48.9518 47.6973C48.9516 47.897 48.9678 48.1036 49.0006 48.3135C49.0834 48.8415 49.2383 49.3383 49.5143 49.7266C49.2671 49.4352 49.0778 49.0012 48.9879 48.3809C48.9515 48.1282 48.9425 47.9012 48.9518 47.6973Z" fill="white" stroke="white"/>
</svg>
