<svg width="80" height="80" viewBox="0 0 80 80" fill="none" xmlns="http://www.w3.org/2000/svg">
<path d="M54.8699 41.1657H25.831C22.8614 41.1657 20.4318 38.7361 20.4318 35.7664C20.4318 32.7968 22.8614 30.3672 25.831 30.3672H54.8699C57.8395 30.3672 60.2692 32.7968 60.2692 35.7664C60.2692 38.7361 57.8391 41.1657 54.8699 41.1657Z" fill="white"/>
<path d="M45.1119 13.452C45.1399 13.4543 45.1659 13.4605 45.1939 13.4605C45.6883 13.4605 46.0889 13.0598 46.0889 12.5654C46.0889 12.0714 45.6883 11.6708 45.1939 11.6708C44.6994 11.6708 44.2988 12.0714 44.2988 12.5654C44.2988 12.9924 44.5976 13.3475 44.9978 13.4371C44.5436 14.4727 42.9369 18.2056 42.2928 20.6283C42.2928 20.6283 41.2357 15.9123 39.5552 11.225C39.6739 11.2215 39.7877 11.1955 39.8907 11.1499C40.204 11.0109 40.4234 10.698 40.4234 10.333C40.4234 9.83898 40.0228 9.43799 39.5284 9.43799C39.0344 9.43799 38.6338 9.8386 38.6338 10.333C38.6338 10.8183 39.0206 11.2108 39.502 11.2254C37.8215 15.9127 36.7644 20.6287 36.7644 20.6287C36.1214 18.2102 34.5194 14.4861 34.0617 13.4428C34.4723 13.3613 34.781 12.9997 34.781 12.5654C34.781 12.0714 34.3808 11.6708 33.8863 11.6708C33.3919 11.6708 32.9917 12.0714 32.9917 12.5654C32.9917 13.0598 33.3919 13.4605 33.8863 13.4605C33.9062 13.4605 33.9254 13.4559 33.9449 13.4547C33.9633 16.0161 32.7439 21.0136 32.7439 21.0136C32.0086 18.8693 29.0041 15.1731 28.8555 14.9912C29.2534 14.9004 29.551 14.5458 29.551 14.1207C29.551 13.6267 29.1504 13.2261 28.6559 13.2261C28.1615 13.2261 27.7613 13.6267 27.7613 14.1207C27.7613 14.6148 28.1619 15.0154 28.6559 15.0154C28.723 15.0154 28.7877 15.0069 28.8501 14.9931C29.2266 17.2696 29.5399 25.7886 29.5399 25.7886H39.5288H49.5181C49.5181 25.7886 49.8325 17.2443 50.2094 14.9824C50.2094 14.9824 47.0678 18.8145 46.3141 21.0136C46.3133 21.0136 45.0927 16.013 45.1119 13.452Z" fill="#187F87"/>
<path d="M51.4635 14.1253C51.4648 13.6312 51.0652 13.2296 50.5709 13.2283C50.0766 13.2269 49.6748 13.6264 49.6734 14.1205C49.6721 14.6146 50.0717 15.0162 50.566 15.0176C51.0604 15.0189 51.4622 14.6194 51.4635 14.1253Z" fill="#097E52"/>
<path d="M21.8316 27.5613C21.8316 27.5613 19.2224 22.9112 15.6426 24.9731C15.6426 24.9731 16.0555 28.7428 21.8316 27.5613Z" fill="#6B7385"/>
<path d="M17.6889 18.5142C17.6889 18.5142 19.5115 23.5251 15.6143 24.8935C15.6143 24.8935 13.0253 22.1215 17.6889 18.5142Z" fill="#6B7385"/>
<path d="M18.577 31.6637C18.577 31.6637 14.854 27.8461 11.9296 30.7644C11.9296 30.7644 13.3049 34.2986 18.577 31.6637Z" fill="#6B7385"/>
<path d="M12.234 23.9956C12.234 23.9956 15.2914 28.3643 11.8809 30.6939C11.8809 30.6939 8.66463 28.6871 12.234 23.9956Z" fill="#6B7385"/>
<path d="M16.4951 36.4676C16.4951 36.4676 11.9112 33.7447 9.84192 37.319C9.84192 37.319 12.085 40.3779 16.4951 36.4676Z" fill="#6B7385"/>
<path d="M8.38393 30.7026C8.38393 30.7026 12.4681 34.1311 9.77684 37.2638C9.77684 37.2638 6.15 36.1582 8.38393 30.7026Z" fill="#6B7385"/>
<path d="M15.7284 41.6461C15.7284 41.6461 10.5953 40.2027 9.52063 44.191C9.52063 44.191 12.4792 46.5651 15.7284 41.6461Z" fill="#6B7385"/>
<path d="M6.40122 38.1777C6.40122 38.1777 11.2337 40.4323 9.44516 44.1549C9.44516 44.1549 5.65441 44.0262 6.40122 38.1777Z" fill="#6B7385"/>
<path d="M16.3281 46.8472C16.3281 46.8472 10.997 46.781 10.9913 50.9118C10.9913 50.9118 14.4626 52.4399 16.3281 46.8472Z" fill="#6B7385"/>
<path d="M6.41998 45.9116C6.41998 45.9116 11.6714 46.8377 10.9078 50.8965C10.9078 50.8965 7.2139 51.7528 6.41998 45.9116Z" fill="#6B7385"/>
<path d="M18.2522 51.7153C18.2522 51.7153 13.0862 53.0328 14.1505 57.0231C14.1505 57.0231 17.8987 57.6006 18.2522 51.7153Z" fill="#6B7385"/>
<path d="M8.44061 53.376C8.44061 53.376 13.753 52.9126 14.067 57.0293C14.067 57.0293 10.7194 58.8128 8.44061 53.376Z" fill="#6B7385"/>
<path d="M21.3731 55.9204C21.3731 55.9204 16.7226 58.5297 18.7823 62.1086C18.7823 62.1086 22.5527 61.6965 21.3731 55.9204Z" fill="#6B7385"/>
<path d="M12.3237 60.0636C12.3237 60.0636 17.3358 58.2398 18.7041 62.1359C18.7041 62.1359 15.9333 64.726 12.3237 60.0636Z" fill="#6B7385"/>
<path d="M25.4737 59.1738C25.4737 59.1738 21.6581 62.8987 24.5741 65.8224C24.5741 65.8224 28.1075 64.449 25.4737 59.1738Z" fill="#6B7385"/>
<path d="M17.8064 65.5176C17.8064 65.5176 22.1758 62.4587 24.504 65.8684C24.504 65.8684 22.4979 69.0866 17.8064 65.5176Z" fill="#6B7385"/>
<path d="M30.2771 61.2554C30.2771 61.2554 27.5552 65.8404 31.1296 67.9097C31.1296 67.9097 34.1873 65.6688 30.2771 61.2554Z" fill="#6B7385"/>
<path d="M24.514 69.3673C24.514 69.3673 27.9417 65.2824 31.0756 67.9729C31.0756 67.9729 29.9703 71.6008 24.514 69.3673Z" fill="#6B7385"/>
<path d="M35.4561 62.0215C35.4561 62.0215 34.0138 67.155 38.0014 68.2296C38.0014 68.2296 40.3748 65.2745 35.4561 62.0215Z" fill="#6B7385"/>
<path d="M31.989 71.3492C31.989 71.3492 34.2425 66.5175 37.9654 68.3049C37.9654 68.3049 37.8364 72.0957 31.989 71.3492Z" fill="#6B7385"/>
<path d="M25.6947 19.7999C25.6947 19.7999 20.441 18.8865 19.7788 22.9629C19.7788 22.9629 22.9625 25.0237 25.6947 19.7999Z" fill="#6B7385"/>
<path d="M58.7093 27.5511C58.7093 27.5511 61.4089 22.953 64.9477 25.0843C64.9477 25.0843 64.4609 28.8456 58.7093 27.5511Z" fill="#6B7385"/>
<path d="M63.0281 18.5869C63.0281 18.5869 61.1079 23.5611 64.9775 25.0057C64.9775 25.0057 67.6201 22.2846 63.0281 18.5869Z" fill="#6B7385"/>
<path d="M61.8827 31.7159C61.8827 31.7159 65.6796 27.9719 68.5466 30.9469C68.5466 30.9469 67.1023 34.4535 61.8827 31.7159Z" fill="#6B7385"/>
<path d="M68.3746 24.1738C68.3746 24.1738 65.2326 28.4816 68.5964 30.8779C68.5964 30.8779 71.8513 28.9343 68.3746 24.1738Z" fill="#6B7385"/>
<path d="M63.8704 36.5605C63.8704 36.5605 68.5064 33.9279 70.5055 37.5417C70.5055 37.5417 68.203 40.5561 63.8704 36.5605Z" fill="#6B7385"/>
<path d="M72.0926 30.9546C72.0926 30.9546 67.9422 34.3026 70.5714 37.4875C70.5714 37.4875 74.2197 36.453 72.0926 30.9546Z" fill="#6B7385"/>
<path d="M64.5352 41.7527C64.5352 41.7527 69.6955 40.41 70.692 44.4186C70.692 44.4186 67.6883 46.7341 64.5352 41.7527Z" fill="#6B7385"/>
<path d="M73.929 38.4673C73.929 38.4673 69.0532 40.6269 70.769 44.3836C70.769 44.3836 74.5609 44.3296 73.929 38.4673Z" fill="#6B7385"/>
<path d="M63.8344 46.9409C63.8344 46.9409 69.1658 46.9792 69.0904 51.1093C69.0904 51.1093 65.5899 52.5692 63.8344 46.9409Z" fill="#6B7385"/>
<path d="M73.759 46.1997C73.759 46.1997 68.4903 47.0231 69.1747 51.0957C69.1747 51.0957 72.8505 52.0241 73.759 46.1997Z" fill="#6B7385"/>
<path d="M61.8152 51.7715C61.8152 51.7715 66.9545 53.1897 65.8124 57.1585C65.8124 57.1585 62.0535 57.6625 61.8152 51.7715Z" fill="#6B7385"/>
<path d="M71.5924 53.6228C71.5924 53.6228 66.29 53.0552 65.8956 57.1653C65.8956 57.1653 69.208 59.0144 71.5924 53.6228Z" fill="#6B7385"/>
<path d="M58.6128 55.9141C58.6128 55.9141 63.2116 58.6137 61.0819 62.1517C61.0819 62.1517 57.3202 61.666 58.6128 55.9141Z" fill="#6B7385"/>
<path d="M67.5795 60.2335C67.5795 60.2335 62.6042 58.3121 61.1596 62.1806C61.1596 62.1806 63.8795 64.8243 67.5795 60.2335Z" fill="#6B7385"/>
<path d="M54.449 59.0859C54.449 59.0859 58.1911 62.8847 55.2184 65.7509C55.2184 65.7509 51.7129 64.3086 54.449 59.0859Z" fill="#6B7385"/>
<path d="M61.9906 65.5793C61.9906 65.5793 57.6821 62.4358 55.2873 65.7991C55.2873 65.7991 57.2306 69.0556 61.9906 65.5793Z" fill="#6B7385"/>
<path d="M49.6062 61.0732C49.6062 61.0732 52.2376 65.7108 48.6238 67.7099C48.6238 67.7099 45.6105 65.4097 49.6062 61.0732Z" fill="#6B7385"/>
<path d="M55.2096 69.2966C55.2096 69.2966 51.8623 65.1455 48.6767 67.7739C48.6767 67.7739 49.7104 71.423 55.2096 69.2966Z" fill="#6B7385"/>
<path d="M44.4134 61.7388C44.4134 61.7388 45.7549 66.8994 41.7474 67.896C41.7474 67.896 39.4319 64.8945 44.4134 61.7388Z" fill="#6B7385"/>
<path d="M47.6971 71.1323C47.6971 71.1323 45.5386 66.2573 41.7823 67.9719C41.7823 67.9719 41.8363 71.7638 47.6971 71.1323Z" fill="#6B7385"/>
<path d="M54.9985 19.7157C54.9985 19.7157 60.2691 18.9053 60.8517 22.994C60.8517 22.994 57.6281 24.9924 54.9985 19.7157Z" fill="#6B7385"/>
<path d="M27.4618 32.5303L28.273 34.9902L30.8631 35.0016L28.7743 36.5328L29.564 38.9996L27.4618 37.486L25.3596 38.9996L26.1497 36.5328L24.0605 35.0016L26.651 34.9902L27.4618 32.5303Z" fill="#6B7385"/>
<path d="M35.9299 32.5303L36.741 34.9902L39.3311 35.0016L37.2424 36.5328L38.0321 38.9996L35.9299 37.486L33.8281 38.9996L34.6178 36.5328L32.5286 35.0016L35.1191 34.9902L35.9299 32.5303Z" fill="#6B7385"/>
<path d="M44.3984 32.5303L45.2095 34.9902L47.7997 35.0016L45.7105 36.5328L46.5002 38.9996L44.3984 37.486L42.2962 38.9996L43.0859 36.5328L40.9971 35.0016L43.5876 34.9902L44.3984 32.5303Z" fill="#6B7385"/>
<path d="M52.8665 32.5303L53.6777 34.9902L56.2678 35.0016L54.1786 36.5328L54.9683 38.9996L52.8665 37.486L50.7643 38.9996L51.5541 36.5328L49.4653 35.0016L52.0558 34.9902L52.8665 32.5303Z" fill="#6B7385"/>
<path d="M37.9738 67.9716C37.9738 67.9716 37.7349 68.0041 37.2872 68.0658C36.8383 68.1182 36.178 68.1987 35.3317 68.2251C34.9092 68.2289 34.4416 68.2335 33.9326 68.2385C33.4229 68.209 32.8637 68.2102 32.2755 68.15C31.094 68.0681 29.7681 67.8559 28.3484 67.5043C26.929 67.1527 25.4155 66.6468 23.8912 65.9326C22.3666 65.2229 20.8216 64.3237 19.3556 63.21C17.8895 62.0993 16.4778 60.8045 15.2278 59.3254C13.9689 57.854 12.8767 56.2018 11.9701 54.4554C11.0774 52.7017 10.3769 50.8489 9.91009 48.9692C9.43749 47.0903 9.21727 45.1861 9.17591 43.3478C9.17247 43.118 9.16902 42.889 9.16595 42.6608C9.16021 42.4084 9.17744 42.2065 9.18204 41.9787C9.1897 41.7573 9.19697 41.5367 9.20463 41.3173C9.22378 41.0928 9.24255 40.8692 9.26131 40.6471C9.2931 40.2001 9.34748 39.7654 9.40953 39.3388C9.4597 38.9095 9.53973 38.4905 9.61671 38.0769C9.9254 36.4224 10.3942 34.8974 10.9361 33.5389C11.4715 32.1767 12.0938 30.9871 12.699 29.9707C13.3205 28.9631 13.9069 28.1163 14.4327 27.4522C14.6824 27.1106 14.9371 26.8303 15.1489 26.5798C15.3588 26.3274 15.5506 26.1244 15.7061 25.9601C16.0152 25.6304 16.1799 25.4546 16.1799 25.4546C16.1799 25.4546 16.0317 25.6445 15.7536 26.0003C15.4698 26.3508 15.088 26.8919 14.6135 27.5832C14.1378 28.2745 13.6154 29.15 13.0724 30.1786C12.5481 31.2181 12.0199 32.4202 11.5546 33.7672C11.0943 35.116 10.7124 36.6146 10.462 38.222C10.4018 38.6245 10.3383 39.0312 10.3046 39.4475C10.259 39.8631 10.2211 40.2824 10.2061 40.7033C10.1954 40.9144 10.1847 41.1265 10.1736 41.3398C10.1709 41.5593 10.1678 41.7799 10.1651 42.0016C10.1655 42.2169 10.1525 42.4605 10.1636 42.655C10.1717 42.8745 10.1797 43.0947 10.1874 43.3156C10.2563 45.0846 10.5332 46.8984 10.9855 48.6958C11.4443 50.4923 12.1287 52.2586 12.9916 53.9303C13.8468 55.6059 14.8804 57.1945 16.0765 58.6119C17.2695 60.0308 18.5785 61.3173 19.971 62.4099C21.3632 63.5014 22.8135 64.4275 24.2646 65.1639C25.7169 65.8981 27.1581 66.4603 28.5226 66.8713C28.8612 66.9839 29.1997 67.0693 29.531 67.1524C29.8619 67.2366 30.1844 67.3247 30.5038 67.3871C30.8228 67.4545 31.1334 67.5204 31.4352 67.584C31.7404 67.633 32.0365 67.6809 32.3237 67.7272C32.8982 67.8249 33.4393 67.8594 33.9403 67.9226C34.4462 67.9517 34.9108 67.9785 35.3305 68.0022C36.1692 68.024 36.831 68.0206 37.2818 68.0037C37.7333 67.9827 37.9738 67.9716 37.9738 67.9716Z" fill="#6B7385"/>
<path d="M41.0959 67.9712C41.0959 67.9712 41.3365 67.9823 41.7872 68.0037C42.238 68.021 42.8998 68.024 43.7385 68.0022C44.1583 67.9781 44.6228 67.9513 45.1287 67.9226C45.6297 67.8594 46.1705 67.8249 46.7453 67.7272C47.0326 67.6809 47.3286 67.633 47.6338 67.584C47.936 67.5201 48.2466 67.4545 48.5653 67.3871C48.8847 67.3251 49.2071 67.237 49.538 67.1524C49.8693 67.0689 50.2075 66.9839 50.5464 66.8713C51.911 66.4603 53.3525 65.8981 54.8044 65.1639C56.2555 64.4279 57.7059 63.5018 59.098 62.4099C60.4909 61.3177 61.7996 60.0309 62.9926 58.6119C64.1886 57.1945 65.2223 55.6055 66.0775 53.9304C66.9403 52.2587 67.6247 50.4923 68.0835 48.6958C68.5358 46.8984 68.8127 45.0847 68.8817 43.3157C68.8897 43.0947 68.8978 42.8745 68.9054 42.655C68.9165 42.4601 68.9035 42.2165 68.9039 42.0016C68.9008 41.7799 68.8981 41.5593 68.8955 41.3399C68.8847 41.1266 68.8736 40.9144 68.8629 40.7033C68.848 40.2824 68.81 39.8627 68.7645 39.4475C68.7312 39.0312 68.6672 38.6245 68.6071 38.222C68.3566 36.6146 67.9748 35.116 67.5144 33.7672C67.0487 32.4199 66.521 31.2181 65.9967 30.1787C65.4536 29.1496 64.9312 28.2741 64.4556 27.5832C63.981 26.8919 63.5992 26.3508 63.3154 26.0003C63.0374 25.6445 62.8892 25.4546 62.8892 25.4546C62.8892 25.4546 63.0538 25.6304 63.3629 25.9601C63.5184 26.1244 63.7106 26.3274 63.9201 26.5798C64.1319 26.8303 64.3866 27.111 64.6363 27.4522C65.1618 28.1163 65.7485 28.9631 66.3701 29.9707C66.9752 30.9871 67.5979 32.1771 68.1329 33.5389C68.6745 34.8974 69.1432 36.4224 69.4519 38.0769C69.5289 38.4905 69.6089 38.9095 69.6591 39.3388C69.7212 39.7658 69.7759 40.2005 69.8073 40.6471C69.8261 40.8692 69.8452 41.0928 69.864 41.3173C69.8717 41.5367 69.879 41.7569 69.8866 41.9787C69.8912 42.2065 69.9084 42.4084 69.9027 42.6608C69.8993 42.8886 69.8958 43.1177 69.8924 43.3478C69.851 45.1861 69.6312 47.0899 69.1582 48.9692C68.6913 50.8489 67.9912 52.7017 67.0981 54.4554C66.1916 56.2018 65.0993 57.8536 63.8405 59.3254C62.5904 60.8049 61.1788 62.0993 59.7127 63.21C58.2466 64.3237 56.7021 65.2229 55.177 65.9326C53.6532 66.6472 52.1392 67.1528 50.7199 67.5043C49.3002 67.8559 47.9743 68.0681 46.7932 68.15C46.2049 68.2102 45.6462 68.209 45.136 68.2385C44.627 68.2335 44.1594 68.2293 43.737 68.2251C42.891 68.1987 42.2303 68.1183 41.7815 68.0658C41.3349 68.0038 41.0959 67.9712 41.0959 67.9712Z" fill="#6B7385"/>
<path d="M23.2417 50.7578V49.6512H23.5791V46.615H23.2417V45.5085H26.089V46.615H25.4682V49.6512H26.0755V49.0305H27.4182V50.7578H23.2417Z" fill="#6B7385"/>
<path d="M27.6497 50.7578V49.6512H27.9871V46.615H27.6497V45.5085H32.204V47.5461H30.6927V46.615H29.8763V47.6811H30.47V48.4503H29.8763V49.6512H30.6927V48.5852H32.204V50.7578H27.6497Z" fill="#6B7385"/>
<path d="M37.412 49.6512H37.6819V50.7578H35.0371V49.6512H35.4419L35.3339 49.1115H34.4163L34.3084 49.6512H34.7132V50.7578H32.4057V49.6512H32.6756L33.8158 45.5085H36.2718L37.412 49.6512ZM34.5648 48.3963H35.1855L34.9089 47.0536H34.8414L34.5648 48.3963Z" fill="#6B7385"/>
<path d="M42.7786 49.071H42.4413V50.4204C42.2434 50.5329 41.9532 50.6341 41.5709 50.724C41.1931 50.8095 40.7837 50.8522 40.3429 50.8522C39.5018 50.8522 38.8428 50.6318 38.366 50.191C37.8892 49.7457 37.6508 49.0597 37.6508 48.1331C37.6508 47.184 37.887 46.4936 38.3593 46.0618C38.8361 45.63 39.5153 45.4141 40.3969 45.4141C40.8242 45.4141 41.2245 45.459 41.5979 45.549C41.9712 45.639 42.2524 45.7402 42.4413 45.8526V47.4652H40.7545V47.1481C40.7545 46.9591 40.714 46.8242 40.6331 46.7432C40.5566 46.6578 40.4329 46.615 40.262 46.615C40.091 46.615 39.9651 46.6578 39.8841 46.7432C39.8077 46.8242 39.7694 46.9591 39.7694 47.1481V49.1182C39.7694 49.3071 39.8077 49.4443 39.8841 49.5298C39.9651 49.6107 40.091 49.6512 40.262 49.6512C40.4329 49.6512 40.5566 49.6107 40.6331 49.5298C40.714 49.4443 40.7545 49.3071 40.7545 49.1182V49.071H40.3902V48.0657H42.7786V49.071Z" fill="#6B7385"/>
<path d="M45.4925 50.8522C44.7863 50.8522 44.2398 50.697 43.8529 50.3867C43.4706 50.0763 43.2794 49.5725 43.2794 48.8753V46.615H42.9421V45.5085H45.4385V46.615H45.1686V49.2194C45.1686 49.3679 45.2001 49.4781 45.2631 49.55C45.3306 49.6175 45.4295 49.6512 45.56 49.6512C45.6904 49.6512 45.7871 49.6175 45.8501 49.55C45.9176 49.4781 45.9513 49.3679 45.9513 49.2194V46.615H45.6814V45.5085H47.9957V46.615H47.6583V48.8753C47.6583 49.5725 47.4716 50.0763 47.0983 50.3867C46.725 50.697 46.1897 50.8522 45.4925 50.8522Z" fill="#6B7385"/>
<path d="M48.2403 50.7578V49.6512H48.5776V46.615H48.2403V45.5085H52.7945V47.5461H51.2832V46.615H50.4668V47.6811H51.0605V48.4503H50.4668V49.6512H51.2832V48.5852H52.7945V50.7578H48.2403Z" fill="#6B7385"/>
<path d="M35.9567 58.8544V57.7478H36.2941V54.7117H35.9567V53.6051H39.9915V55.3526H38.7972V54.7117H38.1832V55.8317H39.2021V56.6008H38.1832V57.7478H39.0671V58.8544H35.9567Z" fill="#6B7385"/>
<path d="M42.8376 58.9488C41.9875 58.9488 41.3308 58.7329 40.8675 58.3011C40.4087 57.8693 40.1793 57.1788 40.1793 56.2298C40.1793 54.417 41.0609 53.5107 42.8242 53.5107C43.2515 53.5107 43.6473 53.5624 44.0116 53.6659C44.3805 53.7693 44.6549 53.884 44.8348 54.01V55.6967H43.2155V55.2109C43.2155 55.04 43.1772 54.9141 43.1008 54.8331C43.0243 54.7521 42.9096 54.7117 42.7567 54.7117C42.6037 54.7117 42.489 54.7521 42.4126 54.8331C42.3361 54.9141 42.2979 55.04 42.2979 55.2109V57.2486C42.2979 57.4195 42.3361 57.5454 42.4126 57.6264C42.489 57.7074 42.6037 57.7478 42.7567 57.7478C42.9096 57.7478 43.0243 57.7074 43.1008 57.6264C43.1772 57.5454 43.2155 57.4195 43.2155 57.2486V56.702H44.8348V58.4495C44.6504 58.5755 44.376 58.6902 44.0116 58.7936C43.6518 58.8971 43.2605 58.9488 42.8376 58.9488Z" fill="#6B7385"/>
</svg>
