<svg width="80" height="80" viewBox="0 0 80 80" fill="none" xmlns="http://www.w3.org/2000/svg">
<path d="M40.1519 63.3944C54.9117 63.3944 66.8769 51.4292 66.8769 36.6694C66.8769 21.9095 54.9117 9.94434 40.1519 9.94434C25.392 9.94434 13.4268 21.9095 13.4268 36.6694C13.4268 51.4292 25.392 63.3944 40.1519 63.3944Z" fill="white"/>
<path d="M40.1519 64.705C24.6933 64.705 12.1165 52.1282 12.1165 36.6697C12.1165 21.2111 24.6933 8.63428 40.1519 8.63428C55.6109 8.63428 68.1877 21.2111 68.1877 36.6697C68.1877 52.1282 55.6109 64.705 40.1519 64.705ZM40.1519 11.2547C26.1383 11.2547 14.7372 22.6557 14.7372 36.6693C14.7372 50.6833 26.1383 62.084 40.1519 62.084C54.1659 62.084 65.5669 50.6829 65.5669 36.6693C65.5669 22.6557 54.1659 11.2547 40.1519 11.2547Z" fill="#192335"/>
<path d="M40.1536 13.6895C27.4792 13.6895 17.1699 23.9987 17.1699 36.6698C17.1699 49.341 27.4792 59.6502 40.1536 59.6502C52.8247 59.6502 63.1339 49.341 63.1339 36.6698C63.1339 23.9987 52.8247 13.6895 40.1536 13.6895ZM61.0636 42.36C60.3593 44.9447 59.1898 47.3394 57.6468 49.4425C57.578 49.5408 57.506 49.6325 57.4339 49.7275C56.782 50.5923 56.0613 51.408 55.2882 52.1615C55.2194 52.2303 55.1473 52.2991 55.0753 52.3679C54.0302 53.3605 52.887 54.2515 51.6585 55.0213C51.5897 55.0705 51.5176 55.1131 51.4456 55.1556C50.7543 55.5815 50.0402 55.9681 49.2999 56.312C49.2311 56.3448 49.159 56.3776 49.0869 56.4103C47.9928 56.9083 46.8528 57.3177 45.6702 57.6257C45.5981 57.6453 45.5293 57.665 45.4572 57.6814C44.7529 57.8615 44.0388 58.0024 43.3115 58.1105C43.2395 58.1203 43.1707 58.1302 43.0986 58.14C42.1355 58.271 41.1527 58.3398 40.1536 58.3398C39.9963 58.3398 39.8391 58.3365 39.6818 58.3333C39.6098 58.3333 39.5377 58.33 39.4689 58.3267C38.7417 58.3071 38.0275 58.2481 37.3232 58.1564C37.2511 58.1465 37.1791 58.1367 37.1103 58.1269C35.9375 57.9598 34.7975 57.701 33.6935 57.357C33.6214 57.3341 33.5494 57.3112 33.4806 57.2883C32.7468 57.0524 32.0294 56.7739 31.3349 56.4627C31.2628 56.43 31.1907 56.4005 31.1219 56.3677C29.9197 55.8141 28.7764 55.1524 27.7052 54.3989C27.6331 54.3498 27.561 54.2974 27.4922 54.245C26.7388 53.7044 26.0214 53.1115 25.3465 52.476C25.2745 52.4137 25.2057 52.3449 25.1336 52.2761C23.8265 51.0182 22.6767 49.5997 21.7169 48.047C21.6448 47.9323 21.5727 47.8144 21.5039 47.6965C20.5932 46.1666 19.8693 44.5156 19.3582 42.7761C19.2796 42.5205 19.2108 42.2585 19.1453 41.9997C18.7096 40.2929 18.4803 38.5076 18.4803 36.6698C18.4803 34.832 18.7096 33.0467 19.1453 31.3399C19.2108 31.0779 19.2796 30.8191 19.3582 30.5603C19.8693 28.8175 20.5965 27.1697 21.5039 25.6399C21.5727 25.522 21.6448 25.404 21.7169 25.2894C22.6767 23.7399 23.8265 22.3181 25.1336 21.0635C25.2057 20.9947 25.2745 20.9259 25.3465 20.8636C26.0214 20.2281 26.7388 19.6352 27.4922 19.0947C27.561 19.0423 27.6331 18.9898 27.7052 18.9407C28.7764 18.1872 29.9197 17.5255 31.1219 16.9719C31.1907 16.9391 31.2628 16.9097 31.3349 16.8769C32.0294 16.5657 32.7468 16.2872 33.4806 16.0514C33.5494 16.0284 33.6214 16.0055 33.6935 15.9826C34.7975 15.6386 35.9375 15.3798 37.1103 15.2127C37.1791 15.2029 37.2511 15.1931 37.3232 15.1833C38.0275 15.0915 38.7417 15.0326 39.4689 15.0129C39.5377 15.0096 39.6098 15.0064 39.6818 15.0064C39.8391 15.0031 39.9963 14.9998 40.1536 14.9998C41.1527 14.9998 42.1355 15.0686 43.0986 15.1996C43.1707 15.2095 43.2395 15.2193 43.3115 15.2291C44.0388 15.3372 44.7529 15.4781 45.4572 15.6583C45.5293 15.6746 45.5981 15.6943 45.6702 15.714C46.8528 16.0219 47.9928 16.4314 49.0869 16.9293C49.159 16.9621 49.2311 16.9948 49.2999 17.0276C50.0402 17.3716 50.7543 17.7581 51.4456 18.184C51.5176 18.2266 51.5897 18.2691 51.6585 18.3183C52.887 19.0881 54.0302 19.9792 55.0753 20.9718C55.1473 21.0405 55.2194 21.1093 55.2882 21.1781C56.0646 21.9316 56.782 22.7473 57.4339 23.6121C57.506 23.7038 57.578 23.7988 57.6468 23.8971C59.1898 26.0002 60.3593 28.3916 61.0636 30.9763C61.1422 31.258 61.211 31.5398 61.2765 31.828C61.6336 33.3841 61.8236 35.0057 61.8236 36.6698C61.8236 38.334 61.6336 39.9523 61.2765 41.5116C61.2143 41.7966 61.1422 42.0783 61.0636 42.36Z" fill="#192335"/>
<path d="M61.2765 31.8281C61.6336 33.3842 61.8236 35.0057 61.8236 36.6699C61.8236 38.334 61.6336 39.9523 61.2765 41.5117V34.4063V31.8281Z" fill="#6B7385"/>
<path d="M57.4339 34.4063V49.7276C56.782 50.5924 56.0613 51.4081 55.2881 52.1616V34.4063V21.1782C56.0645 21.9317 56.782 22.7474 57.4339 23.6122V34.4063Z" fill="#6B7385"/>
<path d="M51.4456 34.4064V55.1559C50.7544 55.5818 50.0402 55.9683 49.2999 56.3123V34.4064V17.0278C50.0402 17.3718 50.7544 17.7584 51.4456 18.1842V34.4064Z" fill="#6B7385"/>
<path d="M45.4572 34.4061V57.6812C44.7529 57.8614 44.0387 58.0023 43.3115 58.1104V57.9925V34.4061V15.229C44.0387 15.3371 44.7529 15.478 45.4572 15.6581V34.4061Z" fill="#6B7385"/>
<path d="M39.4689 57.9928V58.327C38.7416 58.3073 38.0275 58.2484 37.3232 58.1566V57.9928V34.4064V15.1835C38.0275 15.0918 38.7416 15.0328 39.4689 15.0132V34.4064V57.9928Z" fill="#6B7385"/>
<path d="M33.4805 34.4061V57.2882C32.7467 57.0523 32.0293 56.7738 31.3348 56.4626V34.4061V16.8768C32.0293 16.5656 32.7467 16.2871 33.4805 16.0513V34.4061Z" fill="#6B7385"/>
<path d="M27.4923 34.4062V54.245C26.7388 53.7045 26.0214 53.1115 25.3466 52.476V34.4062V20.8637C26.0214 20.2282 26.7388 19.6352 27.4923 19.0947V34.4062Z" fill="#6B7385"/>
<path d="M21.5039 34.4064V47.6967C20.5932 46.1669 19.8693 44.5158 19.3582 42.7763V34.4064V30.5605C19.8693 28.8177 20.5965 27.17 21.5039 25.6401V34.4064Z" fill="#6B7385"/>
<path d="M71.5313 72.2515C51.3096 64.6105 28.9946 64.6105 8.7728 72.2515C9.21734 69.8093 9.75525 67.3612 10.3872 64.9132C8.43703 63.3584 6.40859 61.8607 4.30383 60.4249C27.4054 51.6956 52.8984 51.6956 76 60.4249C74.119 61.9449 72.3025 63.5127 70.5525 65.1248C70.9564 67.5064 71.2824 69.8833 71.5313 72.2515Z" fill="#1BB333"/>
<path d="M45.3223 38.0091C51.0905 36.9202 50.9041 26.4849 50.9041 26.4849H46.5498H45.3809H39.8414H39.824H39.8067H34.2671H33.0983H28.745C28.745 26.4849 28.5579 36.9199 34.3258 38.0091C34.7543 39.1046 35.3275 39.8819 36.0918 40.0752C35.9359 40.1912 35.8323 40.3756 35.8323 40.5853C35.8323 40.9371 36.1177 41.2224 36.4698 41.2224H36.8148C36.8046 41.2683 36.7984 41.3155 36.7984 41.3643C36.7984 41.7158 37.0837 42.0011 37.4352 42.0011H38.1959C38.1959 42.446 38.5464 42.8276 39.0555 43.0252C38.5811 44.8472 37.394 46.7849 36.9619 47.4522H34.1158C33.5304 47.4522 33.055 47.9275 33.055 48.5142C33.055 49.1006 33.5304 49.5756 34.1158 49.5756H39.824H45.5326C46.118 49.5756 46.593 49.1003 46.593 48.5142C46.593 47.9275 46.1177 47.4522 45.5326 47.4522H42.6865C42.2544 46.7849 41.0672 44.8472 40.5929 43.0252C41.1029 42.8279 41.4525 42.4463 41.4525 42.0011H42.2131C42.5646 42.0011 42.85 41.7158 42.85 41.3643C42.85 41.3158 42.8434 41.2683 42.8336 41.2224H43.1785C43.531 41.2224 43.8164 40.9371 43.8164 40.5853C43.8164 40.3756 43.7135 40.1912 43.5569 40.0752C44.3202 39.8819 44.8938 39.1046 45.3223 38.0091ZM46.5681 27.7589H49.5947C49.4535 30.0507 48.8507 33.8477 47.0267 35.7022C46.6451 36.0907 46.2267 36.3761 45.7671 36.5631C46.4783 33.6672 46.5727 29.7496 46.5681 27.7589ZM32.621 35.7022C30.797 33.8477 30.1942 30.0507 30.053 27.7589H33.0796C33.075 29.7496 33.1694 33.6672 33.8806 36.5631C33.421 36.3761 33.0026 36.0907 32.621 35.7022Z" fill="#192335"/>
<path d="M20.6846 62.9283C20.6118 62.5693 20.257 62.5339 19.8236 62.5123C19.2107 62.4808 18.6204 62.3747 18.4569 61.6481C18.3007 60.9559 18.7698 60.4079 19.5999 60.2346C19.9963 60.152 20.3845 60.1507 20.776 60.2401C20.832 60.5255 20.888 60.8111 20.944 61.0965C20.7445 61.1495 20.545 61.2029 20.3458 61.2573C20.3235 61.1472 20.3013 61.0368 20.2787 60.9268C20.2567 60.8183 20.2292 60.7764 20.1152 60.764C19.9947 60.7528 19.8371 60.7735 19.7178 60.7984C19.3653 60.8717 19.1203 61.0676 19.1966 61.4204C19.2726 61.7733 19.6366 61.7955 20.1064 61.8352C20.6783 61.8889 21.2903 62.0131 21.4328 62.7501C21.5779 63.5046 21.0573 64.031 20.2643 64.1977C19.8033 64.2947 19.4312 64.2986 19.0499 64.2167C18.9831 63.9177 18.9162 63.6186 18.8494 63.3195C19.0443 63.2622 19.2392 63.2051 19.4345 63.1491C19.4594 63.2648 19.4846 63.3804 19.5095 63.4957C19.5331 63.6038 19.5599 63.6458 19.672 63.6572C19.7893 63.6677 19.9435 63.6526 20.0998 63.6195C20.4821 63.5393 20.7707 63.3562 20.6846 62.9283Z" fill="white"/>
<path d="M24.3322 63.4346C23.3036 63.6046 22.5348 63.0631 22.2923 61.7583C22.0195 60.2934 22.8974 59.6005 23.7455 59.4626C24.648 59.3139 25.5381 59.7263 25.7481 61.189C25.9377 62.5085 25.3435 63.2682 24.3322 63.4346ZM24.2772 62.8482C25.0166 62.7277 25.1214 62.0076 25.0159 61.3167C24.9262 60.731 24.6372 59.9245 23.8068 60.0601C23.0366 60.1876 22.9056 60.9161 23.0258 61.5975C23.1411 62.251 23.4392 62.9871 24.2772 62.8482Z" fill="white"/>
<path d="M28.5195 59.3784C27.7579 59.4665 27.444 60.0365 27.5557 60.9076C27.6717 61.8143 28.0475 62.3326 28.8582 62.2212C29.0224 62.2022 29.1727 62.1681 29.2802 62.1209C29.3821 62.0748 29.3945 62.0266 29.3827 61.9165C29.366 61.7622 29.349 61.6079 29.3323 61.4536C29.5347 61.4451 29.7368 61.4376 29.939 61.4304C29.973 61.7642 30.0074 62.098 30.0418 62.4318C29.7375 62.6323 29.2851 62.7516 28.9123 62.7945C27.733 62.9311 26.9995 62.366 26.819 61.0507C26.612 59.5461 27.5158 58.9129 28.4537 58.8061C28.812 58.7648 29.2399 58.7943 29.6205 58.9188C29.6543 59.2467 29.6884 59.5746 29.7221 59.9025C29.5193 59.9372 29.3169 59.9723 29.1144 60.0083C29.098 59.858 29.0813 59.7076 29.0649 59.5572C29.0528 59.4475 29.0296 59.4029 28.9172 59.3803C28.7989 59.3581 28.6404 59.3643 28.5195 59.3784Z" fill="white"/>
<path d="M32.7657 58.9832C32.0018 59.0382 31.6637 59.5938 31.7377 60.4688C31.8144 61.3795 32.1665 61.9138 32.9809 61.8378C33.1454 61.826 33.2971 61.7985 33.4065 61.7559C33.5103 61.714 33.5247 61.6665 33.5175 61.5561C33.5074 61.4011 33.4972 61.2465 33.4874 61.0915C33.6898 61.0919 33.892 61.0932 34.0941 61.0948C34.1137 61.4296 34.1334 61.7647 34.153 62.0995C33.8405 62.2866 33.3839 62.3859 33.0098 62.4127C31.8268 62.4979 31.1192 61.9013 30.9964 60.5792C30.8549 59.0667 31.7846 58.4738 32.7251 58.4079C33.0844 58.3824 33.5103 58.4302 33.8847 58.5714C33.9044 58.9006 33.9237 59.2295 33.9434 59.5588C33.7396 59.5846 33.5359 59.6108 33.3324 59.638C33.3226 59.487 33.3124 59.336 33.3026 59.1853C33.2954 59.0749 33.2741 59.0297 33.1627 59.0022C33.0451 58.9753 32.8869 58.9747 32.7657 58.9832Z" fill="white"/>
<path d="M35.2407 62.2058C35.2331 62.0489 35.2259 61.892 35.2184 61.7351C35.2829 61.7262 35.3475 61.7174 35.412 61.7085C35.5116 61.6925 35.5804 61.6545 35.5755 61.5382C35.5362 60.6373 35.4972 59.7361 35.4579 58.8353C35.3425 58.8343 35.2269 58.8336 35.1113 58.8333C35.1034 58.6685 35.0959 58.5041 35.088 58.3393C36.018 58.2954 36.9487 58.2649 37.8797 58.2476C37.8856 58.5696 37.8918 58.8913 37.8977 59.2133C37.6927 59.2307 37.4879 59.2487 37.2829 59.2673C37.2809 59.1897 37.2789 59.1121 37.277 59.0344C37.2743 58.924 37.2606 58.8546 37.0968 58.8588C36.7977 58.8667 36.4989 58.8762 36.1999 58.887C36.2116 59.2185 36.2238 59.5497 36.2356 59.8812C36.6971 59.8645 37.159 59.8514 37.6209 59.8413C37.6252 60.0391 37.6294 60.2367 37.6337 60.4345C37.1748 60.4444 36.7158 60.4578 36.2568 60.4742C36.27 60.8365 36.2831 61.1991 36.2958 61.5614C36.612 61.55 36.9284 61.5402 37.2445 61.532C37.3978 61.528 37.4077 61.4583 37.405 61.3416C37.4028 61.2447 37.4005 61.1477 37.3978 61.0511C37.5996 61.0596 37.8011 61.0691 38.0029 61.0789C38.0091 61.4242 38.0153 61.7691 38.0216 62.1144C37.0948 62.1318 36.1674 62.1619 35.2407 62.2058Z" fill="white"/>
<path d="M39.0276 61.6311C39.0921 61.6249 39.157 61.6186 39.2218 61.6124C39.3218 61.6003 39.3925 61.5652 39.3922 61.4489C39.3892 60.5471 39.386 59.6452 39.383 58.7434C39.2677 58.7378 39.1524 58.7326 39.0371 58.7277C39.0361 58.5629 39.0348 58.3981 39.0338 58.2333C39.5887 58.2294 40.1437 58.2304 40.6986 58.236C41.5962 58.2451 42.1567 58.5409 42.1354 59.3317C42.1204 59.9132 41.724 60.2179 41.3941 60.3404C41.5543 60.4013 41.6414 60.5022 41.7266 60.7017C41.8629 61.009 41.9982 61.3169 42.1318 61.6249C42.2435 61.6317 42.3556 61.6386 42.4673 61.6455C42.4624 61.8103 42.4578 61.9751 42.4529 62.1398C41.9706 62.1257 41.4881 62.1156 41.0056 62.109C41.0079 61.9521 41.0098 61.7949 41.0121 61.638C41.0691 61.6327 41.1264 61.6278 41.1834 61.6229C41.3191 61.6075 41.3495 61.5557 41.2981 61.4385C41.2087 61.2429 41.1189 61.0477 41.0285 60.8524C40.9479 60.6709 40.8657 60.5825 40.6573 60.5805C40.4765 60.5789 40.296 60.5776 40.1152 60.5769C40.1139 60.9143 40.1126 61.2517 40.1109 61.5892C40.2387 61.5954 40.3661 61.6019 40.4939 61.6088C40.4926 61.7736 40.4913 61.9384 40.4899 62.1035C40.0038 62.0995 39.5173 62.0992 39.0312 62.1028C39.0299 61.9452 39.0289 61.788 39.0276 61.6311ZM40.6387 60.0269C41.1474 60.0318 41.3787 59.81 41.3862 59.3969C41.3957 58.8734 41.0812 58.8033 40.5653 58.7988C40.4179 58.7974 40.2701 58.7965 40.1227 58.7958C40.1211 59.205 40.1194 59.6141 40.1178 60.0236C40.2911 60.0239 40.4647 60.0252 40.6387 60.0269Z" fill="white"/>
<path d="M47.1813 59.0206C46.4174 58.963 46.002 59.4632 45.9467 60.3395C45.889 61.2518 46.1586 61.832 46.9753 61.8759C47.1397 61.8883 47.294 61.8831 47.4084 61.8572C47.5171 61.831 47.5384 61.7861 47.5476 61.6761C47.5604 61.5214 47.5731 61.3668 47.5859 61.2122C47.7861 61.2423 47.9859 61.2731 48.1857 61.3046C48.1562 61.6387 48.1264 61.9732 48.0969 62.3073C47.7602 62.4466 47.2937 62.4777 46.9199 62.4495C45.737 62.3604 45.1254 61.6666 45.1978 60.3408C45.2797 58.8241 46.2854 58.3736 47.2256 58.4464C47.5849 58.4736 47.999 58.5836 48.3492 58.7782C48.3204 59.1065 48.2912 59.435 48.2624 59.7633C48.057 59.7587 47.8516 59.7551 47.6462 59.7518C47.6586 59.6011 47.6708 59.4504 47.6832 59.2994C47.6924 59.1893 47.6776 59.1412 47.5718 59.0976C47.4588 59.054 47.3025 59.0301 47.1813 59.0206Z" fill="white"/>
<path d="M49.1465 62.5699C49.1622 62.4136 49.1776 62.2573 49.1933 62.1011C49.2585 62.1017 49.3234 62.1024 49.3886 62.103C49.4895 62.1017 49.5638 62.0745 49.5756 61.9586C49.669 61.0616 49.762 60.1647 49.8554 59.2674C49.7411 59.2497 49.6271 59.2321 49.5127 59.2147C49.5291 59.0506 49.5455 58.8868 49.5622 58.7227C50.0503 58.7718 50.5381 58.8242 51.0252 58.8806C51.0072 59.0365 50.9892 59.1927 50.9711 59.3487C50.904 59.3467 50.8372 59.3451 50.77 59.3431C50.6662 59.3431 50.5898 59.3696 50.5744 59.5085C50.4785 60.3681 50.3825 61.2277 50.2865 62.0873C50.6111 62.1237 50.9358 62.1614 51.2601 62.201C51.3833 62.2161 51.4042 62.1424 51.4177 62.0326C51.4344 61.898 51.4511 61.763 51.4675 61.6284C51.6663 61.6667 51.8651 61.7054 52.0637 61.745C52.0142 62.1256 51.9647 62.5066 51.9153 62.8873C50.9938 62.7684 50.0706 62.6622 49.1465 62.5699Z" fill="white"/>
<path d="M54.0292 61.9156C53.9447 62.4797 54.2169 62.6906 54.6837 62.7647C55.1502 62.839 55.4801 62.6592 55.5594 62.1885C55.6767 61.4884 55.7939 60.7883 55.9112 60.0883C55.7962 60.0631 55.6809 60.0382 55.5656 60.0133C55.5922 59.8508 55.619 59.688 55.6455 59.5255C56.1225 59.6035 56.5988 59.6853 57.0748 59.7705C57.047 59.9251 57.0195 60.0798 56.9919 60.2344C56.9251 60.2282 56.858 60.2223 56.7911 60.2164C56.6814 60.2088 56.6073 60.2432 56.5874 60.3576C56.4681 61.0396 56.3486 61.7216 56.2293 62.4037C56.0963 63.1545 55.4474 63.4873 54.5675 63.3475C53.6174 63.1974 53.1837 62.7509 53.3118 61.8455C53.4127 61.1408 53.5136 60.4365 53.6145 59.7319C53.4989 59.7093 53.3832 59.687 53.2676 59.665C53.2905 59.5019 53.3131 59.3384 53.336 59.1753C53.8245 59.2434 54.3126 59.3152 54.8 59.3908C54.7761 59.5461 54.7519 59.7014 54.728 59.8567C54.6608 59.8521 54.5937 59.8478 54.5265 59.8432C54.4105 59.8374 54.3391 59.8619 54.3175 60.0057C54.2212 60.6422 54.1252 61.2791 54.0292 61.9156Z" fill="white"/>
<path d="M59.7165 60.2801C60.3953 60.4203 60.9702 60.7509 60.8018 61.5063C60.7186 61.8814 60.4365 62.0927 60.0844 62.1834C60.503 62.3865 60.7359 62.7492 60.6239 63.2487C60.4572 63.9874 59.8528 64.26 58.8969 64.0615C58.3567 63.9498 57.8158 63.8427 57.274 63.7404C57.3031 63.5861 57.3323 63.4319 57.3615 63.2772C57.4266 63.2835 57.4915 63.29 57.5567 63.2962C57.6576 63.3038 57.7339 63.2828 57.7559 63.1685C57.9265 62.283 58.0972 61.3975 58.2679 60.5117C58.1552 60.4842 58.0425 60.4567 57.9298 60.4292C57.9603 60.2673 57.9911 60.1052 58.0215 59.9434C58.5873 60.0515 59.1524 60.1632 59.7165 60.2801ZM58.7858 61.7114C58.9316 61.7405 59.0774 61.7703 59.2231 61.8001C59.7306 61.9046 59.9854 61.7222 60.05 61.4205C60.1374 61.011 59.8649 60.857 59.4767 60.7771C59.3155 60.744 59.1543 60.7112 58.9928 60.6788C58.924 61.0231 58.8549 61.3674 58.7858 61.7114ZM58.4448 63.4115C58.6266 63.4479 58.8087 63.4849 58.9902 63.5226C59.5579 63.6405 59.7984 63.426 59.8734 63.0784C59.9556 62.6974 59.7299 62.4337 59.2654 62.3374C59.0715 62.2974 58.8779 62.2578 58.6836 62.2188C58.6043 62.6165 58.5247 63.0142 58.4448 63.4115Z" fill="white"/>
<path d="M39.8135 29.981L40.5945 32.3498L43.0884 32.3606L41.0774 33.835L41.8377 36.2104L39.8135 34.7529L37.7897 36.2104L38.55 33.835L36.5386 32.3606L39.0329 32.3498L39.8135 29.981Z" fill="white"/>
</svg>
