<svg width="80" height="80" viewBox="0 0 80 80" fill="none" xmlns="http://www.w3.org/2000/svg">
<path d="M21.8824 46.1437C21.8824 55.3842 37.8781 63.0675 39.9027 64.0022C40.8756 63.5595 45.1235 61.5559 49.2411 58.5393C53.2025 55.6373 57.9251 51.131 57.9251 46.1437V20.6445C45.4293 20.5339 41.1515 16.5003 39.8908 14.772C38.5601 16.5732 34.2305 20.536 21.8824 20.6445V46.1437Z" fill="white" stroke="black" stroke-width="4" stroke-miterlimit="10"/>
<path d="M57.5834 34.3003H21.9813V42.3441H57.5834V34.3003Z" fill="#63227D"/>
<path d="M50.3961 57.7909H29.154L21.9813 49.7471H57.5834L50.3961 57.7909Z" fill="#63227D"/>
<path d="M57.7604 55.7681L57.4938 55.8954C55.1045 58.8406 52.2595 61.3578 48.8759 63.1044L58.2243 71.792L59.7407 65.4046L65.9999 63.4249L57.7604 55.7681Z" fill="#63227D"/>
<path d="M22.5434 55.7681L22.8099 55.8954C25.1992 58.8406 28.0442 61.3578 31.4279 63.1044L22.0795 71.792L20.5631 65.4046L14.3039 63.4249L22.5434 55.7681Z" fill="#63227D"/>
<path d="M27.4037 29.7546V27.753H28.6867V27.968H27.6628V28.6443H28.5906V28.8593H27.6628V29.7546H27.4037Z" fill="#1D1D1B"/>
<path d="M30.936 28.7538C30.936 28.9649 30.8953 29.1474 30.8138 29.3011C30.7323 29.4549 30.6205 29.5735 30.4784 29.6569C30.3363 29.7403 30.174 29.782 29.9915 29.782C29.809 29.782 29.6467 29.7403 29.5046 29.6569C29.3625 29.5735 29.2507 29.4549 29.1692 29.3011C29.0877 29.1474 29.047 28.9649 29.047 28.7538C29.047 28.5427 29.0877 28.3602 29.1692 28.2065C29.2507 28.0527 29.3625 27.9341 29.5046 27.8507C29.6467 27.7673 29.809 27.7256 29.9915 27.7256C30.174 27.7256 30.3363 27.7673 30.4784 27.8507C30.6205 27.9341 30.7323 28.0527 30.8138 28.2065C30.8953 28.3602 30.936 28.5427 30.936 28.7538ZM30.6853 28.7538C30.6853 28.5805 30.6543 28.4342 30.5923 28.3149C30.531 28.1957 30.4477 28.1055 30.3426 28.0442C30.2381 27.983 30.121 27.9523 29.9915 27.9523C29.8619 27.9523 29.7446 27.983 29.6394 28.0442C29.5349 28.1055 29.4517 28.1957 29.3897 28.3149C29.3284 28.4342 29.2977 28.5805 29.2977 28.7538C29.2977 28.9271 29.3284 29.0734 29.3897 29.1926C29.4517 29.3119 29.5349 29.4021 29.6394 29.4634C29.7446 29.5246 29.8619 29.5552 29.9915 29.5552C30.121 29.5552 30.2381 29.5246 30.3426 29.4634C30.4477 29.4021 30.531 29.3119 30.5923 29.1926C30.6543 29.0734 30.6853 28.9271 30.6853 28.7538Z" fill="#1D1D1B"/>
<path d="M33.1772 28.7538C33.1772 28.9649 33.1364 29.1474 33.0549 29.3011C32.9735 29.4549 32.8617 29.5735 32.7196 29.6569C32.5775 29.7403 32.4152 29.782 32.2327 29.782C32.0502 29.782 31.8879 29.7403 31.7458 29.6569C31.6037 29.5735 31.4919 29.4549 31.4104 29.3011C31.3289 29.1474 31.2881 28.9649 31.2881 28.7538C31.2881 28.5427 31.3289 28.3602 31.4104 28.2065C31.4919 28.0527 31.6037 27.9341 31.7458 27.8507C31.8879 27.7673 32.0502 27.7256 32.2327 27.7256C32.4152 27.7256 32.5775 27.7673 32.7196 27.8507C32.8617 27.9341 32.9735 28.0527 33.0549 28.2065C33.1364 28.3602 33.1772 28.5427 33.1772 28.7538ZM32.9264 28.7538C32.9264 28.5805 32.8954 28.4342 32.8334 28.3149C32.7721 28.1957 32.6889 28.1055 32.5837 28.0442C32.4792 27.983 32.3622 27.9523 32.2327 27.9523C32.1031 27.9523 31.9857 27.983 31.8806 28.0442C31.7761 28.1055 31.6928 28.1957 31.6308 28.3149C31.5695 28.4342 31.5389 28.5805 31.5389 28.7538C31.5389 28.9271 31.5695 29.0734 31.6308 29.1926C31.6928 29.3119 31.7761 29.4021 31.8806 29.4634C31.9857 29.5246 32.1031 29.5552 32.2327 29.5552C32.3622 29.5552 32.4792 29.5246 32.5837 29.4634C32.6889 29.4021 32.7721 29.3119 32.8334 29.1926C32.8954 29.0734 32.9264 28.9271 32.9264 28.7538Z" fill="#1D1D1B"/>
<path d="M33.4068 27.968V27.753H35.0117V27.968H34.3388V29.7546H34.0797V27.968H33.4068Z" fill="#1D1D1B"/>
<path d="M35.4116 29.7546V27.753H36.1597C36.3087 27.753 36.4317 27.7771 36.5285 27.8253C36.6253 27.8728 36.6974 27.937 36.7448 28.0178C36.7922 28.098 36.8158 28.1869 36.8158 28.2847C36.8158 28.3707 36.7995 28.4417 36.7667 28.4977C36.7347 28.5538 36.6922 28.5981 36.6393 28.6306C36.587 28.6632 36.5302 28.6873 36.469 28.703V28.7225C36.5344 28.7264 36.6003 28.7479 36.6664 28.787C36.7326 28.8261 36.788 28.8822 36.8326 28.9551C36.8771 29.0281 36.8994 29.1174 36.8994 29.2229C36.8994 29.3233 36.875 29.4135 36.8263 29.4937C36.7775 29.5738 36.7006 29.6373 36.5954 29.6843C36.4902 29.7312 36.3533 29.7546 36.1848 29.7546H35.4116ZM35.6707 29.5396H36.1848C36.354 29.5396 36.4742 29.509 36.5452 29.4477C36.617 29.3858 36.6528 29.3109 36.6528 29.2229C36.6528 29.1552 36.6344 29.0926 36.5975 29.0353C36.5605 28.9773 36.508 28.931 36.4397 28.8965C36.3714 28.8613 36.2906 28.8437 36.1973 28.8437H35.6707V29.5396ZM35.6707 28.6326H36.1513C36.2293 28.6326 36.2997 28.6183 36.3624 28.5896C36.4258 28.5609 36.4759 28.5205 36.5128 28.4684C36.5504 28.4163 36.5693 28.355 36.5693 28.2847C36.5693 28.1967 36.5365 28.1221 36.471 28.0608C36.4056 27.9989 36.3018 27.968 36.1597 27.968H35.6707V28.6326Z" fill="#1D1D1B"/>
<path d="M37.413 29.7546H37.1413L37.927 27.753H38.1945L38.9802 29.7546H38.7086L38.0691 28.0696H38.0524L37.413 29.7546ZM37.5133 28.9727H38.6083V29.1877H37.5133V28.9727Z" fill="#1D1D1B"/>
<path d="M39.3135 29.7546V27.753H39.5726V29.5396H40.5673V29.7546H39.3135Z" fill="#1D1D1B"/>
<path d="M40.9685 29.7546V27.753H41.2277V29.5396H42.2223V29.7546H40.9685Z" fill="#1D1D1B"/>
<path d="M45.173 28.3785H44.9138C44.8985 28.3088 44.8717 28.2475 44.8334 28.1947C44.7958 28.142 44.7498 28.0976 44.6955 28.0618C44.6418 28.0253 44.5823 27.998 44.5168 27.9797C44.4513 27.9615 44.3831 27.9523 44.312 27.9523C44.1825 27.9523 44.0651 27.983 43.9599 28.0442C43.8554 28.1055 43.7722 28.1957 43.7102 28.3149C43.6489 28.4342 43.6182 28.5805 43.6182 28.7538C43.6182 28.9271 43.6489 29.0734 43.7102 29.1926C43.7722 29.3119 43.8554 29.4021 43.9599 29.4634C44.0651 29.5246 44.1825 29.5552 44.312 29.5552C44.3831 29.5552 44.4513 29.5461 44.5168 29.5279C44.5823 29.5096 44.6418 29.4826 44.6955 29.4468C44.7498 29.4103 44.7958 29.3656 44.8334 29.3129C44.8717 29.2594 44.8985 29.1982 44.9138 29.1291H45.173C45.1535 29.2314 45.1179 29.323 45.0664 29.4038C45.0148 29.4845 44.9508 29.5533 44.8741 29.61C44.7975 29.666 44.7115 29.7087 44.6161 29.738C44.5213 29.7673 44.42 29.782 44.312 29.782C44.1295 29.782 43.9672 29.7403 43.8251 29.6569C43.683 29.5735 43.5712 29.4549 43.4897 29.3011C43.4082 29.1474 43.3675 28.9649 43.3675 28.7538C43.3675 28.5427 43.4082 28.3602 43.4897 28.2065C43.5712 28.0527 43.683 27.9341 43.8251 27.8507C43.9672 27.7673 44.1295 27.7256 44.312 27.7256C44.42 27.7256 44.5213 27.7403 44.6161 27.7696C44.7115 27.7989 44.7975 27.8419 44.8741 27.8986C44.9508 27.9546 45.0148 28.023 45.0664 28.1038C45.1179 28.184 45.1535 28.2755 45.173 28.3785Z" fill="#1D1D1B"/>
<path d="M45.5917 29.7546V27.753H45.8508V29.5396H46.8455V29.7546H45.5917Z" fill="#1D1D1B"/>
<path d="M48.651 27.753H48.9101V29.0783C48.9101 29.2151 48.8756 29.3373 48.8066 29.4448C48.7384 29.5517 48.6419 29.636 48.5172 29.6979C48.3925 29.7592 48.2463 29.7898 48.0784 29.7898C47.9105 29.7898 47.7642 29.7592 47.6396 29.6979C47.5149 29.636 47.4181 29.5517 47.3491 29.4448C47.2808 29.3373 47.2467 29.2151 47.2467 29.0783V27.753H47.5058V29.0587C47.5058 29.1565 47.5288 29.2435 47.5748 29.3197C47.6208 29.3953 47.6862 29.4549 47.7712 29.4986C47.8569 29.5416 47.9593 29.5631 48.0784 29.5631C48.1975 29.5631 48.2999 29.5416 48.3856 29.4986C48.4713 29.4549 48.5367 29.3953 48.582 29.3197C48.628 29.2435 48.651 29.1565 48.651 29.0587V27.753Z" fill="#1D1D1B"/>
<path d="M49.4275 29.7546V27.753H50.1756C50.3247 27.753 50.4476 27.7771 50.5445 27.8253C50.6413 27.8728 50.7134 27.937 50.7608 28.0178C50.8081 28.098 50.8318 28.1869 50.8318 28.2847C50.8318 28.3707 50.8154 28.4417 50.7827 28.4977C50.7507 28.5538 50.7082 28.5981 50.6552 28.6306C50.603 28.6632 50.5462 28.6873 50.4849 28.703V28.7225C50.5504 28.7264 50.6162 28.7479 50.6824 28.787C50.7486 28.8261 50.8039 28.8822 50.8485 28.9551C50.8931 29.0281 50.9154 29.1174 50.9154 29.2229C50.9154 29.3233 50.891 29.4135 50.8422 29.4937C50.7935 29.5738 50.7165 29.6373 50.6113 29.6843C50.5062 29.7312 50.3693 29.7546 50.2007 29.7546H49.4275ZM49.6867 29.5396H50.2007C50.37 29.5396 50.4901 29.509 50.5612 29.4477C50.6329 29.3858 50.6688 29.3109 50.6688 29.2229C50.6688 29.1552 50.6503 29.0926 50.6134 29.0353C50.5765 28.9773 50.5239 28.931 50.4557 28.8965C50.3874 28.8613 50.3066 28.8437 50.2133 28.8437H49.6867V29.5396ZM49.6867 28.6326H50.1673C50.2453 28.6326 50.3157 28.6183 50.3783 28.5896C50.4417 28.5609 50.4919 28.5205 50.5288 28.4684C50.5664 28.4163 50.5852 28.355 50.5852 28.2847C50.5852 28.1967 50.5525 28.1221 50.487 28.0608C50.4215 27.9989 50.3177 27.968 50.1756 27.968H49.6867V28.6326Z" fill="#1D1D1B"/>
<path d="M28.4036 23.5474V25.5491H27.9512V23.5474H28.4036Z" fill="#1D1D1B"/>
<path d="M29.1624 23.5474L29.6796 25.0682H29.6995L30.2177 23.5474H30.7192L29.9816 25.5491H29.3986L28.6599 23.5474H29.1624Z" fill="#1D1D1B"/>
<path d="M32.8225 24.5482C32.8225 24.7665 32.7783 24.9522 32.6898 25.1053C32.602 25.2585 32.4822 25.3754 32.3304 25.4562C32.1792 25.5364 32.0093 25.5764 31.8205 25.5764C31.6303 25.5764 31.4597 25.536 31.3085 25.4552C31.1574 25.3744 31.0379 25.2575 30.9502 25.1044C30.8624 24.9512 30.8185 24.7659 30.8185 24.5482C30.8185 24.3299 30.8624 24.1442 30.9502 23.9911C31.0379 23.838 31.1574 23.7214 31.3085 23.6412C31.4597 23.5604 31.6303 23.52 31.8205 23.52C32.0093 23.52 32.1792 23.5604 32.3304 23.6412C32.4822 23.7214 32.602 23.838 32.6898 23.9911C32.7783 24.1442 32.8225 24.3299 32.8225 24.5482ZM32.3638 24.5482C32.3638 24.4068 32.3412 24.2876 32.2959 24.1905C32.2513 24.0934 32.1883 24.0198 32.1068 23.9696C32.0253 23.9194 31.9299 23.8944 31.8205 23.8944C31.7111 23.8944 31.6157 23.9194 31.5342 23.9696C31.4527 24.0198 31.3893 24.0934 31.3441 24.1905C31.2995 24.2876 31.2772 24.4068 31.2772 24.5482C31.2772 24.6896 31.2995 24.8089 31.3441 24.9059C31.3893 25.003 31.4527 25.0767 31.5342 25.1268C31.6157 25.177 31.7111 25.2021 31.8205 25.2021C31.9299 25.2021 32.0253 25.177 32.1068 25.1268C32.1883 25.0767 32.2513 25.003 32.2959 24.9059C32.3412 24.8089 32.3638 24.6896 32.3638 24.5482Z" fill="#1D1D1B"/>
<path d="M33.1576 25.5491V23.5474H34.0019C34.1635 23.5474 34.3014 23.5744 34.4156 23.6285C34.5305 23.6819 34.618 23.7578 34.6779 23.8562C34.7385 23.954 34.7688 24.069 34.7688 24.2013C34.7688 24.3342 34.7381 24.4485 34.6768 24.5443C34.6155 24.6394 34.5267 24.7124 34.4104 24.7632C34.2948 24.8141 34.1548 24.8395 33.9904 24.8395H33.4251V24.4994H33.9172C34.0036 24.4994 34.0753 24.4883 34.1325 24.4661C34.1896 24.444 34.2321 24.4107 34.2599 24.3664C34.2885 24.3221 34.3028 24.2671 34.3028 24.2013C34.3028 24.1348 34.2885 24.0788 34.2599 24.0331C34.2321 23.9875 34.1892 23.953 34.1314 23.9295C34.0743 23.9054 34.0022 23.8934 33.9151 23.8934H33.61V25.5491H33.1576ZM34.3132 24.6381L34.845 25.5491H34.3456L33.8253 24.6381H34.3132Z" fill="#1D1D1B"/>
<path d="M34.874 23.5474H35.3808L35.8687 24.4094H35.8896L36.3776 23.5474H36.8843L36.1038 24.8414V25.5491H35.6545V24.8414L34.874 23.5474Z" fill="#1D1D1B"/>
<path d="M37.8124 25.5491V23.5474H38.6566C38.8189 23.5474 38.9572 23.5764 39.0714 23.6344C39.1856 23.6917 39.2727 23.7715 39.3326 23.8738C39.3932 23.9755 39.4235 24.0928 39.4235 24.2257C39.4235 24.3586 39.3929 24.4759 39.3316 24.5775C39.2703 24.6792 39.1815 24.7584 39.0651 24.815C38.9495 24.8717 38.8095 24.9001 38.6451 24.9001H38.107V24.5609H38.572C38.659 24.5609 38.7308 24.5469 38.7872 24.5189C38.8443 24.4902 38.8868 24.4508 38.9147 24.4006C38.9432 24.3498 38.9575 24.2915 38.9575 24.2257C38.9575 24.1592 38.9432 24.1012 38.9147 24.0517C38.8868 24.0015 38.8443 23.9628 38.7872 23.9354C38.7301 23.9074 38.6577 23.8934 38.5699 23.8934H38.2648V25.5491H37.8124Z" fill="#1D1D1B"/>
<path d="M39.7174 25.5491V23.5474H40.1698V24.3733H41.0882V23.5474H41.5396V25.5491H41.0882V24.7222H40.1698V25.5491H39.7174Z" fill="#1D1D1B"/>
<path d="M43.879 24.5482C43.879 24.7665 43.8347 24.9522 43.7463 25.1053C43.6585 25.2585 43.5387 25.3754 43.3868 25.4562C43.2357 25.5364 43.0657 25.5764 42.877 25.5764C42.6868 25.5764 42.5161 25.536 42.365 25.4552C42.2138 25.3744 42.0944 25.2575 42.0066 25.1044C41.9188 24.9512 41.875 24.7659 41.875 24.5482C41.875 24.3299 41.9188 24.1442 42.0066 23.9911C42.0944 23.838 42.2138 23.7214 42.365 23.6412C42.5161 23.5604 42.6868 23.52 42.877 23.52C43.0657 23.52 43.2357 23.5604 43.3868 23.6412C43.5387 23.7214 43.6585 23.838 43.7463 23.9911C43.8347 24.1442 43.879 24.3299 43.879 24.5482ZM43.4203 24.5482C43.4203 24.4068 43.3976 24.2876 43.3524 24.1905C43.3078 24.0934 43.2447 24.0198 43.1632 23.9696C43.0818 23.9194 42.9863 23.8944 42.877 23.8944C42.7676 23.8944 42.6722 23.9194 42.5907 23.9696C42.5092 24.0198 42.4458 24.0934 42.4005 24.1905C42.3559 24.2876 42.3336 24.4068 42.3336 24.5482C42.3336 24.6896 42.3559 24.8089 42.4005 24.9059C42.4458 25.003 42.5092 25.0767 42.5907 25.1268C42.6722 25.177 42.7676 25.2021 42.877 25.2021C42.9863 25.2021 43.0818 25.177 43.1632 25.1268C43.2447 25.0767 43.3078 25.003 43.3524 24.9059C43.3976 24.8089 43.4203 24.6896 43.4203 24.5482Z" fill="#1D1D1B"/>
<path d="M44.2141 25.5491V23.5474H45.656V23.8963H44.6665V24.3733H45.5818V24.7222H44.6665V25.2001H45.6601V25.5491H44.2141Z" fill="#1D1D1B"/>
<path d="M47.8055 23.5474V25.5491H47.4147L46.4837 24.2892H46.4681V25.5491H46.0157V23.5474H46.4127L47.3363 24.8063H47.3551V23.5474H47.8055Z" fill="#1D1D1B"/>
<path d="M48.6317 23.5474V25.5491H48.1793V23.5474H48.6317Z" fill="#1D1D1B"/>
<path d="M49.4281 23.5474L49.8596 24.2296H49.8763L50.3099 23.5474H50.8209L50.1678 24.5482L50.8355 25.5491H50.3152L49.8763 24.8659H49.8596L49.4208 25.5491H48.9025L49.5723 24.5482L48.9151 23.5474H49.4281Z" fill="#1D1D1B"/>
<path d="M39.895 9.59375H39.8979L39.9585 9.59961C40.0953 9.62361 40.2046 9.71372 40.2534 9.83496L40.2554 9.84082C40.3799 10.139 43.5727 16.8682 61.2622 16.8682C61.4376 16.8682 61.5918 16.9985 61.6284 17.1719L61.6362 17.249V47.0938C61.6362 50.0008 60.3879 52.7706 58.4458 55.3184C56.5044 57.8652 53.8945 60.1571 51.2368 62.0967C45.9222 65.9751 40.4906 68.3916 40.0532 68.583L40.0522 68.582L40.0415 68.5879C40.0077 68.6037 39.9596 68.6143 39.9058 68.6143C39.8452 68.6143 39.8002 68.605 39.7476 68.582C39.2898 68.379 33.8737 65.9654 28.5728 62.0967C25.9153 60.1572 23.3054 57.8652 21.3638 55.3184C19.4215 52.7706 18.1724 50.0008 18.1724 47.0938V17.2471C18.1724 17.0387 18.3448 16.8682 18.5454 16.8682C35.8372 16.8681 39.3106 10.3818 39.5474 9.8291L39.5493 9.83008C39.6108 9.68606 39.7546 9.59375 39.895 9.59375ZM39.7056 11.6338C39.266 11.7009 38.8919 11.9953 38.7134 12.4053L38.7036 12.4268L38.6968 12.4492C38.7689 12.2293 36.3083 18.1748 20.7222 18.1748C20.0074 18.1748 19.4353 18.7609 19.4351 19.4668V46.377C19.4351 49.2772 20.6762 51.9733 22.4956 54.3691C24.3155 56.7655 26.7385 58.8942 29.1665 60.6729C34.0225 64.2302 38.9725 66.4407 39.3823 66.6211V66.6191C39.5652 66.7033 39.7421 66.7295 39.9067 66.7295C40.0451 66.7294 40.2336 66.7068 40.4165 66.6201L40.4175 66.6211C40.8346 66.4397 45.7863 64.23 50.6421 60.6729C53.0701 58.8942 55.4934 56.7655 57.313 54.3691C59.1321 51.9734 60.3726 49.2771 60.3726 46.377V19.4668C60.3724 18.7645 59.8085 18.1748 59.0894 18.1748C51.2688 18.1748 46.7525 16.6855 44.2075 15.2324C41.6693 13.783 41.0681 12.3565 41.0962 12.4229H41.0952C40.9004 11.9417 40.4396 11.6257 39.9185 11.6191H39.8979L39.7056 11.6338Z" fill="black" stroke="#6B7385"/>
<path d="M42.6246 40.2135C42.3758 40.2117 42.1301 40.2109 41.8832 40.2557C41.3281 40.3562 40.7941 40.5766 40.2899 40.8241C40.1955 40.8705 39.5348 41.1278 39.5181 41.2456C39.5135 41.2504 39.5085 41.2525 39.5037 41.2565C39.5472 42.0352 39.6273 43.0044 39.804 43.7277C39.8756 43.7532 39.948 43.797 40.0032 43.8211C40.4517 44.0161 40.8968 44.2203 41.336 44.4352C41.9816 44.755 42.7498 45.0823 43.2792 45.5982C43.9614 45.4277 44.6094 45.1359 45.1433 44.6755C45.1733 44.4251 45.1948 44.1739 45.2083 43.9224C45.2444 43.2532 45.3417 42.1716 44.8722 41.6204C44.8441 41.5867 44.816 41.553 44.7879 41.5193C44.5258 41.3252 44.1921 41.0774 44.1338 41.0376C43.6648 40.7188 43.1611 40.4162 42.6246 40.2135Z" fill="white"/>
<path d="M45.4922 45.0842C45.4877 45.082 45.3468 45.0311 45.302 45.0083C44.7238 45.4876 44.0819 45.7605 43.475 45.9258C43.5222 46.2146 43.4387 46.6382 43.414 46.8472C43.3586 47.3212 43.2551 47.7891 43.1244 48.2477C43.0217 48.6077 42.9018 48.9623 42.766 49.3111C42.7236 49.4206 42.6403 49.5567 42.6058 49.6798C42.9862 50.1896 43.3803 50.6917 43.8291 51.1426C44.0206 51.3349 44.2238 51.5198 44.4456 51.6784C44.4936 51.6731 44.545 51.6712 44.5912 51.6627C45.4972 51.5007 46.4009 51.1118 47.1099 50.5227L47.2263 50.4254C47.5865 49.3578 47.7685 48.2074 47.6393 47.0849L47.5688 46.974C46.8229 45.8027 45.8985 45.273 45.4922 45.0842Z" fill="white"/>
<path d="M33.5729 44.3918C33.6453 44.795 33.7551 45.1907 33.8933 45.5761C33.932 45.6828 34.0018 45.8027 34.0466 45.9188L36.6391 46.4416C36.9985 45.9308 37.4208 45.465 37.8802 45.043C38.3828 44.5815 38.9332 44.2181 39.4857 43.8316C39.3942 43.3951 39.2454 42.5052 39.2096 41.224C39.031 41.1596 38.6449 41.0246 38.1733 40.8898C37.5242 40.7028 36.8287 40.5222 36.1476 40.5386C35.8243 40.7569 35.523 41.0071 35.2352 41.2699C34.614 41.8373 34.0509 42.4635 33.4915 43.0911C33.4771 43.5266 33.4936 43.9566 33.5729 44.3918Z" fill="white"/>
<path d="M47.9441 46.98C48.103 48.2129 47.8821 49.4569 47.4704 50.6292C47.537 50.7494 47.5953 50.8733 47.6301 51.0093C47.6553 51.1083 47.668 51.2077 47.6744 51.3075C47.8272 51.0136 47.9672 50.7117 48.0866 50.3993C48.6653 48.9163 48.7934 47.3567 48.5489 45.8687C48.4945 45.9862 48.4409 46.0949 48.3974 46.1867C48.2648 46.4647 48.0897 46.7119 47.9441 46.98Z" fill="white"/>
<path d="M33.3092 53.3367C33.3023 53.0303 33.337 52.7203 33.4307 52.4349C32.7501 51.6118 32.0899 50.6492 31.7352 49.0291C31.3607 48.683 31.1082 48.3734 30.9088 48.0586C30.9324 48.3095 30.9629 48.5594 31.0074 48.8063C31.3178 50.5222 32.136 52.094 33.3092 53.3367Z" fill="white"/>
<path d="M41.3443 55.9843C42.0997 55.8477 42.8267 55.6124 43.5105 55.2928C42.975 55.1519 42.675 54.9556 42.6551 54.9424C42.2052 55.1416 41.7748 55.2922 41.2833 55.3811C40.644 55.4967 39.9894 55.4941 39.342 55.4498C38.9979 55.6522 38.6592 55.8567 38.2911 55.9991C39.2993 56.1686 40.3345 56.167 41.3443 55.9843Z" fill="white"/>
<path d="M32.2368 43.2156C32.5487 43.0593 32.8774 42.9514 33.1935 42.8087L33.3328 42.7628C34.1267 41.8684 34.9433 40.9469 35.9337 40.2751C36.0176 39.8486 36.1359 39.4504 36.2889 39.0547C34.2709 39.9218 32.6028 41.5167 31.6769 43.5299C31.8594 43.4179 32.0453 43.3116 32.2368 43.2156Z" fill="white"/>
<path d="M42.9441 38.9187C42.4815 38.7426 42.0044 38.6105 41.5206 38.5137C41.6922 38.6845 41.8566 38.8622 42.0057 39.0532C42.1834 39.2797 42.3372 39.5208 42.4773 39.7715C43.4436 40.0661 44.3186 40.6558 45.1082 41.281C45.6517 41.3714 46.175 41.5109 46.6957 41.6857C45.735 40.473 44.4594 39.4961 42.9441 38.9187Z" fill="white"/>
<path d="M32.7774 50.8177C32.996 51.2275 33.2618 51.6089 33.5506 51.972C33.5734 52.0006 33.6299 52.0603 33.6885 52.1269C33.8249 52.1781 33.9615 52.228 34.1028 52.2664C34.6386 52.412 35.2017 52.4606 35.7558 52.4685C36.1017 52.4738 36.4799 52.4905 36.8234 52.4293C37.4489 51.7943 37.9218 50.9532 38.2343 50.119C38.0751 49.9291 37.926 49.6206 37.8603 49.51C37.6194 49.1047 37.4062 48.6832 37.2054 48.2567C37.0452 47.9175 36.8935 47.5737 36.7484 47.2278C36.7006 47.1143 36.663 46.9647 36.6054 46.8422C36.1014 46.7387 34.7721 46.4618 34.0299 46.3096C34.0182 46.321 34.006 46.3327 33.9938 46.3456C33.7076 46.6451 33.4326 46.9552 33.1703 47.2753C32.7737 47.7541 32.2833 48.327 32.1268 48.9432C32.1239 48.9541 32.121 48.9649 32.118 48.9758C32.139 49.0694 32.1573 49.1633 32.1814 49.2562C32.3196 49.797 32.5141 50.324 32.7774 50.8177Z" fill="white"/>
<path d="M41.2202 55.0164C41.7335 54.9233 42.2162 54.7361 42.6865 54.5178C43.327 53.8016 43.8522 52.9995 44.1851 52.0897C44.1923 52.0701 44.2082 51.9971 44.2265 51.9356C43.5252 51.4136 42.8833 50.6051 42.348 49.8911C42.0011 49.9837 41.6491 50.0595 41.2958 50.1235C40.3996 50.285 39.4723 50.3778 38.5628 50.2829C38.1376 51.3741 37.5371 52.199 37.1124 52.6613C37.27 52.9706 37.4503 53.269 37.649 53.5531C38.0583 54.1382 38.5638 54.6981 39.1903 55.0562C39.3176 55.0665 39.5224 55.0827 39.7115 55.0965C40.2142 55.1334 40.7229 55.1063 41.2202 55.0164Z" fill="white"/>
<path d="M49.5223 47.3773C49.5223 47.3717 49.5229 47.3662 49.5229 47.3606C49.5229 47.3349 49.521 47.3097 49.521 47.2842C49.5141 43.3475 47.1052 39.5794 43.2531 38.1105C41.5988 37.48 39.7848 37.3079 38.0419 37.6233C34.7006 38.2277 31.8554 40.5839 30.6448 43.7533C30.2273 44.845 30.0149 46.006 30.0064 47.1704C30.005 47.2341 30.0016 47.2969 30.0016 47.3606C30.0016 52.7514 34.3717 57.1213 39.7622 57.1213C45.1371 57.1213 49.4963 52.7766 49.5218 47.4076C49.5218 47.3972 49.5223 47.3871 49.5223 47.3773ZM48.086 50.399C47.9667 50.7114 47.8266 51.0133 47.6739 51.3072C47.6677 51.2074 47.655 51.108 47.6296 51.009C47.5948 50.873 47.5365 50.7491 47.4699 50.6289C47.8815 49.4568 48.1025 48.2128 47.9436 46.9797C48.0892 46.7116 48.2645 46.4641 48.3966 46.1861C48.4401 46.0943 48.4937 45.9856 48.5481 45.8681C48.7929 47.3561 48.6648 48.916 48.086 50.399ZM47.2264 50.4255L47.1099 50.5228C46.4007 51.1119 45.497 51.5008 44.5912 51.6629C44.5448 51.6713 44.4936 51.6732 44.4456 51.6785C44.2239 51.5202 44.0204 51.3353 43.8292 51.1427C43.3804 50.6918 42.9862 50.1894 42.6059 49.6799C42.6406 49.5568 42.7239 49.4208 42.7661 49.3112C42.9016 48.9621 43.0218 48.6075 43.1244 48.2478C43.2555 47.7892 43.3586 47.3211 43.4141 46.8474C43.4387 46.6384 43.5223 46.2148 43.4751 45.9259C44.082 45.7609 44.7238 45.4877 45.3021 45.0084C45.3469 45.0312 45.4877 45.0819 45.4922 45.0843C45.8989 45.2731 46.8232 45.8026 47.5691 46.9741L47.6396 47.085C47.7685 48.2078 47.5866 49.3579 47.2264 50.4255ZM35.2351 41.2709C35.5226 41.008 35.8242 40.7579 36.1475 40.5396C36.8286 40.5229 37.5238 40.7038 38.1732 40.8908C38.6448 41.0255 39.031 41.1605 39.2095 41.225C39.2453 42.5061 39.3941 43.3957 39.4856 43.8326C38.9331 44.2191 38.3824 44.5822 37.8801 45.044C37.4207 45.466 36.9984 45.9317 36.639 46.4426L34.0465 45.9198C34.0017 45.8036 33.9319 45.684 33.8932 45.5771C33.7548 45.1917 33.645 44.796 33.5728 44.3928C33.4935 43.9575 33.4771 43.5276 33.4914 43.0926C34.051 42.4645 34.6141 41.8382 35.2351 41.2709ZM44.7872 41.5197C44.8153 41.5534 44.8435 41.587 44.8716 41.6207C45.341 42.1719 45.2437 43.2536 45.2076 43.9228C45.1941 44.1742 45.1726 44.4254 45.1426 44.6758C44.6087 45.1363 43.9607 45.428 43.2785 45.5986C42.7491 45.0824 41.981 44.7554 41.3354 44.4355C40.8961 44.2207 40.4511 44.0167 40.0025 43.8215C39.9471 43.7973 39.8747 43.7533 39.8033 43.7281C39.6267 43.0048 39.5468 42.0353 39.5031 41.2568C39.5079 41.2528 39.5129 41.2505 39.5174 41.2459C39.5341 41.1282 40.1946 40.8709 40.2893 40.8245C40.7935 40.5773 41.3274 40.3566 41.8826 40.2561C42.1295 40.2115 42.3751 40.2123 42.6239 40.2139C43.1605 40.4165 43.6645 40.7189 44.1331 41.0383C44.1915 41.0778 44.5252 41.3255 44.7872 41.5197ZM32.1267 48.9423C32.2832 48.3261 32.7736 47.7532 33.1702 47.2744C33.4325 46.9543 33.7076 46.6442 33.9937 46.3447C34.0059 46.332 34.0181 46.3201 34.0298 46.3087C34.772 46.4606 36.1014 46.7378 36.6053 46.8413C36.6629 46.9638 36.7005 47.1134 36.7483 47.2269C36.8934 47.5728 37.0454 47.9166 37.2053 48.2558C37.4061 48.6823 37.6193 49.1038 37.8602 49.5091C37.926 49.6197 38.075 49.9282 38.2342 50.1181C37.9217 50.952 37.4491 51.7934 36.8233 52.4283C36.4799 52.4894 36.1016 52.4729 35.7557 52.4676C35.2017 52.4599 34.6385 52.4111 34.1028 52.2655C33.9616 52.2273 33.8251 52.1774 33.6885 52.126C33.6298 52.0594 33.5733 51.9997 33.5505 51.9711C33.2617 51.608 32.9959 51.2265 32.7773 50.8167C32.514 50.3234 32.3195 49.7963 32.1811 49.2547C32.1572 49.1619 32.1386 49.0677 32.1177 48.9743C32.1209 48.9643 32.1238 48.9534 32.1267 48.9423ZM39.1901 55.0564C38.5636 54.6983 38.058 54.1384 37.6488 53.5532C37.4498 53.2692 37.2697 52.9708 37.1122 52.6615C37.5368 52.1992 38.1373 51.374 38.5625 50.2831C39.472 50.378 40.3993 50.2849 41.2956 50.1236C41.6489 50.0597 42.0009 49.9839 42.3478 49.8913C42.8831 50.6053 43.5249 51.4138 44.2262 51.9358C44.2077 51.9971 44.1918 52.07 44.1849 52.0899C43.852 52.9997 43.3268 53.802 42.6862 54.5179C42.216 54.7362 41.7335 54.9235 41.22 55.0166C40.7229 55.1065 40.2139 55.1336 39.7113 55.097C39.5222 55.0829 39.3177 55.0667 39.1901 55.0564ZM45.1082 41.2812C44.3185 40.656 43.4438 40.0664 42.4772 39.7717C42.3372 39.5211 42.1833 39.2802 42.0056 39.0534C41.8566 38.8627 41.6919 38.685 41.5205 38.5139C42.0043 38.6108 42.4815 38.7428 42.9441 38.919C44.4594 39.4964 45.7349 40.4733 46.6956 41.686C46.175 41.5109 45.6516 41.3717 45.1082 41.2812ZM36.2886 39.0542C36.1356 39.45 36.0173 39.8481 35.9335 40.2746C34.943 40.9462 34.1264 41.8677 33.3325 42.7623L33.1932 42.8082C32.8771 42.9509 32.5484 43.0586 32.2365 43.2151C32.045 43.3111 31.8591 43.4178 31.6766 43.5294C32.6023 41.5162 34.2704 39.9213 36.2886 39.0542ZM31.7347 49.029C32.0893 50.6491 32.7498 51.6117 33.4301 52.4347C33.3365 52.7201 33.302 53.0302 33.3086 53.3365C32.1355 52.0941 31.3169 50.522 31.0066 48.8062C30.962 48.5592 30.9315 48.3094 30.9079 48.0585C31.1077 48.373 31.3602 48.6828 31.7347 49.029ZM39.3421 55.45C39.9895 55.4943 40.6442 55.497 41.2834 55.3813C41.7749 55.2924 42.2054 55.1418 42.6552 54.9426C42.6751 54.9559 42.9751 55.1521 43.5106 55.293C42.8268 55.6126 42.0998 55.8479 41.3444 55.9845C40.3346 56.1672 39.2991 56.1688 38.2912 55.9993C38.6591 55.8569 38.9978 55.6524 39.3421 55.45Z" fill="black"/>
<path d="M21.4508 34.3003H57.4377" stroke="black" stroke-width="4" stroke-miterlimit="10"/>
<path d="M21.8824 46.1437C21.8824 55.3842 37.8781 63.0675 39.9027 64.0022C40.8756 63.5595 45.1235 61.5559 49.2411 58.5393C53.2025 55.6373 57.9251 51.131 57.9251 46.1437V20.6445C45.4293 20.5339 41.1515 16.5003 39.8908 14.772C38.5601 16.5732 34.2305 20.536 21.8824 20.6445V46.1437Z" stroke="#6B7385" stroke-width="4" stroke-miterlimit="10"/>
</svg>
