<svg width="80" height="80" viewBox="0 0 80 80" fill="none" xmlns="http://www.w3.org/2000/svg">
<path d="M62.0282 38.0742V59.8564H18.9784V38.0742H62.0282Z" fill="white" stroke="#6B7385"/>
<path d="M32.3645 63.1919L32.3885 75.5302L39.8646 71.6545L47.3548 75.5026L47.3321 63.7975L32.3645 63.1919Z" fill="#0CAEF4"/>
<path d="M66.5002 12.3574V64.3213H13.804V12.3574H66.5002ZM15.4329 62.6924H64.8713V13.9863H15.4329V62.6924Z" fill="#6B7385" stroke="#6B7385"/>
<path d="M62.5284 16.3545H17.7751V60.3569H62.5284V16.3545Z" stroke="#6B7385" stroke-width="4" stroke-miterlimit="10"/>
<path d="M25.9472 54.6323H22.6643" stroke="#6B7385" stroke-width="8" stroke-miterlimit="10"/>
<path d="M57.5538 54.6323H54.2709" stroke="#6B7385" stroke-width="8" stroke-miterlimit="10"/>
<path d="M50.5841 15.7876C50.5841 21.5493 45.9137 26.2203 40.1521 26.2203C34.3904 26.2203 29.7194 21.5493 29.7194 15.7876C29.7194 10.026 34.3904 5.35498 40.1521 5.35498C45.9137 5.35531 50.5841 10.026 50.5841 15.7876Z" fill="white" stroke="#6B7385" stroke-width="4" stroke-miterlimit="10"/>
<path d="M40.1519 8.59912C44.1217 8.59943 47.3402 11.8177 47.3403 15.7876C47.3403 19.7576 44.1218 22.9761 40.1519 22.9761C36.182 22.976 32.9634 19.7574 32.9634 15.7876C32.9635 11.9416 35.9837 8.80162 39.7817 8.60889L40.1519 8.59912Z" fill="#AAF40C" stroke="#6B7385"/>
<mask id="path-9-inside-1_2074_1289" fill="white">
<path d="M25.3515 48.7632C24.8451 48.7632 24.365 48.721 23.9114 48.6366C23.463 48.5469 23.1175 48.4467 22.8748 48.3359V46.7692H24.6156C24.6156 46.9327 24.6525 47.0514 24.7264 47.1253C24.8002 47.1991 24.9347 47.2361 25.1299 47.2361C25.2935 47.2361 25.4095 47.2123 25.4781 47.1649C25.5519 47.1121 25.5889 47.0356 25.5889 46.9354C25.5889 46.851 25.5546 46.7798 25.486 46.7217C25.4174 46.6584 25.2987 46.5951 25.1299 46.5318L24.4494 46.2945C23.8639 46.0729 23.4419 45.8118 23.1834 45.5111C22.9302 45.2104 22.8036 44.8042 22.8036 44.2925C22.8036 43.6701 23.0067 43.198 23.4129 42.8762C23.8243 42.5491 24.5075 42.3856 25.4623 42.3856C25.9212 42.3856 26.3511 42.4331 26.752 42.528C27.1582 42.6177 27.4853 42.739 27.7332 42.892V44.3084H26.1507C26.1507 44.0446 25.9871 43.9127 25.6601 43.9127C25.5018 43.9127 25.3884 43.9338 25.3198 43.976C25.2565 44.013 25.2249 44.0815 25.2249 44.1818C25.2249 44.2714 25.2618 44.3427 25.3357 44.3954C25.4148 44.4482 25.5414 44.5036 25.7155 44.5616L26.4039 44.799C26.963 44.9889 27.3692 45.2368 27.6224 45.5428C27.8809 45.8434 28.0101 46.2391 28.0101 46.7297C28.0101 47.3996 27.7833 47.906 27.3296 48.2489C26.8813 48.5918 26.2219 48.7632 25.3515 48.7632Z"/>
<path d="M31.2055 48.7632C30.2402 48.7632 29.4937 48.51 28.9662 48.0036C28.444 47.4972 28.1829 46.6875 28.1829 45.5744C28.1829 44.4614 28.444 43.6516 28.9662 43.1452C29.4937 42.6388 30.2402 42.3856 31.2055 42.3856C32.1708 42.3856 32.9146 42.6388 33.4369 43.1452C33.9644 43.6516 34.2281 44.4614 34.2281 45.5744C34.2281 46.6875 33.9644 47.4972 33.4369 48.0036C32.9146 48.51 32.1708 48.7632 31.2055 48.7632ZM31.2055 47.3548C31.3849 47.3548 31.5194 47.3073 31.609 47.2123C31.6987 47.1174 31.7436 46.9697 31.7436 46.7692V44.3796C31.7436 44.1791 31.6987 44.0314 31.609 43.9365C31.5194 43.8415 31.3849 43.7941 31.2055 43.7941C31.0261 43.7941 30.8916 43.8415 30.802 43.9365C30.7123 44.0314 30.6674 44.1791 30.6674 44.3796V46.7692C30.6674 46.9749 30.7123 47.1253 30.802 47.2202C30.8916 47.3099 31.0261 47.3548 31.2055 47.3548Z"/>
<path d="M37.5672 48.7632C36.5702 48.7632 35.8001 48.51 35.2567 48.0036C34.7187 47.4972 34.4496 46.6875 34.4496 45.5744C34.4496 43.4485 35.4836 42.3856 37.5514 42.3856C38.0525 42.3856 38.5167 42.4463 38.944 42.5676C39.3766 42.6889 39.6984 42.8234 39.9094 42.9711V44.9493H38.0103V44.3796C38.0103 44.1791 37.9655 44.0314 37.8758 43.9365C37.7861 43.8415 37.6516 43.7941 37.4723 43.7941C37.2929 43.7941 37.1584 43.8415 37.0687 43.9365C36.979 44.0314 36.9342 44.1791 36.9342 44.3796V46.7692C36.9342 46.9697 36.979 47.1174 37.0687 47.2123C37.1584 47.3073 37.2929 47.3548 37.4723 47.3548C37.6516 47.3548 37.7861 47.3073 37.8758 47.2123C37.9655 47.1174 38.0103 46.9697 38.0103 46.7692V46.1283H39.9094V48.1777C39.6931 48.3254 39.3713 48.4599 38.944 48.5812C38.522 48.7026 38.0631 48.7632 37.5672 48.7632Z"/>
<path d="M43.2776 48.7632C42.2806 48.7632 41.5105 48.51 40.9671 48.0036C40.4291 47.4972 40.16 46.6875 40.16 45.5744C40.16 43.4485 41.194 42.3856 43.2618 42.3856C43.7629 42.3856 44.2272 42.4463 44.6544 42.5676C45.087 42.6889 45.4088 42.8234 45.6198 42.9711V44.9493H43.7207V44.3796C43.7207 44.1791 43.6759 44.0314 43.5862 43.9365C43.4966 43.8415 43.362 43.7941 43.1827 43.7941C43.0033 43.7941 42.8688 43.8415 42.7791 43.9365C42.6895 44.0314 42.6446 44.1791 42.6446 44.3796V46.7692C42.6446 46.9697 42.6895 47.1174 42.7791 47.2123C42.8688 47.3073 43.0033 47.3548 43.1827 47.3548C43.362 47.3548 43.4966 47.3073 43.5862 47.2123C43.6759 47.1174 43.7207 46.9697 43.7207 46.7692V46.1283H45.6198V48.1777C45.4035 48.3254 45.0817 48.4599 44.6544 48.5812C44.2324 48.7026 43.7735 48.7632 43.2776 48.7632Z"/>
<path d="M45.9179 48.6524V47.3548H46.3136V43.7941H45.9179V42.4964H51.259V44.886H49.4865V43.7941H48.5291V45.0443H49.2254V45.9463H48.5291V47.3548H49.4865V46.1046H51.259V48.6524H45.9179Z"/>
<path d="M51.5588 47.3548H51.9544V43.7941H51.5588V42.4964H55.1907C55.8712 42.4964 56.3908 42.6362 56.7495 42.9157C57.1082 43.1953 57.2876 43.649 57.2876 44.2767C57.2876 44.6302 57.2164 44.9361 57.0739 45.1946C56.9315 45.4531 56.7284 45.6324 56.4647 45.7327L56.4726 45.8118C56.979 45.8909 57.2322 46.2021 57.2322 46.7455V47.3548H57.6041V48.6524H55.0958V46.793C55.0958 46.5872 55.0641 46.4316 55.0008 46.3261C54.9428 46.2206 54.8478 46.1494 54.716 46.1125C54.5894 46.0755 54.4074 46.0571 54.17 46.0571V47.3548H54.6922V48.6524H51.5588V47.3548ZM54.5973 45.0917C54.7503 45.0917 54.8637 45.0522 54.9375 44.973C55.0166 44.8886 55.0562 44.7594 55.0562 44.5853V44.3005C55.0562 44.1264 55.0166 43.9998 54.9375 43.9207C54.8637 43.8363 54.7503 43.7941 54.5973 43.7941H54.17V45.0917H54.5973Z"/>
<path d="M32.3936 57.5347C31.4673 57.5347 30.7517 57.2995 30.2469 56.829C29.747 56.3585 29.4971 55.6062 29.4971 54.5721C29.4971 52.597 30.4577 51.6094 32.3789 51.6094C32.8445 51.6094 33.2757 51.6658 33.6727 51.7785C34.0746 51.8912 34.3736 52.0162 34.5696 52.1534V53.9913H32.8053V53.462C32.8053 53.2758 32.7636 53.1385 32.6803 53.0503C32.597 52.9621 32.472 52.918 32.3054 52.918C32.1387 52.918 32.0137 52.9621 31.9304 53.0503C31.8471 53.1385 31.8055 53.2758 31.8055 53.462V55.6822C31.8055 55.8684 31.8471 56.0056 31.9304 56.0938C32.0137 56.1821 32.1387 56.2262 32.3054 56.2262C32.472 56.2262 32.597 56.1821 32.6803 56.0938C32.7636 56.0056 32.8053 55.8684 32.8053 55.6822V55.0867H34.5696V56.9907C34.3687 57.128 34.0697 57.2529 33.6727 57.3657C33.2807 57.4784 32.8543 57.5347 32.3936 57.5347Z"/>
<path d="M34.8466 57.4318V56.2262H35.2142V52.918H34.8466V51.7124H37.9489V52.918H37.2726V56.2262H37.9342V55.5498H39.3972V57.4318H34.8466Z"/>
<path d="M42.1764 57.5347C41.4069 57.5347 40.8115 57.3657 40.39 57.0275C39.9734 56.6893 39.7651 56.1404 39.7651 55.3807V52.918H39.3975V51.7124H42.1176V52.918H41.8235V55.7557C41.8235 55.9174 41.8578 56.0375 41.9264 56.1159C42 56.1894 42.1078 56.2262 42.2499 56.2262C42.392 56.2262 42.4974 56.1894 42.566 56.1159C42.6395 56.0375 42.6763 55.9174 42.6763 55.7557V52.918H42.3822V51.7124H44.9038V52.918H44.5362V55.3807C44.5362 56.1404 44.3328 56.6893 43.926 57.0275C43.5193 57.3657 42.936 57.5347 42.1764 57.5347Z"/>
<path d="M45.1703 56.2262H45.5379V52.918H45.1703V51.7124H48.5446C49.1572 51.7124 49.6351 51.8373 49.9782 52.0873C50.3212 52.3372 50.4928 52.695 50.4928 53.1606C50.4928 53.4498 50.4242 53.6948 50.2869 53.8957C50.1497 54.0918 49.988 54.2413 49.8017 54.3442C49.6204 54.4422 49.444 54.5084 49.2724 54.5427V54.6162C49.6204 54.6505 49.9341 54.7608 50.2134 54.947C50.4928 55.1332 50.6324 55.4665 50.6324 55.9468C50.6324 56.4614 50.4389 56.8388 50.0517 57.0789C49.6645 57.3142 49.1621 57.4318 48.5446 57.4318H45.1703V56.2262ZM47.9933 54.1236C48.1354 54.1236 48.2408 54.0869 48.3094 54.0134C48.3829 53.935 48.4196 53.8149 48.4196 53.6531V53.3885C48.4196 53.2268 48.3829 53.1091 48.3094 53.0356C48.2408 52.9572 48.1354 52.918 47.9933 52.918H47.5963V54.1236H47.9933ZM48.0447 56.2262C48.1868 56.2262 48.2922 56.1894 48.3608 56.1159C48.4343 56.0375 48.4711 55.9174 48.4711 55.7557V55.4322C48.4711 55.2705 48.4343 55.1529 48.3608 55.0793C48.2922 55.0009 48.1868 54.9617 48.0447 54.9617H47.5963V56.2262H48.0447Z"/>
<path d="M23.0326 33.5677V33.3795L23.5403 33.2876L23.4703 33.3839V30.7143L23.549 30.78H22.7044L22.7919 30.7056L22.7044 31.2614H22.4856V30.513H24.8094V31.2614H24.5906L24.5031 30.7143L24.5906 30.78H23.746L23.8248 30.7143V33.3839L23.7591 33.2876L24.2624 33.3795V33.5677H23.0326Z"/>
<path d="M26.3877 33.6071C26.1368 33.6071 25.9107 33.5502 25.7094 33.4364C25.511 33.3226 25.3534 33.152 25.2367 32.9244C25.123 32.6939 25.0661 32.4094 25.0661 32.071C25.0661 31.8055 25.1011 31.5736 25.1711 31.3752C25.244 31.1738 25.3447 31.0061 25.4731 30.8719C25.6014 30.7377 25.7488 30.6385 25.9151 30.5743C26.0843 30.5072 26.2652 30.4736 26.4577 30.4736C26.6445 30.4736 26.8195 30.5057 26.9829 30.5699C27.1463 30.6312 27.2892 30.726 27.4118 30.8544C27.5343 30.9798 27.6291 31.1374 27.6962 31.327C27.7663 31.5167 27.8013 31.7369 27.8013 31.9878C27.8013 32.3321 27.7386 32.6253 27.6131 32.8675C27.4906 33.1067 27.3228 33.2905 27.1098 33.4189C26.8968 33.5444 26.6561 33.6071 26.3877 33.6071ZM26.4096 33.3226C26.5905 33.3226 26.7568 33.2774 26.9085 33.187C27.0631 33.0936 27.1857 32.9506 27.2761 32.7581C27.3695 32.5655 27.4162 32.3161 27.4162 32.0097C27.4162 31.718 27.3724 31.4802 27.2849 31.2964C27.2003 31.1126 27.0836 30.9769 26.9348 30.8894C26.7889 30.8019 26.624 30.7581 26.4402 30.7581C26.2623 30.7581 26.0974 30.8033 25.9457 30.8938C25.7969 30.9813 25.6773 31.1213 25.5869 31.3139C25.4964 31.5035 25.4512 31.7515 25.4512 32.0579C25.4512 32.3496 25.4935 32.5889 25.5781 32.7756C25.6656 32.9623 25.7809 33.1009 25.9238 33.1913C26.0697 33.2789 26.2316 33.3226 26.4096 33.3226Z"/>
<path d="M30.1037 30.5349L31.2197 30.513V30.7012L30.7865 30.7975L30.839 30.7056V32.4124C30.839 32.5203 30.8302 32.6312 30.8127 32.745C30.7952 32.8587 30.7631 32.9667 30.7164 33.0688C30.6698 33.1709 30.6041 33.2628 30.5195 33.3445C30.4349 33.4262 30.324 33.4904 30.1869 33.5371C30.0527 33.5838 29.8864 33.6071 29.688 33.6071C29.4663 33.6071 29.2839 33.5794 29.141 33.5239C28.998 33.4685 28.8871 33.3956 28.8084 33.3051C28.7296 33.2118 28.6741 33.114 28.6421 33.0119C28.61 32.9069 28.5895 32.8062 28.5808 32.7099C28.572 32.6137 28.5677 32.5305 28.5677 32.4605V30.7056L28.6202 30.7975L28.1913 30.7231V30.5349L29.3073 30.513V30.7012L28.8784 30.7975L28.9265 30.7056V32.4605C28.9265 32.5334 28.9294 32.6107 28.9353 32.6924C28.9411 32.7712 28.9557 32.8485 28.979 32.9244C29.0053 33.0002 29.0461 33.0688 29.1016 33.1301C29.157 33.1884 29.2314 33.2366 29.3248 33.2745C29.421 33.3095 29.5436 33.327 29.6924 33.327C29.8441 33.327 29.9681 33.308 30.0644 33.2701C30.1636 33.2322 30.2409 33.1811 30.2963 33.1169C30.3547 33.0528 30.397 32.9813 30.4232 32.9025C30.4495 32.8208 30.4655 32.7391 30.4714 32.6574C30.4772 32.5728 30.4801 32.4911 30.4801 32.4124V30.7056L30.5239 30.7931L30.1037 30.7231V30.5349Z"/>
<path d="M31.5226 33.5677V33.3795L31.9559 33.2876L31.899 33.3664V30.7231L31.9734 30.8062L31.5226 30.7231V30.5349L32.271 30.513H32.783C33.1127 30.513 33.3621 30.5816 33.5313 30.7187C33.7006 30.8558 33.7852 31.0542 33.7852 31.3139C33.7852 31.5531 33.7093 31.7486 33.5576 31.9003C33.4088 32.052 33.1812 32.1439 32.8749 32.176L32.8705 32.1323C32.9843 32.1439 33.0762 32.1702 33.1462 32.211C33.2192 32.249 33.2804 32.3015 33.33 32.3686C33.3796 32.4328 33.4278 32.513 33.4745 32.6093L33.8421 33.3533L33.7327 33.2789L34.1003 33.3795V33.5677H33.562L33.1594 32.7056C33.1039 32.5801 33.05 32.4838 32.9974 32.4167C32.9478 32.3467 32.8851 32.2971 32.8093 32.2679C32.7363 32.2388 32.6313 32.2242 32.4942 32.2242L32.1922 32.2285L32.2578 32.1673V33.3664L32.2009 33.2876L32.7086 33.3795V33.5677H31.5226ZM32.2578 32.0622L32.1922 31.966H32.6079C32.8676 31.966 33.0675 31.9135 33.2075 31.8084C33.3475 31.7005 33.4176 31.5429 33.4176 31.3358C33.4176 31.1549 33.3607 31.0178 33.2469 30.9244C33.1331 30.8281 32.9639 30.78 32.7392 30.78H32.1922L32.2578 30.7143V32.0622Z"/>
<path d="M36.4338 30.5349L37.4972 30.513V30.7012L37.0596 30.8019L37.1165 30.7187V33.5677H36.7138L35.0333 30.8938L35.0858 30.8894V33.3664L35.0202 33.2876L35.4622 33.3795V33.5677H34.4031V33.3795L34.8451 33.2876L34.7795 33.3664V30.7187L34.8276 30.7975L34.4031 30.7231V30.5349L35.2084 30.513L36.867 33.1432L36.8145 33.1476V30.7187L36.8758 30.7975L36.4338 30.7231V30.5349Z"/>
<path d="M40.2925 33.3752L40.1918 33.2876L40.6032 33.3795V33.5677H39.4653V33.3795L39.9205 33.292L39.8855 33.3533L39.6535 32.6531L39.7192 32.7056H38.38L38.4413 32.6531L38.1918 33.3445L38.1699 33.2964L38.6163 33.3795V33.5677H37.5397V33.3795L37.9424 33.2876L37.8505 33.3664L38.9183 30.5174L39.2815 30.5043L40.2925 33.3752ZM38.4894 32.4999L38.4544 32.443H39.6491L39.6097 32.5043L39.0364 30.7231L39.1196 30.7275L38.4894 32.4999Z"/>
<path d="M44.1818 30.7012L43.7441 30.8019L43.801 30.7056V33.3664L43.7441 33.2876L44.1818 33.3795V33.5677H43.0921V33.3795L43.5384 33.2876L43.4684 33.3664V30.9113L43.5253 30.9156L42.5319 32.7712L42.2912 32.7887L41.3284 30.9069L41.3809 30.9025V33.3664L41.3284 33.292L41.7616 33.3795V33.5677H40.7069V33.3795L41.1446 33.2876L41.0833 33.3664V30.7056L41.1446 30.8019L40.7069 30.7231V30.5349L41.5253 30.513L42.475 32.4342H42.4225L43.4028 30.5349L44.1818 30.513V30.7012Z"/>
<path d="M46.5959 32.85H46.8147V33.5677H44.6046V33.3795L45.0379 33.2876L44.981 33.3664V30.7231L45.0379 30.8019L44.6046 30.7231V30.5349L45.3355 30.513H46.7622V31.2045H46.5433L46.4646 30.7231L46.539 30.78H45.2742L45.3399 30.7143V31.9397L45.2742 31.8741H46.4427V32.1366H45.2742L45.3399 32.0622V33.3664L45.2742 33.3008H46.5959L46.5171 33.3664L46.5959 32.85Z"/>
<path d="M49.3534 30.5349L50.4168 30.513V30.7012L49.9792 30.8019L50.0361 30.7187V33.5677H49.6335L47.9529 30.8938L48.0055 30.8894V33.3664L47.9398 33.2876L48.3818 33.3795V33.5677H47.3227V33.3795L47.7648 33.2876L47.6991 33.3664V30.7187L47.7472 30.7975L47.3227 30.7231V30.5349L48.128 30.513L49.7866 33.1432L49.7341 33.1476V30.7187L49.7954 30.7975L49.3534 30.7231V30.5349Z"/>
<path d="M51.1412 33.5677V33.3795L51.6489 33.2876L51.5789 33.3839V30.7143L51.6576 30.78H50.813L50.9005 30.7056L50.813 31.2614H50.5942V30.513H52.918V31.2614H52.6992L52.6117 30.7143L52.6992 30.78H51.8546L51.9334 30.7143V33.3839L51.8677 33.2876L52.371 33.3795V33.5677H51.1412Z"/>
</mask>
<path d="M25.3515 48.7632C24.8451 48.7632 24.365 48.721 23.9114 48.6366C23.463 48.5469 23.1175 48.4467 22.8748 48.3359V46.7692H24.6156C24.6156 46.9327 24.6525 47.0514 24.7264 47.1253C24.8002 47.1991 24.9347 47.2361 25.1299 47.2361C25.2935 47.2361 25.4095 47.2123 25.4781 47.1649C25.5519 47.1121 25.5889 47.0356 25.5889 46.9354C25.5889 46.851 25.5546 46.7798 25.486 46.7217C25.4174 46.6584 25.2987 46.5951 25.1299 46.5318L24.4494 46.2945C23.8639 46.0729 23.4419 45.8118 23.1834 45.5111C22.9302 45.2104 22.8036 44.8042 22.8036 44.2925C22.8036 43.6701 23.0067 43.198 23.4129 42.8762C23.8243 42.5491 24.5075 42.3856 25.4623 42.3856C25.9212 42.3856 26.3511 42.4331 26.752 42.528C27.1582 42.6177 27.4853 42.739 27.7332 42.892V44.3084H26.1507C26.1507 44.0446 25.9871 43.9127 25.6601 43.9127C25.5018 43.9127 25.3884 43.9338 25.3198 43.976C25.2565 44.013 25.2249 44.0815 25.2249 44.1818C25.2249 44.2714 25.2618 44.3427 25.3357 44.3954C25.4148 44.4482 25.5414 44.5036 25.7155 44.5616L26.4039 44.799C26.963 44.9889 27.3692 45.2368 27.6224 45.5428C27.8809 45.8434 28.0101 46.2391 28.0101 46.7297C28.0101 47.3996 27.7833 47.906 27.3296 48.2489C26.8813 48.5918 26.2219 48.7632 25.3515 48.7632Z" fill="#6B7385"/>
<path d="M31.2055 48.7632C30.2402 48.7632 29.4937 48.51 28.9662 48.0036C28.444 47.4972 28.1829 46.6875 28.1829 45.5744C28.1829 44.4614 28.444 43.6516 28.9662 43.1452C29.4937 42.6388 30.2402 42.3856 31.2055 42.3856C32.1708 42.3856 32.9146 42.6388 33.4369 43.1452C33.9644 43.6516 34.2281 44.4614 34.2281 45.5744C34.2281 46.6875 33.9644 47.4972 33.4369 48.0036C32.9146 48.51 32.1708 48.7632 31.2055 48.7632ZM31.2055 47.3548C31.3849 47.3548 31.5194 47.3073 31.609 47.2123C31.6987 47.1174 31.7436 46.9697 31.7436 46.7692V44.3796C31.7436 44.1791 31.6987 44.0314 31.609 43.9365C31.5194 43.8415 31.3849 43.7941 31.2055 43.7941C31.0261 43.7941 30.8916 43.8415 30.802 43.9365C30.7123 44.0314 30.6674 44.1791 30.6674 44.3796V46.7692C30.6674 46.9749 30.7123 47.1253 30.802 47.2202C30.8916 47.3099 31.0261 47.3548 31.2055 47.3548Z" fill="#6B7385"/>
<path d="M37.5672 48.7632C36.5702 48.7632 35.8001 48.51 35.2567 48.0036C34.7187 47.4972 34.4496 46.6875 34.4496 45.5744C34.4496 43.4485 35.4836 42.3856 37.5514 42.3856C38.0525 42.3856 38.5167 42.4463 38.944 42.5676C39.3766 42.6889 39.6984 42.8234 39.9094 42.9711V44.9493H38.0103V44.3796C38.0103 44.1791 37.9655 44.0314 37.8758 43.9365C37.7861 43.8415 37.6516 43.7941 37.4723 43.7941C37.2929 43.7941 37.1584 43.8415 37.0687 43.9365C36.979 44.0314 36.9342 44.1791 36.9342 44.3796V46.7692C36.9342 46.9697 36.979 47.1174 37.0687 47.2123C37.1584 47.3073 37.2929 47.3548 37.4723 47.3548C37.6516 47.3548 37.7861 47.3073 37.8758 47.2123C37.9655 47.1174 38.0103 46.9697 38.0103 46.7692V46.1283H39.9094V48.1777C39.6931 48.3254 39.3713 48.4599 38.944 48.5812C38.522 48.7026 38.0631 48.7632 37.5672 48.7632Z" fill="#6B7385"/>
<path d="M43.2776 48.7632C42.2806 48.7632 41.5105 48.51 40.9671 48.0036C40.4291 47.4972 40.16 46.6875 40.16 45.5744C40.16 43.4485 41.194 42.3856 43.2618 42.3856C43.7629 42.3856 44.2272 42.4463 44.6544 42.5676C45.087 42.6889 45.4088 42.8234 45.6198 42.9711V44.9493H43.7207V44.3796C43.7207 44.1791 43.6759 44.0314 43.5862 43.9365C43.4966 43.8415 43.362 43.7941 43.1827 43.7941C43.0033 43.7941 42.8688 43.8415 42.7791 43.9365C42.6895 44.0314 42.6446 44.1791 42.6446 44.3796V46.7692C42.6446 46.9697 42.6895 47.1174 42.7791 47.2123C42.8688 47.3073 43.0033 47.3548 43.1827 47.3548C43.362 47.3548 43.4966 47.3073 43.5862 47.2123C43.6759 47.1174 43.7207 46.9697 43.7207 46.7692V46.1283H45.6198V48.1777C45.4035 48.3254 45.0817 48.4599 44.6544 48.5812C44.2324 48.7026 43.7735 48.7632 43.2776 48.7632Z" fill="#6B7385"/>
<path d="M45.9179 48.6524V47.3548H46.3136V43.7941H45.9179V42.4964H51.259V44.886H49.4865V43.7941H48.5291V45.0443H49.2254V45.9463H48.5291V47.3548H49.4865V46.1046H51.259V48.6524H45.9179Z" fill="#6B7385"/>
<path d="M51.5588 47.3548H51.9544V43.7941H51.5588V42.4964H55.1907C55.8712 42.4964 56.3908 42.6362 56.7495 42.9157C57.1082 43.1953 57.2876 43.649 57.2876 44.2767C57.2876 44.6302 57.2164 44.9361 57.0739 45.1946C56.9315 45.4531 56.7284 45.6324 56.4647 45.7327L56.4726 45.8118C56.979 45.8909 57.2322 46.2021 57.2322 46.7455V47.3548H57.6041V48.6524H55.0958V46.793C55.0958 46.5872 55.0641 46.4316 55.0008 46.3261C54.9428 46.2206 54.8478 46.1494 54.716 46.1125C54.5894 46.0755 54.4074 46.0571 54.17 46.0571V47.3548H54.6922V48.6524H51.5588V47.3548ZM54.5973 45.0917C54.7503 45.0917 54.8637 45.0522 54.9375 44.973C55.0166 44.8886 55.0562 44.7594 55.0562 44.5853V44.3005C55.0562 44.1264 55.0166 43.9998 54.9375 43.9207C54.8637 43.8363 54.7503 43.7941 54.5973 43.7941H54.17V45.0917H54.5973Z" fill="#6B7385"/>
<path d="M32.3936 57.5347C31.4673 57.5347 30.7517 57.2995 30.2469 56.829C29.747 56.3585 29.4971 55.6062 29.4971 54.5721C29.4971 52.597 30.4577 51.6094 32.3789 51.6094C32.8445 51.6094 33.2757 51.6658 33.6727 51.7785C34.0746 51.8912 34.3736 52.0162 34.5696 52.1534V53.9913H32.8053V53.462C32.8053 53.2758 32.7636 53.1385 32.6803 53.0503C32.597 52.9621 32.472 52.918 32.3054 52.918C32.1387 52.918 32.0137 52.9621 31.9304 53.0503C31.8471 53.1385 31.8055 53.2758 31.8055 53.462V55.6822C31.8055 55.8684 31.8471 56.0056 31.9304 56.0938C32.0137 56.1821 32.1387 56.2262 32.3054 56.2262C32.472 56.2262 32.597 56.1821 32.6803 56.0938C32.7636 56.0056 32.8053 55.8684 32.8053 55.6822V55.0867H34.5696V56.9907C34.3687 57.128 34.0697 57.2529 33.6727 57.3657C33.2807 57.4784 32.8543 57.5347 32.3936 57.5347Z" fill="#6B7385"/>
<path d="M34.8466 57.4318V56.2262H35.2142V52.918H34.8466V51.7124H37.9489V52.918H37.2726V56.2262H37.9342V55.5498H39.3972V57.4318H34.8466Z" fill="#6B7385"/>
<path d="M42.1764 57.5347C41.4069 57.5347 40.8115 57.3657 40.39 57.0275C39.9734 56.6893 39.7651 56.1404 39.7651 55.3807V52.918H39.3975V51.7124H42.1176V52.918H41.8235V55.7557C41.8235 55.9174 41.8578 56.0375 41.9264 56.1159C42 56.1894 42.1078 56.2262 42.2499 56.2262C42.392 56.2262 42.4974 56.1894 42.566 56.1159C42.6395 56.0375 42.6763 55.9174 42.6763 55.7557V52.918H42.3822V51.7124H44.9038V52.918H44.5362V55.3807C44.5362 56.1404 44.3328 56.6893 43.926 57.0275C43.5193 57.3657 42.936 57.5347 42.1764 57.5347Z" fill="#6B7385"/>
<path d="M45.1703 56.2262H45.5379V52.918H45.1703V51.7124H48.5446C49.1572 51.7124 49.6351 51.8373 49.9782 52.0873C50.3212 52.3372 50.4928 52.695 50.4928 53.1606C50.4928 53.4498 50.4242 53.6948 50.2869 53.8957C50.1497 54.0918 49.988 54.2413 49.8017 54.3442C49.6204 54.4422 49.444 54.5084 49.2724 54.5427V54.6162C49.6204 54.6505 49.9341 54.7608 50.2134 54.947C50.4928 55.1332 50.6324 55.4665 50.6324 55.9468C50.6324 56.4614 50.4389 56.8388 50.0517 57.0789C49.6645 57.3142 49.1621 57.4318 48.5446 57.4318H45.1703V56.2262ZM47.9933 54.1236C48.1354 54.1236 48.2408 54.0869 48.3094 54.0134C48.3829 53.935 48.4196 53.8149 48.4196 53.6531V53.3885C48.4196 53.2268 48.3829 53.1091 48.3094 53.0356C48.2408 52.9572 48.1354 52.918 47.9933 52.918H47.5963V54.1236H47.9933ZM48.0447 56.2262C48.1868 56.2262 48.2922 56.1894 48.3608 56.1159C48.4343 56.0375 48.4711 55.9174 48.4711 55.7557V55.4322C48.4711 55.2705 48.4343 55.1529 48.3608 55.0793C48.2922 55.0009 48.1868 54.9617 48.0447 54.9617H47.5963V56.2262H48.0447Z" fill="#6B7385"/>
<path d="M23.0326 33.5677V33.3795L23.5403 33.2876L23.4703 33.3839V30.7143L23.549 30.78H22.7044L22.7919 30.7056L22.7044 31.2614H22.4856V30.513H24.8094V31.2614H24.5906L24.5031 30.7143L24.5906 30.78H23.746L23.8248 30.7143V33.3839L23.7591 33.2876L24.2624 33.3795V33.5677H23.0326Z" fill="#6B7385"/>
<path d="M26.3877 33.6071C26.1368 33.6071 25.9107 33.5502 25.7094 33.4364C25.511 33.3226 25.3534 33.152 25.2367 32.9244C25.123 32.6939 25.0661 32.4094 25.0661 32.071C25.0661 31.8055 25.1011 31.5736 25.1711 31.3752C25.244 31.1738 25.3447 31.0061 25.4731 30.8719C25.6014 30.7377 25.7488 30.6385 25.9151 30.5743C26.0843 30.5072 26.2652 30.4736 26.4577 30.4736C26.6445 30.4736 26.8195 30.5057 26.9829 30.5699C27.1463 30.6312 27.2892 30.726 27.4118 30.8544C27.5343 30.9798 27.6291 31.1374 27.6962 31.327C27.7663 31.5167 27.8013 31.7369 27.8013 31.9878C27.8013 32.3321 27.7386 32.6253 27.6131 32.8675C27.4906 33.1067 27.3228 33.2905 27.1098 33.4189C26.8968 33.5444 26.6561 33.6071 26.3877 33.6071ZM26.4096 33.3226C26.5905 33.3226 26.7568 33.2774 26.9085 33.187C27.0631 33.0936 27.1857 32.9506 27.2761 32.7581C27.3695 32.5655 27.4162 32.3161 27.4162 32.0097C27.4162 31.718 27.3724 31.4802 27.2849 31.2964C27.2003 31.1126 27.0836 30.9769 26.9348 30.8894C26.7889 30.8019 26.624 30.7581 26.4402 30.7581C26.2623 30.7581 26.0974 30.8033 25.9457 30.8938C25.7969 30.9813 25.6773 31.1213 25.5869 31.3139C25.4964 31.5035 25.4512 31.7515 25.4512 32.0579C25.4512 32.3496 25.4935 32.5889 25.5781 32.7756C25.6656 32.9623 25.7809 33.1009 25.9238 33.1913C26.0697 33.2789 26.2316 33.3226 26.4096 33.3226Z" fill="#6B7385"/>
<path d="M30.1037 30.5349L31.2197 30.513V30.7012L30.7865 30.7975L30.839 30.7056V32.4124C30.839 32.5203 30.8302 32.6312 30.8127 32.745C30.7952 32.8587 30.7631 32.9667 30.7164 33.0688C30.6698 33.1709 30.6041 33.2628 30.5195 33.3445C30.4349 33.4262 30.324 33.4904 30.1869 33.5371C30.0527 33.5838 29.8864 33.6071 29.688 33.6071C29.4663 33.6071 29.2839 33.5794 29.141 33.5239C28.998 33.4685 28.8871 33.3956 28.8084 33.3051C28.7296 33.2118 28.6741 33.114 28.6421 33.0119C28.61 32.9069 28.5895 32.8062 28.5808 32.7099C28.572 32.6137 28.5677 32.5305 28.5677 32.4605V30.7056L28.6202 30.7975L28.1913 30.7231V30.5349L29.3073 30.513V30.7012L28.8784 30.7975L28.9265 30.7056V32.4605C28.9265 32.5334 28.9294 32.6107 28.9353 32.6924C28.9411 32.7712 28.9557 32.8485 28.979 32.9244C29.0053 33.0002 29.0461 33.0688 29.1016 33.1301C29.157 33.1884 29.2314 33.2366 29.3248 33.2745C29.421 33.3095 29.5436 33.327 29.6924 33.327C29.8441 33.327 29.9681 33.308 30.0644 33.2701C30.1636 33.2322 30.2409 33.1811 30.2963 33.1169C30.3547 33.0528 30.397 32.9813 30.4232 32.9025C30.4495 32.8208 30.4655 32.7391 30.4714 32.6574C30.4772 32.5728 30.4801 32.4911 30.4801 32.4124V30.7056L30.5239 30.7931L30.1037 30.7231V30.5349Z" fill="#6B7385"/>
<path d="M31.5226 33.5677V33.3795L31.9559 33.2876L31.899 33.3664V30.7231L31.9734 30.8062L31.5226 30.7231V30.5349L32.271 30.513H32.783C33.1127 30.513 33.3621 30.5816 33.5313 30.7187C33.7006 30.8558 33.7852 31.0542 33.7852 31.3139C33.7852 31.5531 33.7093 31.7486 33.5576 31.9003C33.4088 32.052 33.1812 32.1439 32.8749 32.176L32.8705 32.1323C32.9843 32.1439 33.0762 32.1702 33.1462 32.211C33.2192 32.249 33.2804 32.3015 33.33 32.3686C33.3796 32.4328 33.4278 32.513 33.4745 32.6093L33.8421 33.3533L33.7327 33.2789L34.1003 33.3795V33.5677H33.562L33.1594 32.7056C33.1039 32.5801 33.05 32.4838 32.9974 32.4167C32.9478 32.3467 32.8851 32.2971 32.8093 32.2679C32.7363 32.2388 32.6313 32.2242 32.4942 32.2242L32.1922 32.2285L32.2578 32.1673V33.3664L32.2009 33.2876L32.7086 33.3795V33.5677H31.5226ZM32.2578 32.0622L32.1922 31.966H32.6079C32.8676 31.966 33.0675 31.9135 33.2075 31.8084C33.3475 31.7005 33.4176 31.5429 33.4176 31.3358C33.4176 31.1549 33.3607 31.0178 33.2469 30.9244C33.1331 30.8281 32.9639 30.78 32.7392 30.78H32.1922L32.2578 30.7143V32.0622Z" fill="#6B7385"/>
<path d="M36.4338 30.5349L37.4972 30.513V30.7012L37.0596 30.8019L37.1165 30.7187V33.5677H36.7138L35.0333 30.8938L35.0858 30.8894V33.3664L35.0202 33.2876L35.4622 33.3795V33.5677H34.4031V33.3795L34.8451 33.2876L34.7795 33.3664V30.7187L34.8276 30.7975L34.4031 30.7231V30.5349L35.2084 30.513L36.867 33.1432L36.8145 33.1476V30.7187L36.8758 30.7975L36.4338 30.7231V30.5349Z" fill="#6B7385"/>
<path d="M40.2925 33.3752L40.1918 33.2876L40.6032 33.3795V33.5677H39.4653V33.3795L39.9205 33.292L39.8855 33.3533L39.6535 32.6531L39.7192 32.7056H38.38L38.4413 32.6531L38.1918 33.3445L38.1699 33.2964L38.6163 33.3795V33.5677H37.5397V33.3795L37.9424 33.2876L37.8505 33.3664L38.9183 30.5174L39.2815 30.5043L40.2925 33.3752ZM38.4894 32.4999L38.4544 32.443H39.6491L39.6097 32.5043L39.0364 30.7231L39.1196 30.7275L38.4894 32.4999Z" fill="#6B7385"/>
<path d="M44.1818 30.7012L43.7441 30.8019L43.801 30.7056V33.3664L43.7441 33.2876L44.1818 33.3795V33.5677H43.0921V33.3795L43.5384 33.2876L43.4684 33.3664V30.9113L43.5253 30.9156L42.5319 32.7712L42.2912 32.7887L41.3284 30.9069L41.3809 30.9025V33.3664L41.3284 33.292L41.7616 33.3795V33.5677H40.7069V33.3795L41.1446 33.2876L41.0833 33.3664V30.7056L41.1446 30.8019L40.7069 30.7231V30.5349L41.5253 30.513L42.475 32.4342H42.4225L43.4028 30.5349L44.1818 30.513V30.7012Z" fill="#6B7385"/>
<path d="M46.5959 32.85H46.8147V33.5677H44.6046V33.3795L45.0379 33.2876L44.981 33.3664V30.7231L45.0379 30.8019L44.6046 30.7231V30.5349L45.3355 30.513H46.7622V31.2045H46.5433L46.4646 30.7231L46.539 30.78H45.2742L45.3399 30.7143V31.9397L45.2742 31.8741H46.4427V32.1366H45.2742L45.3399 32.0622V33.3664L45.2742 33.3008H46.5959L46.5171 33.3664L46.5959 32.85Z" fill="#6B7385"/>
<path d="M49.3534 30.5349L50.4168 30.513V30.7012L49.9792 30.8019L50.0361 30.7187V33.5677H49.6335L47.9529 30.8938L48.0055 30.8894V33.3664L47.9398 33.2876L48.3818 33.3795V33.5677H47.3227V33.3795L47.7648 33.2876L47.6991 33.3664V30.7187L47.7472 30.7975L47.3227 30.7231V30.5349L48.128 30.513L49.7866 33.1432L49.7341 33.1476V30.7187L49.7954 30.7975L49.3534 30.7231V30.5349Z" fill="#6B7385"/>
<path d="M51.1412 33.5677V33.3795L51.6489 33.2876L51.5789 33.3839V30.7143L51.6576 30.78H50.813L50.9005 30.7056L50.813 31.2614H50.5942V30.513H52.918V31.2614H52.6992L52.6117 30.7143L52.6992 30.78H51.8546L51.9334 30.7143V33.3839L51.8677 33.2876L52.371 33.3795V33.5677H51.1412Z" fill="#6B7385"/>
<path d="M25.3515 48.7632C24.8451 48.7632 24.365 48.721 23.9114 48.6366C23.463 48.5469 23.1175 48.4467 22.8748 48.3359V46.7692H24.6156C24.6156 46.9327 24.6525 47.0514 24.7264 47.1253C24.8002 47.1991 24.9347 47.2361 25.1299 47.2361C25.2935 47.2361 25.4095 47.2123 25.4781 47.1649C25.5519 47.1121 25.5889 47.0356 25.5889 46.9354C25.5889 46.851 25.5546 46.7798 25.486 46.7217C25.4174 46.6584 25.2987 46.5951 25.1299 46.5318L24.4494 46.2945C23.8639 46.0729 23.4419 45.8118 23.1834 45.5111C22.9302 45.2104 22.8036 44.8042 22.8036 44.2925C22.8036 43.6701 23.0067 43.198 23.4129 42.8762C23.8243 42.5491 24.5075 42.3856 25.4623 42.3856C25.9212 42.3856 26.3511 42.4331 26.752 42.528C27.1582 42.6177 27.4853 42.739 27.7332 42.892V44.3084H26.1507C26.1507 44.0446 25.9871 43.9127 25.6601 43.9127C25.5018 43.9127 25.3884 43.9338 25.3198 43.976C25.2565 44.013 25.2249 44.0815 25.2249 44.1818C25.2249 44.2714 25.2618 44.3427 25.3357 44.3954C25.4148 44.4482 25.5414 44.5036 25.7155 44.5616L26.4039 44.799C26.963 44.9889 27.3692 45.2368 27.6224 45.5428C27.8809 45.8434 28.0101 46.2391 28.0101 46.7297C28.0101 47.3996 27.7833 47.906 27.3296 48.2489C26.8813 48.5918 26.2219 48.7632 25.3515 48.7632Z" stroke="#6B7385" stroke-width="2" mask="url(#path-9-inside-1_2074_1289)"/>
<path d="M31.2055 48.7632C30.2402 48.7632 29.4937 48.51 28.9662 48.0036C28.444 47.4972 28.1829 46.6875 28.1829 45.5744C28.1829 44.4614 28.444 43.6516 28.9662 43.1452C29.4937 42.6388 30.2402 42.3856 31.2055 42.3856C32.1708 42.3856 32.9146 42.6388 33.4369 43.1452C33.9644 43.6516 34.2281 44.4614 34.2281 45.5744C34.2281 46.6875 33.9644 47.4972 33.4369 48.0036C32.9146 48.51 32.1708 48.7632 31.2055 48.7632ZM31.2055 47.3548C31.3849 47.3548 31.5194 47.3073 31.609 47.2123C31.6987 47.1174 31.7436 46.9697 31.7436 46.7692V44.3796C31.7436 44.1791 31.6987 44.0314 31.609 43.9365C31.5194 43.8415 31.3849 43.7941 31.2055 43.7941C31.0261 43.7941 30.8916 43.8415 30.802 43.9365C30.7123 44.0314 30.6674 44.1791 30.6674 44.3796V46.7692C30.6674 46.9749 30.7123 47.1253 30.802 47.2202C30.8916 47.3099 31.0261 47.3548 31.2055 47.3548Z" stroke="#6B7385" stroke-width="2" mask="url(#path-9-inside-1_2074_1289)"/>
<path d="M37.5672 48.7632C36.5702 48.7632 35.8001 48.51 35.2567 48.0036C34.7187 47.4972 34.4496 46.6875 34.4496 45.5744C34.4496 43.4485 35.4836 42.3856 37.5514 42.3856C38.0525 42.3856 38.5167 42.4463 38.944 42.5676C39.3766 42.6889 39.6984 42.8234 39.9094 42.9711V44.9493H38.0103V44.3796C38.0103 44.1791 37.9655 44.0314 37.8758 43.9365C37.7861 43.8415 37.6516 43.7941 37.4723 43.7941C37.2929 43.7941 37.1584 43.8415 37.0687 43.9365C36.979 44.0314 36.9342 44.1791 36.9342 44.3796V46.7692C36.9342 46.9697 36.979 47.1174 37.0687 47.2123C37.1584 47.3073 37.2929 47.3548 37.4723 47.3548C37.6516 47.3548 37.7861 47.3073 37.8758 47.2123C37.9655 47.1174 38.0103 46.9697 38.0103 46.7692V46.1283H39.9094V48.1777C39.6931 48.3254 39.3713 48.4599 38.944 48.5812C38.522 48.7026 38.0631 48.7632 37.5672 48.7632Z" stroke="#6B7385" stroke-width="2" mask="url(#path-9-inside-1_2074_1289)"/>
<path d="M43.2776 48.7632C42.2806 48.7632 41.5105 48.51 40.9671 48.0036C40.4291 47.4972 40.16 46.6875 40.16 45.5744C40.16 43.4485 41.194 42.3856 43.2618 42.3856C43.7629 42.3856 44.2272 42.4463 44.6544 42.5676C45.087 42.6889 45.4088 42.8234 45.6198 42.9711V44.9493H43.7207V44.3796C43.7207 44.1791 43.6759 44.0314 43.5862 43.9365C43.4966 43.8415 43.362 43.7941 43.1827 43.7941C43.0033 43.7941 42.8688 43.8415 42.7791 43.9365C42.6895 44.0314 42.6446 44.1791 42.6446 44.3796V46.7692C42.6446 46.9697 42.6895 47.1174 42.7791 47.2123C42.8688 47.3073 43.0033 47.3548 43.1827 47.3548C43.362 47.3548 43.4966 47.3073 43.5862 47.2123C43.6759 47.1174 43.7207 46.9697 43.7207 46.7692V46.1283H45.6198V48.1777C45.4035 48.3254 45.0817 48.4599 44.6544 48.5812C44.2324 48.7026 43.7735 48.7632 43.2776 48.7632Z" stroke="#6B7385" stroke-width="2" mask="url(#path-9-inside-1_2074_1289)"/>
<path d="M45.9179 48.6524V47.3548H46.3136V43.7941H45.9179V42.4964H51.259V44.886H49.4865V43.7941H48.5291V45.0443H49.2254V45.9463H48.5291V47.3548H49.4865V46.1046H51.259V48.6524H45.9179Z" stroke="#6B7385" stroke-width="2" mask="url(#path-9-inside-1_2074_1289)"/>
<path d="M51.5588 47.3548H51.9544V43.7941H51.5588V42.4964H55.1907C55.8712 42.4964 56.3908 42.6362 56.7495 42.9157C57.1082 43.1953 57.2876 43.649 57.2876 44.2767C57.2876 44.6302 57.2164 44.9361 57.0739 45.1946C56.9315 45.4531 56.7284 45.6324 56.4647 45.7327L56.4726 45.8118C56.979 45.8909 57.2322 46.2021 57.2322 46.7455V47.3548H57.6041V48.6524H55.0958V46.793C55.0958 46.5872 55.0641 46.4316 55.0008 46.3261C54.9428 46.2206 54.8478 46.1494 54.716 46.1125C54.5894 46.0755 54.4074 46.0571 54.17 46.0571V47.3548H54.6922V48.6524H51.5588V47.3548ZM54.5973 45.0917C54.7503 45.0917 54.8637 45.0522 54.9375 44.973C55.0166 44.8886 55.0562 44.7594 55.0562 44.5853V44.3005C55.0562 44.1264 55.0166 43.9998 54.9375 43.9207C54.8637 43.8363 54.7503 43.7941 54.5973 43.7941H54.17V45.0917H54.5973Z" stroke="#6B7385" stroke-width="2" mask="url(#path-9-inside-1_2074_1289)"/>
<path d="M32.3936 57.5347C31.4673 57.5347 30.7517 57.2995 30.2469 56.829C29.747 56.3585 29.4971 55.6062 29.4971 54.5721C29.4971 52.597 30.4577 51.6094 32.3789 51.6094C32.8445 51.6094 33.2757 51.6658 33.6727 51.7785C34.0746 51.8912 34.3736 52.0162 34.5696 52.1534V53.9913H32.8053V53.462C32.8053 53.2758 32.7636 53.1385 32.6803 53.0503C32.597 52.9621 32.472 52.918 32.3054 52.918C32.1387 52.918 32.0137 52.9621 31.9304 53.0503C31.8471 53.1385 31.8055 53.2758 31.8055 53.462V55.6822C31.8055 55.8684 31.8471 56.0056 31.9304 56.0938C32.0137 56.1821 32.1387 56.2262 32.3054 56.2262C32.472 56.2262 32.597 56.1821 32.6803 56.0938C32.7636 56.0056 32.8053 55.8684 32.8053 55.6822V55.0867H34.5696V56.9907C34.3687 57.128 34.0697 57.2529 33.6727 57.3657C33.2807 57.4784 32.8543 57.5347 32.3936 57.5347Z" stroke="#6B7385" stroke-width="2" mask="url(#path-9-inside-1_2074_1289)"/>
<path d="M34.8466 57.4318V56.2262H35.2142V52.918H34.8466V51.7124H37.9489V52.918H37.2726V56.2262H37.9342V55.5498H39.3972V57.4318H34.8466Z" stroke="#6B7385" stroke-width="2" mask="url(#path-9-inside-1_2074_1289)"/>
<path d="M42.1764 57.5347C41.4069 57.5347 40.8115 57.3657 40.39 57.0275C39.9734 56.6893 39.7651 56.1404 39.7651 55.3807V52.918H39.3975V51.7124H42.1176V52.918H41.8235V55.7557C41.8235 55.9174 41.8578 56.0375 41.9264 56.1159C42 56.1894 42.1078 56.2262 42.2499 56.2262C42.392 56.2262 42.4974 56.1894 42.566 56.1159C42.6395 56.0375 42.6763 55.9174 42.6763 55.7557V52.918H42.3822V51.7124H44.9038V52.918H44.5362V55.3807C44.5362 56.1404 44.3328 56.6893 43.926 57.0275C43.5193 57.3657 42.936 57.5347 42.1764 57.5347Z" stroke="#6B7385" stroke-width="2" mask="url(#path-9-inside-1_2074_1289)"/>
<path d="M45.1703 56.2262H45.5379V52.918H45.1703V51.7124H48.5446C49.1572 51.7124 49.6351 51.8373 49.9782 52.0873C50.3212 52.3372 50.4928 52.695 50.4928 53.1606C50.4928 53.4498 50.4242 53.6948 50.2869 53.8957C50.1497 54.0918 49.988 54.2413 49.8017 54.3442C49.6204 54.4422 49.444 54.5084 49.2724 54.5427V54.6162C49.6204 54.6505 49.9341 54.7608 50.2134 54.947C50.4928 55.1332 50.6324 55.4665 50.6324 55.9468C50.6324 56.4614 50.4389 56.8388 50.0517 57.0789C49.6645 57.3142 49.1621 57.4318 48.5446 57.4318H45.1703V56.2262ZM47.9933 54.1236C48.1354 54.1236 48.2408 54.0869 48.3094 54.0134C48.3829 53.935 48.4196 53.8149 48.4196 53.6531V53.3885C48.4196 53.2268 48.3829 53.1091 48.3094 53.0356C48.2408 52.9572 48.1354 52.918 47.9933 52.918H47.5963V54.1236H47.9933ZM48.0447 56.2262C48.1868 56.2262 48.2922 56.1894 48.3608 56.1159C48.4343 56.0375 48.4711 55.9174 48.4711 55.7557V55.4322C48.4711 55.2705 48.4343 55.1529 48.3608 55.0793C48.2922 55.0009 48.1868 54.9617 48.0447 54.9617H47.5963V56.2262H48.0447Z" stroke="#6B7385" stroke-width="2" mask="url(#path-9-inside-1_2074_1289)"/>
<path d="M23.0326 33.5677V33.3795L23.5403 33.2876L23.4703 33.3839V30.7143L23.549 30.78H22.7044L22.7919 30.7056L22.7044 31.2614H22.4856V30.513H24.8094V31.2614H24.5906L24.5031 30.7143L24.5906 30.78H23.746L23.8248 30.7143V33.3839L23.7591 33.2876L24.2624 33.3795V33.5677H23.0326Z" stroke="#6B7385" stroke-width="2" mask="url(#path-9-inside-1_2074_1289)"/>
<path d="M26.3877 33.6071C26.1368 33.6071 25.9107 33.5502 25.7094 33.4364C25.511 33.3226 25.3534 33.152 25.2367 32.9244C25.123 32.6939 25.0661 32.4094 25.0661 32.071C25.0661 31.8055 25.1011 31.5736 25.1711 31.3752C25.244 31.1738 25.3447 31.0061 25.4731 30.8719C25.6014 30.7377 25.7488 30.6385 25.9151 30.5743C26.0843 30.5072 26.2652 30.4736 26.4577 30.4736C26.6445 30.4736 26.8195 30.5057 26.9829 30.5699C27.1463 30.6312 27.2892 30.726 27.4118 30.8544C27.5343 30.9798 27.6291 31.1374 27.6962 31.327C27.7663 31.5167 27.8013 31.7369 27.8013 31.9878C27.8013 32.3321 27.7386 32.6253 27.6131 32.8675C27.4906 33.1067 27.3228 33.2905 27.1098 33.4189C26.8968 33.5444 26.6561 33.6071 26.3877 33.6071ZM26.4096 33.3226C26.5905 33.3226 26.7568 33.2774 26.9085 33.187C27.0631 33.0936 27.1857 32.9506 27.2761 32.7581C27.3695 32.5655 27.4162 32.3161 27.4162 32.0097C27.4162 31.718 27.3724 31.4802 27.2849 31.2964C27.2003 31.1126 27.0836 30.9769 26.9348 30.8894C26.7889 30.8019 26.624 30.7581 26.4402 30.7581C26.2623 30.7581 26.0974 30.8033 25.9457 30.8938C25.7969 30.9813 25.6773 31.1213 25.5869 31.3139C25.4964 31.5035 25.4512 31.7515 25.4512 32.0579C25.4512 32.3496 25.4935 32.5889 25.5781 32.7756C25.6656 32.9623 25.7809 33.1009 25.9238 33.1913C26.0697 33.2789 26.2316 33.3226 26.4096 33.3226Z" stroke="#6B7385" stroke-width="2" mask="url(#path-9-inside-1_2074_1289)"/>
<path d="M30.1037 30.5349L31.2197 30.513V30.7012L30.7865 30.7975L30.839 30.7056V32.4124C30.839 32.5203 30.8302 32.6312 30.8127 32.745C30.7952 32.8587 30.7631 32.9667 30.7164 33.0688C30.6698 33.1709 30.6041 33.2628 30.5195 33.3445C30.4349 33.4262 30.324 33.4904 30.1869 33.5371C30.0527 33.5838 29.8864 33.6071 29.688 33.6071C29.4663 33.6071 29.2839 33.5794 29.141 33.5239C28.998 33.4685 28.8871 33.3956 28.8084 33.3051C28.7296 33.2118 28.6741 33.114 28.6421 33.0119C28.61 32.9069 28.5895 32.8062 28.5808 32.7099C28.572 32.6137 28.5677 32.5305 28.5677 32.4605V30.7056L28.6202 30.7975L28.1913 30.7231V30.5349L29.3073 30.513V30.7012L28.8784 30.7975L28.9265 30.7056V32.4605C28.9265 32.5334 28.9294 32.6107 28.9353 32.6924C28.9411 32.7712 28.9557 32.8485 28.979 32.9244C29.0053 33.0002 29.0461 33.0688 29.1016 33.1301C29.157 33.1884 29.2314 33.2366 29.3248 33.2745C29.421 33.3095 29.5436 33.327 29.6924 33.327C29.8441 33.327 29.9681 33.308 30.0644 33.2701C30.1636 33.2322 30.2409 33.1811 30.2963 33.1169C30.3547 33.0528 30.397 32.9813 30.4232 32.9025C30.4495 32.8208 30.4655 32.7391 30.4714 32.6574C30.4772 32.5728 30.4801 32.4911 30.4801 32.4124V30.7056L30.5239 30.7931L30.1037 30.7231V30.5349Z" stroke="#6B7385" stroke-width="2" mask="url(#path-9-inside-1_2074_1289)"/>
<path d="M31.5226 33.5677V33.3795L31.9559 33.2876L31.899 33.3664V30.7231L31.9734 30.8062L31.5226 30.7231V30.5349L32.271 30.513H32.783C33.1127 30.513 33.3621 30.5816 33.5313 30.7187C33.7006 30.8558 33.7852 31.0542 33.7852 31.3139C33.7852 31.5531 33.7093 31.7486 33.5576 31.9003C33.4088 32.052 33.1812 32.1439 32.8749 32.176L32.8705 32.1323C32.9843 32.1439 33.0762 32.1702 33.1462 32.211C33.2192 32.249 33.2804 32.3015 33.33 32.3686C33.3796 32.4328 33.4278 32.513 33.4745 32.6093L33.8421 33.3533L33.7327 33.2789L34.1003 33.3795V33.5677H33.562L33.1594 32.7056C33.1039 32.5801 33.05 32.4838 32.9974 32.4167C32.9478 32.3467 32.8851 32.2971 32.8093 32.2679C32.7363 32.2388 32.6313 32.2242 32.4942 32.2242L32.1922 32.2285L32.2578 32.1673V33.3664L32.2009 33.2876L32.7086 33.3795V33.5677H31.5226ZM32.2578 32.0622L32.1922 31.966H32.6079C32.8676 31.966 33.0675 31.9135 33.2075 31.8084C33.3475 31.7005 33.4176 31.5429 33.4176 31.3358C33.4176 31.1549 33.3607 31.0178 33.2469 30.9244C33.1331 30.8281 32.9639 30.78 32.7392 30.78H32.1922L32.2578 30.7143V32.0622Z" stroke="#6B7385" stroke-width="2" mask="url(#path-9-inside-1_2074_1289)"/>
<path d="M36.4338 30.5349L37.4972 30.513V30.7012L37.0596 30.8019L37.1165 30.7187V33.5677H36.7138L35.0333 30.8938L35.0858 30.8894V33.3664L35.0202 33.2876L35.4622 33.3795V33.5677H34.4031V33.3795L34.8451 33.2876L34.7795 33.3664V30.7187L34.8276 30.7975L34.4031 30.7231V30.5349L35.2084 30.513L36.867 33.1432L36.8145 33.1476V30.7187L36.8758 30.7975L36.4338 30.7231V30.5349Z" stroke="#6B7385" stroke-width="2" mask="url(#path-9-inside-1_2074_1289)"/>
<path d="M40.2925 33.3752L40.1918 33.2876L40.6032 33.3795V33.5677H39.4653V33.3795L39.9205 33.292L39.8855 33.3533L39.6535 32.6531L39.7192 32.7056H38.38L38.4413 32.6531L38.1918 33.3445L38.1699 33.2964L38.6163 33.3795V33.5677H37.5397V33.3795L37.9424 33.2876L37.8505 33.3664L38.9183 30.5174L39.2815 30.5043L40.2925 33.3752ZM38.4894 32.4999L38.4544 32.443H39.6491L39.6097 32.5043L39.0364 30.7231L39.1196 30.7275L38.4894 32.4999Z" stroke="#6B7385" stroke-width="2" mask="url(#path-9-inside-1_2074_1289)"/>
<path d="M44.1818 30.7012L43.7441 30.8019L43.801 30.7056V33.3664L43.7441 33.2876L44.1818 33.3795V33.5677H43.0921V33.3795L43.5384 33.2876L43.4684 33.3664V30.9113L43.5253 30.9156L42.5319 32.7712L42.2912 32.7887L41.3284 30.9069L41.3809 30.9025V33.3664L41.3284 33.292L41.7616 33.3795V33.5677H40.7069V33.3795L41.1446 33.2876L41.0833 33.3664V30.7056L41.1446 30.8019L40.7069 30.7231V30.5349L41.5253 30.513L42.475 32.4342H42.4225L43.4028 30.5349L44.1818 30.513V30.7012Z" stroke="#6B7385" stroke-width="2" mask="url(#path-9-inside-1_2074_1289)"/>
<path d="M46.5959 32.85H46.8147V33.5677H44.6046V33.3795L45.0379 33.2876L44.981 33.3664V30.7231L45.0379 30.8019L44.6046 30.7231V30.5349L45.3355 30.513H46.7622V31.2045H46.5433L46.4646 30.7231L46.539 30.78H45.2742L45.3399 30.7143V31.9397L45.2742 31.8741H46.4427V32.1366H45.2742L45.3399 32.0622V33.3664L45.2742 33.3008H46.5959L46.5171 33.3664L46.5959 32.85Z" stroke="#6B7385" stroke-width="2" mask="url(#path-9-inside-1_2074_1289)"/>
<path d="M49.3534 30.5349L50.4168 30.513V30.7012L49.9792 30.8019L50.0361 30.7187V33.5677H49.6335L47.9529 30.8938L48.0055 30.8894V33.3664L47.9398 33.2876L48.3818 33.3795V33.5677H47.3227V33.3795L47.7648 33.2876L47.6991 33.3664V30.7187L47.7472 30.7975L47.3227 30.7231V30.5349L48.128 30.513L49.7866 33.1432L49.7341 33.1476V30.7187L49.7954 30.7975L49.3534 30.7231V30.5349Z" stroke="#6B7385" stroke-width="2" mask="url(#path-9-inside-1_2074_1289)"/>
<path d="M51.1412 33.5677V33.3795L51.6489 33.2876L51.5789 33.3839V30.7143L51.6576 30.78H50.813L50.9005 30.7056L50.813 31.2614H50.5942V30.513H52.918V31.2614H52.6992L52.6117 30.7143L52.6992 30.78H51.8546L51.9334 30.7143V33.3839L51.8677 33.2876L52.371 33.3795V33.5677H51.1412Z" stroke="#6B7385" stroke-width="2" mask="url(#path-9-inside-1_2074_1289)"/>
<path d="M40.4287 14.9478L40.542 15.2896L40.9014 15.2915L42.7178 15.2983L41.2529 16.3735L40.9629 16.5864L41.0723 16.9292L41.626 18.6597L40.1514 17.5981L39.8594 17.3872L39.5674 17.5981L38.0918 18.6597L38.6465 16.9292L38.7568 16.5864L38.4658 16.3735L37 15.2983L38.8184 15.2915L39.1777 15.2896L39.291 14.9478L39.8594 13.2212L40.4287 14.9478Z" fill="#6B7385" stroke="#6B7385"/>
<path d="M18.4784 37.5742H62.5379" stroke="#6B7385" stroke-width="4" stroke-miterlimit="10"/>
</svg>
